<svg width="365" height="292" viewBox="0 0 365 292" fill="none" xmlns="http://www.w3.org/2000/svg">
<g clip-path="url(#clip0_1828_2245)">
<path d="M206.488 43.4594C203.394 40.4773 201.51 37.236 203.48 34.0625C205.456 30.8891 210.422 30.1482 213.233 32.6055C211.145 30.9632 209.008 29.253 207.736 26.9254C206.469 24.5916 206.296 21.449 208.044 19.4548C209.582 17.7014 212.213 17.263 214.493 17.7693C215.617 18.0163 216.673 18.4608 217.692 18.9979C216.704 17.5162 216.432 15.417 217.272 13.7932C218.699 11.0211 222.188 9.84185 225.289 10.1876C228.383 10.5395 231.194 12.1015 233.905 13.6389C252.064 23.863 287.899 55.3691 287.899 55.3691C288.844 60.5367 269.981 91.4191 262.829 98.3711C258.203 96.9819 223.51 69.1742 210.367 57.8942C208.162 56.005 205.895 53.9984 204.777 51.3189C203.659 48.6394 204.073 45.077 206.488 43.4656V43.4594Z" fill="#EDEDED"/>
<path d="M262.829 98.9826C262.767 98.9826 262.712 98.9764 262.65 98.9579C257.87 97.5194 223.214 69.7301 209.965 58.3638C207.939 56.6289 205.42 54.4618 204.209 51.56C203.14 48.9978 203.301 45.423 205.555 43.4103C202.01 39.7985 201.164 36.6312 202.955 33.7479C203.993 32.081 205.815 30.9388 207.952 30.6239C208.594 30.5313 209.224 30.5128 209.842 30.5683C208.823 29.5928 207.884 28.5 207.198 27.2344C205.951 24.9376 205.537 21.3999 207.581 19.06C209.447 16.9299 212.442 16.6891 214.629 17.1769C215.215 17.3065 215.808 17.4918 216.426 17.7387C215.994 16.3125 216.086 14.7628 216.722 13.5219C218.371 10.3175 222.244 9.23709 225.357 9.58901C228.624 9.95945 231.595 11.6326 234.208 13.1144C252.212 23.2583 287.943 54.6038 288.301 54.9187C288.406 55.0113 288.474 55.1347 288.498 55.2706C289.53 60.9321 270.099 92.1727 263.249 98.8221C263.132 98.9332 262.977 98.995 262.817 98.995L262.829 98.9826ZM209.125 31.7599C208.798 31.7599 208.471 31.7846 208.137 31.834C206.358 32.0995 204.851 33.0318 204.005 34.39C202.461 36.872 203.387 39.6133 206.914 43.0151C207.05 43.1448 207.118 43.33 207.099 43.5152C207.081 43.7005 206.982 43.8672 206.828 43.9721C204.654 45.4292 204.363 48.7261 205.345 51.0784C206.445 53.7147 208.841 55.7707 210.768 57.4253C224.999 69.6375 257.215 95.2967 262.675 97.6552C270.062 90.1785 287.708 61.068 287.319 55.6781C284.576 53.2825 250.853 23.888 233.609 14.1763C231.095 12.7563 228.248 11.1449 225.227 10.8053C222.627 10.5151 219.205 11.4103 217.828 14.0775C217.136 15.4235 217.291 17.2695 218.217 18.6586C218.371 18.8933 218.353 19.202 218.161 19.4119C217.97 19.6218 217.661 19.6774 217.414 19.5477C216.315 18.9735 215.32 18.5907 214.363 18.3746C212.053 17.8622 209.755 18.4487 208.514 19.8687C206.859 21.7642 207.229 24.703 208.285 26.6416C209.416 28.7223 211.361 30.3461 213.165 31.7784C213.331 31.8957 213.486 32.0192 213.64 32.155C213.894 32.3773 213.924 32.7539 213.708 33.0132C213.492 33.2725 213.115 33.3096 212.85 33.1058C212.708 32.9947 212.566 32.8836 212.424 32.7663C211.503 32.118 210.348 31.7723 209.125 31.7723V31.7599Z" fill="#3D3D3D"/>
<path d="M238.995 33.4142C238.883 33.4142 238.772 33.3833 238.673 33.3216C232.028 29.2282 225.369 24.9496 218.884 20.597C218.6 20.4056 218.526 20.0228 218.717 19.7388C218.909 19.4548 219.292 19.3807 219.576 19.5721C226.043 23.9124 232.688 28.1848 239.322 32.2659C239.612 32.4449 239.705 32.8277 239.526 33.1179C239.408 33.3093 239.205 33.4142 239.001 33.4142H238.995Z" fill="#3D3D3D"/>
<path d="M230.588 45.8737C230.465 45.8737 230.341 45.8367 230.23 45.7564L213.091 33.4948C212.813 33.2972 212.751 32.9083 212.948 32.6305C213.146 32.3526 213.535 32.2909 213.813 32.4885L230.953 44.7501C231.231 44.9476 231.292 45.3366 231.095 45.6144C230.971 45.7811 230.786 45.8737 230.594 45.8737H230.588Z" fill="#3D3D3D"/>
<path d="M222.553 56.0976C222.436 56.0976 222.312 56.0605 222.207 55.9926C216.976 52.4487 211.849 48.6208 206.97 44.6139C206.704 44.3978 206.667 44.0089 206.883 43.7434C207.099 43.4779 207.489 43.4408 207.754 43.6569C212.603 47.6454 217.698 51.4485 222.899 54.9677C223.183 55.1591 223.257 55.5419 223.065 55.8259C222.948 56.005 222.751 56.0976 222.553 56.0976Z" fill="#3D3D3D"/>
<path d="M296.713 291.544L296.769 207.639C314.513 214.443 345.043 212.597 355.185 197.378C397.228 134.285 286.973 51.2139 286.973 51.2139L255.634 96.8584L270.463 117.696C259.784 114.053 247.32 112.522 232.058 111.306C231.12 113.176 229.884 114.899 228.365 116.418C225.06 119.715 220.706 121.974 216.241 123.221C211.275 124.604 205.92 124.882 200.83 124.073C195.531 123.234 190.009 120.888 186.551 116.634C184.759 114.43 183.549 111.818 182.709 109.114C139.987 111.979 115.133 125.234 82.966 137.595C69.7114 142.688 57.9762 116.905 57.9762 116.905C53.5724 135.285 37.5632 145.967 24.0801 153.69C49.9345 245.078 132.346 196.143 132.346 196.143L112.119 291.544H296.713Z" fill="#B4C6E5"/>
<path d="M131.945 197.575C131.883 197.575 131.815 197.563 131.747 197.544C131.426 197.439 131.247 197.087 131.358 196.766C131.994 194.859 132.995 191.519 133.965 188.29C134.934 185.048 135.941 181.702 136.584 179.776C136.689 179.454 137.041 179.275 137.362 179.387C137.683 179.492 137.862 179.843 137.751 180.164C137.115 182.072 136.114 185.412 135.144 188.641C134.175 191.883 133.168 195.229 132.526 197.155C132.439 197.415 132.198 197.575 131.939 197.575H131.945Z" fill="#3D3D3D"/>
<path d="M305.181 173.558C304.897 173.558 304.644 173.36 304.582 173.076C304.526 172.817 298.442 146.794 270.031 118.14C269.79 117.899 269.79 117.504 270.031 117.269C270.272 117.029 270.667 117.029 270.902 117.269C299.585 146.201 305.718 172.545 305.78 172.811C305.854 173.144 305.644 173.472 305.311 173.546C305.267 173.558 305.218 173.558 305.175 173.558H305.181Z" fill="#3D3D3D"/>
<path d="M61.472 123.568C51.9418 99.7489 44.6845 74.7256 30.9297 53.0671C29.7191 51.1593 28.3912 49.2207 26.4456 48.0723C24.5 46.924 21.7639 46.8005 20.1518 48.381C18.5213 49.9863 18.5954 52.6041 18.9227 54.8699C19.9665 61.9824 22.5915 70.0827 26.3282 76.2197C26.3282 76.2197 16.6683 73.2561 13.0428 81.943C13.0428 81.943 7.28019 80.3254 4.74168 91.7226C4.74168 91.7226 -2.13266 98.2856 2.87023 106.232C6.47108 111.943 10.4796 112.307 10.4796 112.307C10.4796 112.307 17.2798 142.232 24.9633 155.043L61.4597 123.574L61.472 123.568Z" fill="#EDEDED"/>
<path d="M24.9757 155.654C24.7657 155.654 24.5619 155.549 24.4446 155.352C17.2799 143.411 10.8256 116.443 9.98558 112.831C8.78118 112.56 5.41503 111.399 2.36389 106.552C-2.44136 98.9273 3.22241 92.4384 4.19211 91.4135C5.27298 86.6595 7.05178 83.5108 9.47294 82.0661C10.8132 81.2634 12.0114 81.2079 12.6785 81.2634C15.7111 74.6696 22.221 74.8733 25.0993 75.324C21.869 69.5946 19.3675 62.0931 18.3176 54.956C18.0087 52.8383 17.8173 49.813 19.7196 47.9361C21.6219 46.0654 24.704 46.3185 26.7607 47.5348C28.8113 48.7449 30.201 50.77 31.4486 52.7333C41.6644 68.8166 48.409 87.0115 54.9251 104.607C57.2104 110.775 59.5698 117.147 62.0465 123.333C62.1763 123.648 62.0218 124.006 61.7007 124.136C61.3857 124.265 61.0274 124.111 60.8977 123.79C58.4148 117.591 56.0492 111.207 53.764 105.033C47.2664 87.4992 40.5526 69.3661 30.4048 53.3939C29.188 51.48 27.9466 49.671 26.1307 48.5967C24.5187 47.6459 22.0296 47.399 20.5905 48.8128C19.0834 50.2946 19.2687 52.9247 19.5405 54.7707C20.6399 62.2722 23.376 70.1626 26.8657 75.8859C27.0016 76.102 26.9831 76.3798 26.8286 76.5835C26.6742 76.7873 26.4087 76.8737 26.1616 76.7935C25.791 76.6823 16.9958 74.1078 13.6297 82.1649C13.5123 82.455 13.1911 82.6032 12.8947 82.5229C12.8453 82.5106 11.61 82.2019 10.0782 83.1342C8.61442 84.0294 6.60708 86.2644 5.36562 91.8395C5.34092 91.9568 5.27915 92.068 5.18651 92.1544C4.92092 92.4075 -1.26166 98.4704 3.4077 105.885C6.77384 111.232 10.5167 111.67 10.5538 111.677C10.8194 111.701 11.0356 111.899 11.0973 112.152C11.1653 112.448 17.9593 142.127 25.5069 154.71C25.6798 155 25.5872 155.383 25.2969 155.555C25.1981 155.617 25.0869 155.642 24.9819 155.642L24.9757 155.654Z" fill="#3D3D3D"/>
<path d="M24.9697 155.036C30.0344 163.489 66.5987 136.391 61.4661 123.567L24.9697 155.036Z" fill="#EDEDED"/>
<path d="M28.4161 157.259C26.557 157.259 25.2043 156.623 24.4446 155.358C24.2717 155.068 24.3643 154.685 24.6546 154.512C24.9449 154.339 25.3279 154.432 25.5008 154.722C26.7423 156.79 30.621 156.401 36.1489 153.66C48.1991 147.69 64.2516 132.174 60.8978 123.796C60.7681 123.481 60.9225 123.123 61.2437 122.994C61.5587 122.87 61.9169 123.018 62.0466 123.339C65.7031 132.471 49.4406 148.455 36.6986 154.771C33.351 156.432 30.5531 157.265 28.4161 157.265V157.259Z" fill="#EDEDED"/>
<path d="M20.3557 109.139C18.2187 109.139 16.0075 107.96 14.4943 105.947C12.9626 103.91 12.277 101.372 11.7643 98.9333C11.1096 95.8092 10.4302 91.6912 11.0417 87.5608C11.2579 86.0913 11.6346 84.6775 12.172 83.3563C12.3017 83.0414 12.6599 82.887 12.9749 83.0167C13.2899 83.1463 13.4443 83.5044 13.3146 83.8193C12.8205 85.0479 12.4623 86.3692 12.2646 87.7398C11.6902 91.6788 12.3387 95.6549 12.9749 98.6802C13.4567 100.977 14.0928 103.36 15.4825 105.206C16.7055 106.83 18.9475 108.268 21.1957 107.83C22.2828 107.62 23.2957 106.83 23.8454 105.768C24.2963 104.897 24.358 103.99 24.0121 103.218C23.8701 102.909 24.0121 102.539 24.321 102.403C24.636 102.261 25.0004 102.403 25.1363 102.712C25.6365 103.829 25.5686 105.12 24.9324 106.33C24.2098 107.719 22.8695 108.756 21.4242 109.034C21.0722 109.102 20.7139 109.139 20.3495 109.139H20.3557Z" fill="#3D3D3D"/>
<path d="M37.909 112.171C36.2785 112.171 34.5923 111.325 33.5114 110.127C32.1464 108.602 31.4732 106.663 30.8247 104.793C30.7197 104.484 30.6147 104.181 30.5035 103.879C29.8488 102.064 28.8606 99.841 27.0015 98.8038C25.9515 98.2172 24.7162 98.0382 23.4068 97.853C21.9183 97.6369 20.3804 97.4208 19.0648 96.5503C17.7122 95.655 16.8537 94.1733 16.6437 92.3766C16.3904 90.1972 17.1378 87.8819 18.5892 86.3446C21.6033 83.1465 26.3036 82.9366 28.8359 83.0971C33.2891 83.3811 37.5755 84.8875 41.2319 87.4498C41.5099 87.6473 41.5778 88.0301 41.3802 88.308C41.1825 88.5858 40.7996 88.6537 40.5217 88.4561C37.0505 86.0236 32.9864 84.5912 28.7556 84.3257C26.4394 84.1775 22.153 84.3566 19.4848 87.1843C18.2742 88.4685 17.6566 90.4009 17.8666 92.2285C18.0333 93.6608 18.7004 94.8277 19.7442 95.5192C20.8313 96.2354 22.1654 96.4268 23.5798 96.6305C24.9448 96.8281 26.353 97.0318 27.6006 97.7295C29.8179 98.9705 30.9359 101.446 31.6585 103.465C31.7697 103.774 31.8747 104.083 31.9859 104.391C32.5973 106.151 33.2273 107.966 34.4317 109.306C35.7226 110.751 38.119 111.528 39.6199 110.392C39.8917 110.189 40.2808 110.238 40.4846 110.51C40.6884 110.781 40.639 111.17 40.3672 111.374C39.6323 111.93 38.7799 112.171 37.9029 112.171H37.909Z" fill="#3D3D3D"/>
<path d="M15.3775 112.072C15.3034 112.072 15.2293 112.072 15.149 112.072C13.574 112.004 11.962 111.25 10.6093 109.96C9.37403 108.781 8.49698 107.305 7.79905 106.015C5.51378 101.804 4.38967 98.001 4.34644 94.3892C4.34644 94.0496 4.6182 93.7656 4.9579 93.7656H4.96408C5.30378 93.7656 5.57554 94.0373 5.58172 94.3769C5.62495 97.7849 6.70582 101.397 8.8861 105.428C9.5408 106.632 10.3561 108.009 11.4678 109.071C12.5981 110.158 13.926 110.781 15.2046 110.837C16.6128 110.899 17.9654 110.201 18.546 109.102C18.7066 108.799 19.0772 108.688 19.3798 108.843C19.6825 109.003 19.7936 109.374 19.6392 109.676C18.8672 111.127 17.1748 112.072 15.3775 112.072Z" fill="#3D3D3D"/>
<path d="M10.8935 112.633C10.6403 112.633 10.3994 112.473 10.3129 112.22C10.2017 111.899 10.3685 111.547 10.6959 111.436C11.2641 111.238 11.8138 110.923 12.2708 110.528C12.5303 110.306 12.9194 110.337 13.1417 110.59C13.3641 110.849 13.3332 111.238 13.08 111.46C12.4932 111.967 11.8323 112.349 11.1035 112.602C11.0356 112.627 10.9676 112.64 10.8997 112.64L10.8935 112.633Z" fill="#3D3D3D"/>
<path d="M168.534 33.2791C165.619 28.8956 163.216 23.481 164.884 18.4862C166.644 13.2136 173.29 10.2068 178.41 12.3616C176.255 8.60776 174.507 4.61318 173.203 0.482757C187.218 0.0814462 201.633 2.55723 213.616 9.83639C225.598 17.1156 234.825 29.6673 235.937 43.6515C236.4 49.4674 235.375 55.6106 231.916 60.3028C228.278 65.2297 222.38 68.0265 216.438 69.5083C208.699 71.4407 200.17 71.3852 193.122 67.6561C188.366 65.1371 184.481 60.7473 182.802 55.6044C182.375 54.2955 182.091 52.9434 181.986 51.5728C181.906 50.5849 182.406 48.7636 182.029 47.893C181.579 46.862 179.652 45.8309 178.805 45.0777C177.595 44.0034 176.427 42.8859 175.31 41.719C172.808 39.1136 170.535 36.2921 168.54 33.2853L168.534 33.2791Z" fill="#3D3D3D"/>
<path d="M181.467 33.8286C181.307 33.8286 181.152 33.7669 181.029 33.6434C177.953 30.5378 175.68 26.6791 174.445 22.4869C174.346 22.1597 174.537 21.814 174.865 21.7214C175.192 21.6226 175.538 21.814 175.631 22.1412C176.804 26.1358 178.972 29.8155 181.906 32.7728C182.147 33.0136 182.141 33.4088 181.906 33.6434C181.789 33.7607 181.628 33.8224 181.474 33.8224L181.467 33.8286Z" fill="#9D9D9D"/>
<path d="M182.758 109.559L190.596 108.707L188.527 81.9305C188.527 81.9305 195.043 49.2947 220.132 73.6635L224.727 110.022L232.102 110.948C232.102 110.948 229.112 127.908 208.057 127.859C190.17 127.822 182.443 121.784 182.758 109.559Z" fill="#EDEDED"/>
<path d="M232.108 111.566C232.108 111.566 232.058 111.566 232.027 111.566L224.653 110.64C224.375 110.603 224.153 110.387 224.115 110.103L219.545 73.9601C212.176 66.8476 205.772 64.0693 200.509 65.6992C192.313 68.2429 189.398 80.8441 189.151 81.9739L191.214 108.664C191.238 108.998 190.998 109.288 190.664 109.325L182.826 110.177C182.48 110.214 182.184 109.967 182.147 109.627C182.11 109.288 182.357 108.985 182.696 108.948L189.941 108.158L187.922 81.9739C187.922 81.9184 187.922 81.8628 187.934 81.8072C188.051 81.2207 190.911 67.3909 200.151 64.52C205.914 62.7295 212.782 65.656 220.57 73.2254C220.669 73.3241 220.737 73.4538 220.755 73.5896L225.289 109.473L232.188 110.344C232.528 110.387 232.769 110.695 232.725 111.035C232.688 111.35 232.423 111.578 232.114 111.578L232.108 111.566Z" fill="#3D3D3D"/>
<path d="M208.52 74.9107C204.759 78.1335 200.287 80.6278 195.42 81.5539C190.553 82.4739 185.291 81.7268 181.165 78.9855C174.26 74.4044 171.758 65.1064 172.975 56.9073C174.192 48.7082 178.453 41.324 182.69 34.1992C182.69 34.1992 198.854 46.5966 213.702 48.597C215.592 53.4189 215.814 58.1174 214.715 62.7294C214.715 62.7294 218.013 59.735 221.04 61.7106C224.313 63.8469 225.635 68.4588 224.054 72.0336C222.479 75.6084 218.384 77.8063 214.499 77.4235C212.3 77.2074 210.287 76.7814 208.52 74.9107Z" fill="#EDEDED"/>
<path d="M191.442 82.5479C187.557 82.5479 183.833 81.4983 180.825 79.5041C174.284 75.1638 170.961 66.2547 172.37 56.8208C173.654 48.1957 178.373 40.2621 182.165 33.8905C182.258 33.7361 182.406 33.6312 182.579 33.6003C182.752 33.5694 182.931 33.6065 183.073 33.7176C183.234 33.8411 199.28 46.0348 213.789 47.9919C214.011 48.0228 214.202 48.171 214.283 48.3809C215.944 52.6101 216.395 56.9628 215.642 61.3463C217.007 60.5684 219.23 59.7967 221.386 61.2043C224.869 63.4764 226.321 68.4526 224.628 72.2929C222.973 76.0467 218.699 78.4669 214.443 78.0471C212.547 77.8618 210.392 77.5099 208.489 75.7565C204.45 79.1152 199.984 81.3255 195.537 82.1713C194.172 82.4306 192.795 82.5603 191.442 82.5603V82.5479ZM182.876 35.1068C179.201 41.2869 174.797 48.8748 173.586 56.9998C172.493 64.3469 174.519 73.8364 181.505 78.4731C185.297 80.9921 190.324 81.8935 195.303 80.9488C199.694 80.1153 204.123 77.868 208.112 74.4476C208.36 74.2315 208.736 74.25 208.965 74.4908C210.503 76.1146 212.244 76.5838 214.561 76.8122C218.297 77.1827 222.046 75.065 223.492 71.7866C224.956 68.4773 223.702 64.1864 220.706 62.2292C218.118 60.5437 215.252 63.0812 215.135 63.1862C214.937 63.3652 214.641 63.3961 214.406 63.2603C214.172 63.1244 214.054 62.8528 214.122 62.5873C215.215 57.9938 214.931 53.5918 213.264 49.1588C200.071 47.2325 185.84 37.2677 182.882 35.1068H182.876Z" fill="#3D3D3D"/>
<path d="M211.633 71.1633C211.349 71.1633 211.096 70.9719 211.034 70.6879C210.96 70.3545 211.164 70.0211 211.497 69.947C213.313 69.5272 215.042 68.8234 216.636 67.854C216.926 67.675 217.309 67.7676 217.482 68.0578C217.661 68.348 217.569 68.7308 217.278 68.9036C215.574 69.9409 213.721 70.6941 211.775 71.1448C211.726 71.1571 211.683 71.1633 211.633 71.1633Z" fill="#3D3D3D"/>
</g>
<defs>
<clipPath id="clip0_1828_2245">
<rect width="364.297" height="291.099" fill="white" transform="translate(0.449219 0.445312)"/>
</clipPath>
</defs>
</svg>
