<svg width="230" height="121" viewBox="0 0 230 121" fill="none" xmlns="http://www.w3.org/2000/svg">
<path d="M71.9149 21.4C71.6483 21.4 71.4683 21.3133 71.3749 21.14C71.2949 20.9667 71.2549 20.76 71.2549 20.52C71.2683 20.2667 71.2749 20.0333 71.2749 19.82C71.2749 18.4733 71.4083 17.1467 71.6749 15.84C71.9416 14.5333 72.2549 13.2333 72.6149 11.94C72.6416 11.86 72.6883 11.7133 72.7549 11.5C72.8216 11.2733 72.8949 11.0333 72.9749 10.78C73.0549 10.5267 73.1283 10.2933 73.1949 10.08C73.2749 9.86667 73.3283 9.72 73.3549 9.64C73.5016 9.18667 73.6749 8.86 73.8749 8.66C74.0749 8.44667 74.3616 8.34 74.7349 8.34C75.0683 8.34 75.3483 8.46 75.5749 8.7C75.8149 8.92667 76.0083 9.20667 76.1549 9.54C76.3149 9.86 76.4416 10.1667 76.5349 10.46C76.7616 11.1533 76.9949 11.86 77.2349 12.58C77.4749 13.2867 77.7016 13.9867 77.9149 14.68C78.0216 15.0267 78.1683 15.2 78.3549 15.2C78.5949 15.2 78.8216 14.9133 79.0349 14.34C79.1416 14.0467 79.2683 13.6933 79.4149 13.28C79.5749 12.8533 79.7349 12.4267 79.8949 12C80.0549 11.56 80.1949 11.1667 80.3149 10.82C80.4483 10.4733 80.5416 10.2267 80.5949 10.08C80.8083 9.53333 81.0416 9.09333 81.2949 8.76C81.5616 8.41333 81.9349 8.24 82.4149 8.24C82.7749 8.24 83.0683 8.36667 83.2949 8.62C83.5216 8.86 83.7083 9.16 83.8549 9.52C84.0016 9.86667 84.1216 10.2067 84.2149 10.54C84.5749 11.9 84.8483 13.28 85.0349 14.68C85.2349 16.08 85.3349 17.4733 85.3349 18.86V19.64C85.2816 19.8133 85.2083 19.9267 85.1149 19.98C85.0216 20.02 84.8549 20.04 84.6149 20.04C84.2816 20.04 84.0416 19.82 83.8949 19.38C83.8149 19.14 83.7616 18.8933 83.7349 18.64C83.7083 18.3867 83.6816 18.1333 83.6549 17.88C83.5216 16.52 83.4016 15.4333 83.2949 14.62C83.2016 13.7933 83.1149 13.1533 83.0349 12.7C82.9683 12.2467 82.9083 11.9 82.8549 11.66C82.8016 11.4067 82.7483 11.1733 82.6949 10.96C82.6549 10.72 82.5416 10.6 82.3549 10.6C82.1549 10.6 81.9949 10.72 81.8749 10.96C81.7949 11.2 81.6749 11.5467 81.5149 12C81.3683 12.4533 81.2016 12.9333 81.0149 13.44C80.8283 13.9467 80.6616 14.4067 80.5149 14.82C80.3683 15.2333 80.2683 15.52 80.2149 15.68C80.1483 15.8533 80.0549 16.0933 79.9349 16.4C79.8149 16.6933 79.6683 16.9867 79.4949 17.28C79.3349 17.5733 79.1483 17.8267 78.9349 18.04C78.7349 18.24 78.5216 18.34 78.2949 18.34C78.0816 18.34 77.8883 18.2533 77.7149 18.08C77.5416 17.8933 77.3949 17.68 77.2749 17.44C77.1683 17.2 77.0816 17 77.0149 16.84L75.3549 11.94C75.3416 11.8733 75.3149 11.78 75.2749 11.66C75.2349 11.5267 75.1683 11.4067 75.0749 11.3C74.9949 11.18 74.8749 11.12 74.7149 11.12C74.5683 11.12 74.4483 11.1867 74.3549 11.32C74.2749 11.4533 74.2149 11.6067 74.1749 11.78C74.1349 11.9533 74.1083 12.0933 74.0949 12.2C74.0683 12.3333 74.0283 12.5067 73.9749 12.72C73.9216 12.92 73.8683 13.1333 73.8149 13.36C73.7616 13.56 73.7149 13.7533 73.6749 13.94C73.6483 14.1133 73.6216 14.2467 73.5949 14.34C73.5816 14.4333 73.5483 14.6 73.4949 14.84C73.4549 15.08 73.4149 15.3333 73.3749 15.6C73.2683 16.2933 73.1683 16.9733 73.0749 17.64C72.9949 18.2933 72.9149 19.0067 72.8349 19.78C72.8216 20.0067 72.7883 20.2467 72.7349 20.5C72.6816 20.7533 72.5883 20.9667 72.4549 21.14C72.3349 21.3133 72.1549 21.4 71.9149 21.4ZM90.7654 21.7C90.1654 21.7 89.6054 21.5667 89.0854 21.3C88.5787 21.0333 88.1521 20.6733 87.8054 20.22C87.4587 19.7667 87.2321 19.26 87.1254 18.7V17.64C87.1254 16.88 87.2654 16.1133 87.5454 15.34C87.8254 14.5667 88.2121 13.8533 88.7054 13.2C89.2121 12.5467 89.8054 12.0267 90.4854 11.64C91.1787 11.24 91.9254 11.04 92.7254 11.04C93.2321 11.04 93.7187 11.1267 94.1854 11.3C94.6654 11.4733 95.0921 11.6733 95.4654 11.9C95.5454 11.34 95.6454 10.9533 95.7654 10.74C95.8854 10.5267 96.0921 10.42 96.3854 10.42C96.6121 10.42 96.7721 10.4933 96.8654 10.64C96.9587 10.7733 97.0054 11.0133 97.0054 11.36C97.0054 12.16 96.9854 12.9467 96.9454 13.72C96.9187 14.48 96.9054 15.26 96.9054 16.06C96.9054 16.7 96.9387 17.36 97.0054 18.04C97.0854 18.72 97.1254 19.3733 97.1254 20C97.1254 20.2 97.1254 20.4 97.1254 20.6C97.1387 20.8 97.1054 20.9667 97.0254 21.1C96.9587 21.22 96.8121 21.28 96.5854 21.28C96.2654 21.28 96.0254 21.1333 95.8654 20.84C95.7187 20.5333 95.6187 20.1667 95.5654 19.74C95.5121 19.3133 95.4587 18.9133 95.4054 18.54C95.2721 18.9 95.0454 19.2533 94.7254 19.6C94.4187 19.9467 94.1054 20.2467 93.7854 20.5C93.4787 20.74 93.2387 20.9133 93.0654 21.02C92.9054 21.1133 92.9054 21.1 93.0654 20.98C92.7721 21.1933 92.4054 21.3667 91.9654 21.5C91.5387 21.6333 91.1387 21.7 90.7654 21.7ZM90.5654 20.44C91.1654 20.44 91.7254 20.2667 92.2454 19.92C92.7654 19.5733 93.2187 19.1267 93.6054 18.58C94.0054 18.0333 94.3121 17.46 94.5254 16.86C94.7521 16.26 94.8654 15.7067 94.8654 15.2C94.8654 14.9467 94.8321 14.66 94.7654 14.34C94.7121 14.0067 94.6054 13.6867 94.4454 13.38C94.2854 13.0733 94.0654 12.82 93.7854 12.62C93.5187 12.42 93.1654 12.32 92.7254 12.32C92.1521 12.32 91.6054 12.5067 91.0854 12.88C90.5654 13.24 90.0987 13.7067 89.6854 14.28C89.2854 14.84 88.9721 15.42 88.7454 16.02C88.5187 16.62 88.4054 17.16 88.4054 17.64C88.4054 18 88.4654 18.4 88.5854 18.84C88.7187 19.28 88.9387 19.66 89.2454 19.98C89.5654 20.2867 90.0054 20.44 90.5654 20.44ZM101.333 8.42C100.893 8.42 100.54 8.32 100.273 8.12C100.02 7.90667 99.8929 7.63333 99.8929 7.3C99.8929 6.99333 100.04 6.76 100.333 6.6C100.626 6.42667 101 6.34 101.453 6.34C101.906 6.34 102.26 6.44667 102.513 6.66C102.766 6.86 102.893 7.14 102.893 7.5C102.893 7.79333 102.746 8.02 102.453 8.18C102.173 8.34 101.8 8.42 101.333 8.42ZM100.293 21.2C100.106 21.2 99.9596 21.08 99.8529 20.84C99.7596 20.6 99.6929 20.2933 99.6529 19.92C99.6262 19.5467 99.6129 19.16 99.6129 18.76C99.6129 18.5733 99.6129 18.3867 99.6129 18.2C99.6262 18 99.6329 17.8133 99.6329 17.64C99.6329 17.5867 99.6529 17.4133 99.6929 17.12C99.7329 16.8133 99.7796 16.46 99.8329 16.06C99.8862 15.66 99.9396 15.2667 99.9929 14.88C100.06 14.48 100.113 14.1667 100.153 13.94C100.193 13.7667 100.24 13.54 100.293 13.26C100.346 12.9667 100.44 12.7067 100.573 12.48C100.72 12.24 100.926 12.12 101.193 12.12C101.5 12.12 101.713 12.18 101.833 12.3C101.966 12.4067 102.033 12.58 102.033 12.82C102.033 12.8867 102.026 12.9533 102.013 13.02C102.013 13.0867 102.006 13.16 101.993 13.24C101.926 13.6667 101.84 14.2 101.733 14.84C101.64 15.4667 101.553 16.1267 101.473 16.82C101.406 17.5 101.386 18.1467 101.413 18.76C101.426 18.9067 101.44 19.08 101.453 19.28C101.48 19.4667 101.493 19.6533 101.493 19.84C101.493 20.1867 101.42 20.5 101.273 20.78C101.126 21.06 100.8 21.2 100.293 21.2ZM105.187 21.1C104.987 21.1 104.841 21.0533 104.747 20.96C104.654 20.8667 104.587 20.7333 104.547 20.56C104.481 20.3333 104.447 20.0933 104.447 19.84V19.06C104.447 18.6333 104.461 18.2667 104.487 17.96C104.514 17.64 104.527 17.2933 104.527 16.92C104.527 16.7867 104.521 16.6467 104.507 16.5C104.507 16.34 104.501 16.1733 104.487 16C104.434 15.3467 104.361 14.66 104.267 13.94C104.174 13.22 104.127 12.5667 104.127 11.98V11.2C104.207 11.0133 104.281 10.9 104.347 10.86C104.427 10.82 104.534 10.8 104.667 10.8C104.987 10.8 105.214 10.9267 105.347 11.18C105.481 11.42 105.567 11.7067 105.607 12.04C105.661 12.36 105.694 12.64 105.707 12.88C105.721 12.9733 105.741 13.1733 105.767 13.48C105.807 13.7867 105.847 14.1333 105.887 14.52C105.927 14.8933 105.961 15.2533 105.987 15.6C106.027 15.9467 106.047 16.2133 106.047 16.4C106.261 15.96 106.514 15.5067 106.807 15.04C107.101 14.56 107.394 14.1133 107.687 13.7C107.994 13.2867 108.267 12.9533 108.507 12.7C108.854 12.3133 109.261 12.0133 109.727 11.8C110.207 11.5733 110.681 11.46 111.147 11.46C111.694 11.46 112.174 11.6133 112.587 11.92C113.001 12.2267 113.354 12.6267 113.647 13.12C113.954 13.6133 114.207 14.1467 114.407 14.72C114.607 15.28 114.767 15.8267 114.887 16.36C115.061 17.0667 115.187 17.6867 115.267 18.22C115.361 18.7533 115.441 19.36 115.507 20.04C115.507 20.3333 115.447 20.5667 115.327 20.74C115.207 20.9133 115.061 21 114.887 21C114.634 21 114.454 20.9467 114.347 20.84C114.241 20.72 114.167 20.5333 114.127 20.28C114.034 19.7733 113.941 19.2 113.847 18.56C113.767 17.92 113.654 17.2733 113.507 16.62C113.361 15.9533 113.147 15.3467 112.867 14.8C112.761 14.5467 112.627 14.2867 112.467 14.02C112.307 13.7533 112.114 13.5267 111.887 13.34C111.661 13.1533 111.381 13.06 111.047 13.06C110.607 13.06 110.161 13.2533 109.707 13.64C109.267 14.0267 108.847 14.5267 108.447 15.14C108.047 15.7533 107.681 16.4133 107.347 17.12C107.014 17.8133 106.734 18.4733 106.507 19.1C106.441 19.3133 106.354 19.5533 106.247 19.82C106.154 20.0733 106.054 20.3133 105.947 20.54C105.854 20.7267 105.747 20.8667 105.627 20.96C105.521 21.0533 105.374 21.1 105.187 21.1ZM120.544 21.9C120.211 21.9 119.964 21.7933 119.804 21.58C119.644 21.3667 119.537 21.1 119.484 20.78C119.444 20.46 119.424 20.1467 119.424 19.84C119.424 19.6933 119.424 19.5533 119.424 19.42C119.437 19.2867 119.444 19.1733 119.444 19.08C119.444 18.12 119.464 17.1533 119.504 16.18C119.544 15.1933 119.564 14.12 119.564 12.96C119.071 12.96 118.664 12.98 118.344 13.02C118.024 13.06 117.704 13.08 117.384 13.08C117.171 13.08 117.024 13.04 116.944 12.96C116.864 12.88 116.824 12.7467 116.824 12.56C116.824 12.3467 116.851 12.1933 116.904 12.1C116.971 11.9933 117.051 11.9267 117.144 11.9L119.104 11.5C119.397 11.4333 119.604 11.3 119.724 11.1C119.857 10.9 119.951 10.7067 120.004 10.52C120.031 10.4133 120.044 10.3133 120.044 10.22C120.057 10.1133 120.071 10 120.084 9.88C120.084 9.77333 120.084 9.67333 120.084 9.58C120.097 9.47333 120.104 9.37333 120.104 9.28C120.131 8.85333 120.197 8.54 120.304 8.34C120.424 8.14 120.651 8.04 120.984 8.04C121.291 8.04 121.471 8.16 121.524 8.4C121.591 8.64 121.624 8.86667 121.624 9.08C121.624 9.22667 121.611 9.45333 121.584 9.76C121.571 10.0533 121.557 10.3467 121.544 10.64C121.531 10.9333 121.517 11.1467 121.504 11.28H124.704C124.824 11.28 124.944 11.36 125.064 11.52C125.184 11.68 125.244 11.8867 125.244 12.14C125.244 12.22 125.211 12.3267 125.144 12.46C125.077 12.58 124.997 12.64 124.904 12.64C124.771 12.64 124.517 12.6467 124.144 12.66C123.784 12.66 123.391 12.6667 122.964 12.68C122.551 12.6933 122.184 12.7067 121.864 12.72C121.544 12.7333 121.364 12.7533 121.324 12.78C121.257 13.58 121.204 14.3533 121.164 15.1C121.137 15.8333 121.124 16.5467 121.124 17.24C121.124 17.6933 121.131 18.1333 121.144 18.56C121.171 18.9733 121.191 19.3867 121.204 19.8C121.204 19.8667 121.211 19.9667 121.224 20.1C121.237 20.2333 121.244 20.38 121.244 20.54C121.244 20.8467 121.197 21.1533 121.104 21.46C121.024 21.7533 120.837 21.9 120.544 21.9ZM130.171 21.7C129.571 21.7 129.011 21.5667 128.491 21.3C127.984 21.0333 127.558 20.6733 127.211 20.22C126.864 19.7667 126.638 19.26 126.531 18.7V17.64C126.531 16.88 126.671 16.1133 126.951 15.34C127.231 14.5667 127.618 13.8533 128.111 13.2C128.618 12.5467 129.211 12.0267 129.891 11.64C130.584 11.24 131.331 11.04 132.131 11.04C132.638 11.04 133.124 11.1267 133.591 11.3C134.071 11.4733 134.498 11.6733 134.871 11.9C134.951 11.34 135.051 10.9533 135.171 10.74C135.291 10.5267 135.498 10.42 135.791 10.42C136.018 10.42 136.178 10.4933 136.271 10.64C136.364 10.7733 136.411 11.0133 136.411 11.36C136.411 12.16 136.391 12.9467 136.351 13.72C136.324 14.48 136.311 15.26 136.311 16.06C136.311 16.7 136.344 17.36 136.411 18.04C136.491 18.72 136.531 19.3733 136.531 20C136.531 20.2 136.531 20.4 136.531 20.6C136.544 20.8 136.511 20.9667 136.431 21.1C136.364 21.22 136.218 21.28 135.991 21.28C135.671 21.28 135.431 21.1333 135.271 20.84C135.124 20.5333 135.024 20.1667 134.971 19.74C134.918 19.3133 134.864 18.9133 134.811 18.54C134.678 18.9 134.451 19.2533 134.131 19.6C133.824 19.9467 133.511 20.2467 133.191 20.5C132.884 20.74 132.644 20.9133 132.471 21.02C132.311 21.1133 132.311 21.1 132.471 20.98C132.178 21.1933 131.811 21.3667 131.371 21.5C130.944 21.6333 130.544 21.7 130.171 21.7ZM129.971 20.44C130.571 20.44 131.131 20.2667 131.651 19.92C132.171 19.5733 132.624 19.1267 133.011 18.58C133.411 18.0333 133.718 17.46 133.931 16.86C134.158 16.26 134.271 15.7067 134.271 15.2C134.271 14.9467 134.238 14.66 134.171 14.34C134.118 14.0067 134.011 13.6867 133.851 13.38C133.691 13.0733 133.471 12.82 133.191 12.62C132.924 12.42 132.571 12.32 132.131 12.32C131.558 12.32 131.011 12.5067 130.491 12.88C129.971 13.24 129.504 13.7067 129.091 14.28C128.691 14.84 128.378 15.42 128.151 16.02C127.924 16.62 127.811 17.16 127.811 17.64C127.811 18 127.871 18.4 127.991 18.84C128.124 19.28 128.344 19.66 128.651 19.98C128.971 20.2867 129.411 20.44 129.971 20.44ZM140.738 8.42C140.298 8.42 139.945 8.32 139.678 8.12C139.425 7.90667 139.298 7.63333 139.298 7.3C139.298 6.99333 139.445 6.76 139.738 6.6C140.032 6.42667 140.405 6.34 140.858 6.34C141.312 6.34 141.665 6.44667 141.918 6.66C142.172 6.86 142.298 7.14 142.298 7.5C142.298 7.79333 142.152 8.02 141.858 8.18C141.578 8.34 141.205 8.42 140.738 8.42ZM139.698 21.2C139.512 21.2 139.365 21.08 139.258 20.84C139.165 20.6 139.098 20.2933 139.058 19.92C139.032 19.5467 139.018 19.16 139.018 18.76C139.018 18.5733 139.018 18.3867 139.018 18.2C139.032 18 139.038 17.8133 139.038 17.64C139.038 17.5867 139.058 17.4133 139.098 17.12C139.138 16.8133 139.185 16.46 139.238 16.06C139.292 15.66 139.345 15.2667 139.398 14.88C139.465 14.48 139.518 14.1667 139.558 13.94C139.598 13.7667 139.645 13.54 139.698 13.26C139.752 12.9667 139.845 12.7067 139.978 12.48C140.125 12.24 140.332 12.12 140.598 12.12C140.905 12.12 141.118 12.18 141.238 12.3C141.372 12.4067 141.438 12.58 141.438 12.82C141.438 12.8867 141.432 12.9533 141.418 13.02C141.418 13.0867 141.412 13.16 141.398 13.24C141.332 13.6667 141.245 14.2 141.138 14.84C141.045 15.4667 140.958 16.1267 140.878 16.82C140.812 17.5 140.792 18.1467 140.818 18.76C140.832 18.9067 140.845 19.08 140.858 19.28C140.885 19.4667 140.898 19.6533 140.898 19.84C140.898 20.1867 140.825 20.5 140.678 20.78C140.532 21.06 140.205 21.2 139.698 21.2ZM144.593 21.1C144.393 21.1 144.246 21.0533 144.153 20.96C144.059 20.8667 143.993 20.7333 143.953 20.56C143.886 20.3333 143.853 20.0933 143.853 19.84V19.06C143.853 18.6333 143.866 18.2667 143.893 17.96C143.919 17.64 143.933 17.2933 143.933 16.92C143.933 16.7867 143.926 16.6467 143.913 16.5C143.913 16.34 143.906 16.1733 143.893 16C143.839 15.3467 143.766 14.66 143.673 13.94C143.579 13.22 143.533 12.5667 143.533 11.98V11.2C143.613 11.0133 143.686 10.9 143.753 10.86C143.833 10.82 143.939 10.8 144.073 10.8C144.393 10.8 144.619 10.9267 144.753 11.18C144.886 11.42 144.973 11.7067 145.013 12.04C145.066 12.36 145.099 12.64 145.113 12.88C145.126 12.9733 145.146 13.1733 145.173 13.48C145.213 13.7867 145.253 14.1333 145.293 14.52C145.333 14.8933 145.366 15.2533 145.393 15.6C145.433 15.9467 145.453 16.2133 145.453 16.4C145.666 15.96 145.919 15.5067 146.213 15.04C146.506 14.56 146.799 14.1133 147.093 13.7C147.399 13.2867 147.673 12.9533 147.913 12.7C148.259 12.3133 148.666 12.0133 149.133 11.8C149.613 11.5733 150.086 11.46 150.553 11.46C151.099 11.46 151.579 11.6133 151.993 11.92C152.406 12.2267 152.759 12.6267 153.053 13.12C153.359 13.6133 153.613 14.1467 153.813 14.72C154.013 15.28 154.173 15.8267 154.293 16.36C154.466 17.0667 154.593 17.6867 154.673 18.22C154.766 18.7533 154.846 19.36 154.913 20.04C154.913 20.3333 154.853 20.5667 154.733 20.74C154.613 20.9133 154.466 21 154.293 21C154.039 21 153.859 20.9467 153.753 20.84C153.646 20.72 153.573 20.5333 153.533 20.28C153.439 19.7733 153.346 19.2 153.253 18.56C153.173 17.92 153.059 17.2733 152.913 16.62C152.766 15.9533 152.553 15.3467 152.273 14.8C152.166 14.5467 152.033 14.2867 151.873 14.02C151.713 13.7533 151.519 13.5267 151.293 13.34C151.066 13.1533 150.786 13.06 150.453 13.06C150.013 13.06 149.566 13.2533 149.113 13.64C148.673 14.0267 148.253 14.5267 147.853 15.14C147.453 15.7533 147.086 16.4133 146.753 17.12C146.419 17.8133 146.139 18.4733 145.913 19.1C145.846 19.3133 145.759 19.5533 145.653 19.82C145.559 20.0733 145.459 20.3133 145.353 20.54C145.259 20.7267 145.153 20.8667 145.033 20.96C144.926 21.0533 144.779 21.1 144.593 21.1ZM166.942 26.74C166.902 26.74 166.842 26.6867 166.762 26.58C166.682 26.4733 166.642 26.3133 166.642 26.1C166.642 25.9133 166.662 25.7267 166.702 25.54C166.755 25.3533 166.822 25.1667 166.902 24.98C166.995 24.78 167.088 24.58 167.182 24.38C167.275 24.18 167.368 23.98 167.462 23.78C167.542 23.58 167.635 23.3267 167.742 23.02C167.862 22.7133 167.975 22.4 168.082 22.08C168.188 21.7733 168.275 21.5067 168.342 21.28C168.422 21.0533 168.462 20.9267 168.462 20.9V20.38C167.635 20.38 166.948 20.2267 166.402 19.92C165.855 19.6133 165.422 19.2067 165.102 18.7C164.782 18.1933 164.548 17.6333 164.402 17.02C164.255 16.3933 164.155 15.76 164.102 15.12C164.062 14.4667 164.042 13.86 164.042 13.3C164.042 13.0333 164.048 12.7733 164.062 12.52C164.075 12.2667 164.108 12.0133 164.162 11.76C164.228 11.4533 164.308 11.2533 164.402 11.16C164.508 11.0533 164.608 11 164.702 11C165.008 11 165.222 11.12 165.342 11.36C165.475 11.5867 165.542 11.92 165.542 12.36C165.542 12.6667 165.522 12.96 165.482 13.24C165.442 13.5067 165.422 13.8 165.422 14.12V14.32C165.422 14.44 165.442 14.6733 165.482 15.02C165.535 15.3533 165.588 15.6933 165.642 16.04C165.695 16.3867 165.735 16.6467 165.762 16.82C165.828 17.1133 165.928 17.4267 166.062 17.76C166.195 18.08 166.382 18.3533 166.622 18.58C166.875 18.8067 167.195 18.92 167.582 18.92C168.102 18.92 168.562 18.7333 168.962 18.36C169.375 17.9733 169.748 17.48 170.082 16.88C170.428 16.2667 170.742 15.6267 171.022 14.96C171.128 14.7333 171.228 14.5067 171.322 14.28C171.415 14.0533 171.508 13.8333 171.602 13.62C171.708 13.4067 171.808 13.2067 171.902 13.02C171.995 12.8333 172.095 12.6533 172.202 12.48C172.415 12.1333 172.608 11.8867 172.782 11.74C172.968 11.5933 173.148 11.52 173.322 11.52C173.495 11.52 173.622 11.5667 173.702 11.66C173.795 11.7533 173.842 11.9133 173.842 12.14C173.842 12.5533 173.768 12.96 173.622 13.36C173.488 13.76 173.315 14.16 173.102 14.56C172.875 14.9733 172.635 15.38 172.382 15.78C172.128 16.18 171.908 16.58 171.722 16.98C171.615 17.22 171.468 17.5467 171.282 17.96C171.108 18.36 170.922 18.78 170.722 19.22C170.535 19.6467 170.368 20.0267 170.222 20.36C170.088 20.6933 170.008 20.9 169.982 20.98C169.968 21.0467 169.915 21.2 169.822 21.44C169.728 21.6667 169.622 21.94 169.502 22.26C169.395 22.58 169.282 22.9 169.162 23.22C169.042 23.5533 168.935 23.8333 168.842 24.06C168.762 24.3 168.708 24.4533 168.682 24.52C168.602 24.76 168.488 25.0533 168.342 25.4C168.195 25.7467 168.008 26.0533 167.782 26.32C167.568 26.6 167.288 26.74 166.942 26.74ZM180.744 21.5C179.784 21.5 178.891 21.2933 178.064 20.88C177.237 20.4533 176.571 19.8667 176.064 19.12C175.571 18.36 175.324 17.48 175.324 16.48C175.324 15.8 175.464 15.1667 175.744 14.58C176.037 13.9933 176.411 13.4333 176.864 12.9C177.317 12.3667 177.791 11.8467 178.284 11.34C178.511 11.1133 178.771 10.9533 179.064 10.86C179.357 10.7533 179.671 10.7 180.004 10.7C180.924 10.7 181.791 10.8 182.604 11C183.417 11.1867 184.137 11.4933 184.764 11.92C185.404 12.3467 185.904 12.9 186.264 13.58C186.624 14.26 186.804 15.0867 186.804 16.06C186.804 16.86 186.631 17.5933 186.284 18.26C185.951 18.9267 185.491 19.5067 184.904 20C184.331 20.48 183.684 20.8533 182.964 21.12C182.244 21.3733 181.504 21.5 180.744 21.5ZM180.304 20.02C180.917 20.02 181.524 19.9333 182.124 19.76C182.737 19.5867 183.291 19.3267 183.784 18.98C184.277 18.62 184.671 18.1733 184.964 17.64C185.271 17.1067 185.424 16.4733 185.424 15.74C185.424 15.0733 185.277 14.5067 184.984 14.04C184.704 13.56 184.331 13.1733 183.864 12.88C183.397 12.5733 182.891 12.3467 182.344 12.2C181.797 12.0533 181.264 11.98 180.744 11.98C180.531 11.98 180.291 12 180.024 12.04C179.771 12.0667 179.524 12.1933 179.284 12.42C178.991 12.7 178.691 12.9867 178.384 13.28C178.091 13.56 177.817 13.8733 177.564 14.22C177.311 14.5533 177.104 14.9267 176.944 15.34C176.784 15.7533 176.704 16.2 176.704 16.68C176.704 17.4533 176.864 18.0867 177.184 18.58C177.517 19.0733 177.957 19.44 178.504 19.68C179.051 19.9067 179.651 20.02 180.304 20.02ZM191.439 21.3C190.759 21.3 190.225 21.1133 189.839 20.74C189.452 20.3533 189.172 19.86 188.999 19.26C188.839 18.6467 188.759 18 188.759 17.32C188.759 16.8533 188.765 16.48 188.779 16.2C188.792 15.9067 188.819 15.6067 188.859 15.3C188.912 14.9933 188.985 14.5733 189.079 14.04C189.132 13.7733 189.185 13.5067 189.239 13.24C189.292 12.96 189.365 12.6933 189.459 12.44C189.565 12.1333 189.679 11.92 189.799 11.8C189.932 11.6667 190.045 11.6 190.139 11.6C190.392 11.6 190.579 11.6733 190.699 11.82C190.832 11.9533 190.899 12.1267 190.899 12.34C190.899 12.6333 190.859 12.9067 190.779 13.16C190.699 13.4133 190.632 13.6533 190.579 13.88C190.485 14.48 190.405 14.96 190.339 15.32C190.272 15.6667 190.219 15.9867 190.179 16.28C190.152 16.56 190.139 16.9067 190.139 17.32C190.139 17.52 190.152 17.76 190.179 18.04C190.219 18.32 190.285 18.5933 190.379 18.86C190.472 19.1267 190.612 19.3533 190.799 19.54C190.985 19.7133 191.232 19.8 191.539 19.8C191.859 19.8 192.159 19.6867 192.439 19.46C192.732 19.22 192.939 19.0267 193.059 18.88C193.965 17.7333 194.772 16.6133 195.479 15.52C196.185 14.4267 196.885 13.2333 197.579 11.94C197.672 11.7933 197.745 11.7 197.799 11.66C197.865 11.62 197.945 11.6 198.039 11.6C198.345 11.6 198.559 11.6533 198.679 11.76C198.799 11.8667 198.859 12.0467 198.859 12.3C198.859 12.46 198.839 12.6533 198.799 12.88C198.599 13.88 198.499 14.8733 198.499 15.86C198.499 16.5267 198.559 17.1467 198.679 17.72C198.799 18.2933 198.992 18.7667 199.259 19.14C199.459 19.3933 199.559 19.6133 199.559 19.8C199.559 20.0267 199.492 20.2067 199.359 20.34C199.239 20.4733 199.085 20.54 198.899 20.54C198.392 20.54 197.992 20.14 197.699 19.34C197.605 19.06 197.499 18.7067 197.379 18.28C197.272 17.84 197.172 17.4 197.079 16.96C196.985 16.52 196.925 16.1533 196.899 15.86C196.725 16.14 196.565 16.42 196.419 16.7C196.285 16.9667 196.112 17.2533 195.899 17.56C195.752 17.7733 195.579 18.02 195.379 18.3C195.179 18.5667 194.965 18.8467 194.739 19.14C194.272 19.7133 193.759 20.22 193.199 20.66C192.639 21.0867 192.052 21.3 191.439 21.3ZM202.085 21.7C201.938 21.7 201.825 21.6333 201.745 21.5C201.678 21.3667 201.632 21.2133 201.605 21.04C201.578 20.8667 201.552 20.72 201.525 20.6V19.02C201.525 18.22 201.558 17.4 201.625 16.56C201.705 15.72 201.745 14.9 201.745 14.1C201.745 13.7133 201.718 13.3267 201.665 12.94C201.625 12.5533 201.578 12.2267 201.525 11.96C201.512 11.8933 201.498 11.8333 201.485 11.78C201.485 11.7267 201.485 11.6733 201.485 11.62C201.485 11.4467 201.538 11.3333 201.645 11.28C201.752 11.2267 201.932 11.2 202.185 11.2C202.492 11.2 202.718 11.3333 202.865 11.6C203.012 11.8667 203.118 12.18 203.185 12.54C203.265 12.8867 203.338 13.2 203.405 13.48C203.792 13.0133 204.212 12.6733 204.665 12.46C205.118 12.2467 205.498 12.06 205.805 11.9C206.098 11.7533 206.392 11.64 206.685 11.56C206.992 11.4667 207.332 11.42 207.705 11.42C208.078 11.42 208.425 11.5267 208.745 11.74C209.078 11.94 209.245 12.16 209.245 12.4C209.245 12.68 209.158 12.8867 208.985 13.02C208.812 13.1533 208.612 13.22 208.385 13.22C208.318 13.22 208.252 13.2133 208.185 13.2C208.132 13.1733 208.072 13.1533 208.005 13.14C207.912 13.1 207.805 13.0667 207.685 13.04C207.578 13.0133 207.472 13 207.365 13C206.952 13 206.552 13.08 206.165 13.24C205.778 13.3867 205.452 13.5333 205.185 13.68C204.718 13.9333 204.352 14.22 204.085 14.54C203.832 14.8467 203.618 15.1333 203.445 15.4C203.352 15.9067 203.292 16.4 203.265 16.88C203.238 17.36 203.218 17.7333 203.205 18C203.192 18.28 203.178 18.5733 203.165 18.88C203.152 19.1867 203.132 19.4933 203.105 19.8C203.078 20.12 203.038 20.4267 202.985 20.72C202.932 21.0133 202.838 21.2533 202.705 21.44C202.572 21.6133 202.365 21.7 202.085 21.7ZM68.1459 51.3C67.6659 51.3 67.2125 51.2333 66.7859 51.1C66.3592 50.9533 65.9992 50.8067 65.7059 50.66C65.5059 50.9 65.2992 51.0533 65.0859 51.12C64.8859 51.1733 64.6992 51.2 64.5259 51.2C64.1659 51.2 63.9859 50.92 63.9859 50.36C63.9859 50.0667 63.9925 49.82 64.0059 49.62C64.0325 49.4067 64.0925 49.1267 64.1859 48.78C64.4125 47.22 64.5859 45.6133 64.7059 43.96C64.8392 42.2933 64.9059 40.6467 64.9059 39.02C64.9059 38.18 64.8859 37.3533 64.8459 36.54C64.8459 36.4067 64.8925 36.3267 64.9859 36.3C65.0792 36.2733 65.1725 36.26 65.2659 36.26C65.5725 36.26 65.7992 36.3 65.9459 36.38C66.1059 36.4467 66.1992 36.62 66.2259 36.9V38C66.2259 38.8933 66.2059 39.7867 66.1659 40.68C66.1392 41.56 66.1259 42.52 66.1259 43.56C66.1259 43.6933 66.1325 43.82 66.1459 43.94C66.1725 44.06 66.2192 44.12 66.2859 44.12C66.3392 44.12 66.4125 44.08 66.5059 44C66.5992 43.92 66.7192 43.7733 66.8659 43.56C67.4525 42.88 68.1125 42.3133 68.8459 41.86C69.5792 41.3933 70.4792 41.16 71.5459 41.16C71.8925 41.16 72.2525 41.2067 72.6259 41.3C73.0125 41.38 73.3725 41.5467 73.7059 41.8C74.0392 42.04 74.3059 42.4067 74.5059 42.9C74.7192 43.38 74.8259 44.02 74.8259 44.82C74.8259 45.7533 74.6525 46.62 74.3059 47.42C73.9592 48.2067 73.4792 48.8933 72.8659 49.48C72.2525 50.0533 71.5392 50.5 70.7259 50.82C69.9259 51.14 69.0659 51.3 68.1459 51.3ZM68.1459 49.96C68.7725 49.96 69.3992 49.8133 70.0259 49.52C70.6525 49.2267 71.2259 48.8333 71.7459 48.34C72.2792 47.8467 72.7059 47.3 73.0259 46.7C73.3459 46.0867 73.5059 45.46 73.5059 44.82C73.5059 44.4467 73.4125 44.0867 73.2259 43.74C73.0525 43.3933 72.7992 43.1067 72.4659 42.88C72.1459 42.64 71.7725 42.52 71.3459 42.52C70.9192 42.52 70.4592 42.6533 69.9659 42.92C69.4725 43.1867 68.9859 43.5333 68.5059 43.96C68.0259 44.3867 67.5859 44.86 67.1859 45.38C66.7992 45.8867 66.4859 46.3933 66.2459 46.9C66.0192 47.4067 65.9059 47.8667 65.9059 48.28C65.9059 48.5867 65.9859 48.8467 66.1459 49.06C66.3192 49.2733 66.5325 49.4467 66.7859 49.58C67.0392 49.7133 67.2859 49.8133 67.5259 49.88C67.7792 49.9333 67.9859 49.96 68.1459 49.96ZM76.9217 51.7C76.775 51.7 76.6617 51.6333 76.5817 51.5C76.515 51.3667 76.4683 51.2133 76.4417 51.04C76.415 50.8667 76.3883 50.72 76.3617 50.6V49.02C76.3617 48.22 76.395 47.4 76.4617 46.56C76.5417 45.72 76.5817 44.9 76.5817 44.1C76.5817 43.7133 76.555 43.3267 76.5017 42.94C76.4617 42.5533 76.415 42.2267 76.3617 41.96C76.3483 41.8933 76.335 41.8333 76.3217 41.78C76.3217 41.7267 76.3217 41.6733 76.3217 41.62C76.3217 41.4467 76.375 41.3333 76.4817 41.28C76.5883 41.2267 76.7683 41.2 77.0217 41.2C77.3283 41.2 77.555 41.3333 77.7017 41.6C77.8483 41.8667 77.955 42.18 78.0217 42.54C78.1017 42.8867 78.175 43.2 78.2417 43.48C78.6283 43.0133 79.0483 42.6733 79.5017 42.46C79.955 42.2467 80.335 42.06 80.6417 41.9C80.935 41.7533 81.2283 41.64 81.5217 41.56C81.8283 41.4667 82.1683 41.42 82.5417 41.42C82.915 41.42 83.2617 41.5267 83.5817 41.74C83.915 41.94 84.0817 42.16 84.0817 42.4C84.0817 42.68 83.995 42.8867 83.8217 43.02C83.6483 43.1533 83.4483 43.22 83.2217 43.22C83.155 43.22 83.0883 43.2133 83.0217 43.2C82.9683 43.1733 82.9083 43.1533 82.8417 43.14C82.7483 43.1 82.6417 43.0667 82.5217 43.04C82.415 43.0133 82.3083 43 82.2017 43C81.7883 43 81.3883 43.08 81.0017 43.24C80.615 43.3867 80.2883 43.5333 80.0217 43.68C79.555 43.9333 79.1883 44.22 78.9217 44.54C78.6683 44.8467 78.455 45.1333 78.2817 45.4C78.1883 45.9067 78.1283 46.4 78.1017 46.88C78.075 47.36 78.055 47.7333 78.0417 48C78.0283 48.28 78.015 48.5733 78.0017 48.88C77.9883 49.1867 77.9683 49.4933 77.9417 49.8C77.915 50.12 77.875 50.4267 77.8217 50.72C77.7683 51.0133 77.675 51.2533 77.5417 51.44C77.4083 51.6133 77.2017 51.7 76.9217 51.7ZM87.6271 51.7C87.0271 51.7 86.4671 51.5667 85.9471 51.3C85.4405 51.0333 85.0138 50.6733 84.6671 50.22C84.3205 49.7667 84.0938 49.26 83.9871 48.7V47.64C83.9871 46.88 84.1271 46.1133 84.4071 45.34C84.6871 44.5667 85.0738 43.8533 85.5671 43.2C86.0738 42.5467 86.6671 42.0267 87.3471 41.64C88.0405 41.24 88.7871 41.04 89.5871 41.04C90.0938 41.04 90.5805 41.1267 91.0471 41.3C91.5271 41.4733 91.9538 41.6733 92.3271 41.9C92.4071 41.34 92.5071 40.9533 92.6271 40.74C92.7471 40.5267 92.9538 40.42 93.2471 40.42C93.4738 40.42 93.6338 40.4933 93.7271 40.64C93.8205 40.7733 93.8671 41.0133 93.8671 41.36C93.8671 42.16 93.8471 42.9467 93.8071 43.72C93.7805 44.48 93.7671 45.26 93.7671 46.06C93.7671 46.7 93.8005 47.36 93.8671 48.04C93.9471 48.72 93.9871 49.3733 93.9871 50C93.9871 50.2 93.9871 50.4 93.9871 50.6C94.0005 50.8 93.9671 50.9667 93.8871 51.1C93.8205 51.22 93.6738 51.28 93.4471 51.28C93.1271 51.28 92.8871 51.1333 92.7271 50.84C92.5805 50.5333 92.4805 50.1667 92.4271 49.74C92.3738 49.3133 92.3205 48.9133 92.2671 48.54C92.1338 48.9 91.9071 49.2533 91.5871 49.6C91.2805 49.9467 90.9671 50.2467 90.6471 50.5C90.3405 50.74 90.1005 50.9133 89.9271 51.02C89.7671 51.1133 89.7671 51.1 89.9271 50.98C89.6338 51.1933 89.2671 51.3667 88.8271 51.5C88.4005 51.6333 88.0005 51.7 87.6271 51.7ZM87.4271 50.44C88.0271 50.44 88.5871 50.2667 89.1071 49.92C89.6271 49.5733 90.0805 49.1267 90.4671 48.58C90.8671 48.0333 91.1738 47.46 91.3871 46.86C91.6138 46.26 91.7271 45.7067 91.7271 45.2C91.7271 44.9467 91.6938 44.66 91.6271 44.34C91.5738 44.0067 91.4671 43.6867 91.3071 43.38C91.1471 43.0733 90.9271 42.82 90.6471 42.62C90.3805 42.42 90.0271 42.32 89.5871 42.32C89.0138 42.32 88.4671 42.5067 87.9471 42.88C87.4271 43.24 86.9605 43.7067 86.5471 44.28C86.1471 44.84 85.8338 45.42 85.6071 46.02C85.3805 46.62 85.2671 47.16 85.2671 47.64C85.2671 48 85.3271 48.4 85.4471 48.84C85.5805 49.28 85.8005 49.66 86.1071 49.98C86.4271 50.2867 86.8671 50.44 87.4271 50.44ZM97.1146 51.1C96.9146 51.1 96.768 51.0533 96.6746 50.96C96.5813 50.8667 96.5146 50.7333 96.4746 50.56C96.408 50.3333 96.3746 50.0933 96.3746 49.84V49.06C96.3746 48.6333 96.388 48.2667 96.4146 47.96C96.4413 47.64 96.4546 47.2933 96.4546 46.92C96.4546 46.7867 96.448 46.6467 96.4346 46.5C96.4346 46.34 96.428 46.1733 96.4146 46C96.3613 45.3467 96.288 44.66 96.1946 43.94C96.1013 43.22 96.0546 42.5667 96.0546 41.98V41.2C96.1346 41.0133 96.208 40.9 96.2746 40.86C96.3546 40.82 96.4613 40.8 96.5946 40.8C96.9146 40.8 97.1413 40.9267 97.2746 41.18C97.408 41.42 97.4946 41.7067 97.5346 42.04C97.588 42.36 97.6213 42.64 97.6346 42.88C97.648 42.9733 97.668 43.1733 97.6946 43.48C97.7346 43.7867 97.7746 44.1333 97.8146 44.52C97.8546 44.8933 97.888 45.2533 97.9146 45.6C97.9546 45.9467 97.9746 46.2133 97.9746 46.4C98.188 45.96 98.4413 45.5067 98.7346 45.04C99.028 44.56 99.3213 44.1133 99.6146 43.7C99.9213 43.2867 100.195 42.9533 100.435 42.7C100.781 42.3133 101.188 42.0133 101.655 41.8C102.135 41.5733 102.608 41.46 103.075 41.46C103.621 41.46 104.101 41.6133 104.515 41.92C104.928 42.2267 105.281 42.6267 105.575 43.12C105.881 43.6133 106.135 44.1467 106.335 44.72C106.535 45.28 106.695 45.8267 106.815 46.36C106.988 47.0667 107.115 47.6867 107.195 48.22C107.288 48.7533 107.368 49.36 107.435 50.04C107.435 50.3333 107.375 50.5667 107.255 50.74C107.135 50.9133 106.988 51 106.815 51C106.561 51 106.381 50.9467 106.275 50.84C106.168 50.72 106.095 50.5333 106.055 50.28C105.961 49.7733 105.868 49.2 105.775 48.56C105.695 47.92 105.581 47.2733 105.435 46.62C105.288 45.9533 105.075 45.3467 104.795 44.8C104.688 44.5467 104.555 44.2867 104.395 44.02C104.235 43.7533 104.041 43.5267 103.815 43.34C103.588 43.1533 103.308 43.06 102.975 43.06C102.535 43.06 102.088 43.2533 101.635 43.64C101.195 44.0267 100.775 44.5267 100.375 45.14C99.9746 45.7533 99.608 46.4133 99.2746 47.12C98.9413 47.8133 98.6613 48.4733 98.4346 49.1C98.368 49.3133 98.2813 49.5533 98.1746 49.82C98.0813 50.0733 97.9813 50.3133 97.8746 50.54C97.7813 50.7267 97.6746 50.8667 97.5546 50.96C97.448 51.0533 97.3013 51.1 97.1146 51.1ZM111.491 51.8C110.558 51.56 109.851 51.0667 109.371 50.32C108.891 49.5733 108.651 48.7467 108.651 47.84C108.651 46.9867 108.838 46.1667 109.211 45.38C109.598 44.58 110.111 43.8667 110.751 43.24C111.391 42.6 112.118 42.1 112.931 41.74C113.758 41.3667 114.611 41.18 115.491 41.18C116.011 41.18 116.418 41.1933 116.711 41.22C117.005 41.2467 117.338 41.3333 117.711 41.48C117.725 41.28 117.758 41 117.811 40.64C117.865 40.28 117.925 39.9 117.991 39.5C118.058 39.0867 118.111 38.72 118.151 38.4C118.191 38.1067 118.231 37.8133 118.271 37.52C118.325 37.2133 118.398 36.92 118.491 36.64C118.705 36.0533 119.011 35.76 119.411 35.76C119.718 35.76 119.871 35.9933 119.871 36.46C119.871 36.5267 119.865 36.6067 119.851 36.7C119.851 36.78 119.845 36.8733 119.831 36.98C119.618 38.5933 119.458 40.1933 119.351 41.78C119.258 43.3533 119.211 44.9267 119.211 46.5C119.211 47.1667 119.231 47.8267 119.271 48.48C119.311 49.12 119.358 49.78 119.411 50.46C119.438 50.82 119.371 51.1067 119.211 51.32C119.065 51.52 118.898 51.62 118.711 51.62C118.445 51.62 118.265 51.4533 118.171 51.12C118.038 50.6933 117.931 50.2533 117.851 49.8C117.771 49.3333 117.718 48.9467 117.691 48.64C117.198 49.1867 116.665 49.7 116.091 50.18C115.518 50.66 114.918 51.0533 114.291 51.36C113.678 51.6533 113.045 51.8 112.391 51.8H111.491ZM112.271 50.56C112.911 50.56 113.545 50.4 114.171 50.08C114.811 49.7467 115.398 49.32 115.931 48.8C116.465 48.2667 116.891 47.7 117.211 47.1C117.531 46.4867 117.691 45.9 117.691 45.34C117.691 44.8333 117.611 44.3667 117.451 43.94C117.305 43.5133 117.085 43.1733 116.791 42.92C116.511 42.6533 116.171 42.52 115.771 42.52C115.025 42.52 114.311 42.6667 113.631 42.96C112.965 43.2533 112.365 43.6533 111.831 44.16C111.311 44.6667 110.898 45.2467 110.591 45.9C110.298 46.5533 110.151 47.2333 110.151 47.94V48.84C110.285 49.3467 110.525 49.76 110.871 50.08C111.218 50.4 111.685 50.56 112.271 50.56ZM132.672 51.6C132.285 51.6 131.945 51.48 131.652 51.24C131.359 50.9867 131.099 50.6667 130.872 50.28C130.645 49.88 130.459 49.4533 130.312 49C130.165 48.5333 130.045 48.0867 129.952 47.66C129.859 47.2333 129.792 46.8733 129.752 46.58C129.739 46.42 129.712 46.2 129.672 45.92C129.632 45.6267 129.592 45.3267 129.552 45.02C129.525 44.7 129.499 44.4267 129.472 44.2C129.445 43.96 129.432 43.8133 129.432 43.76V43.12C129.432 42.8667 129.439 42.62 129.452 42.38C129.479 42.1267 129.545 41.92 129.652 41.76C129.772 41.5867 129.972 41.5 130.252 41.5C130.439 41.5 130.572 41.54 130.652 41.62C130.745 41.6867 130.792 41.7533 130.792 41.82C130.792 42.46 130.832 43.1533 130.912 43.9C130.992 44.6467 131.099 45.3867 131.232 46.12C131.365 46.84 131.512 47.5067 131.672 48.12C131.845 48.72 132.019 49.2 132.192 49.56C132.299 49.7467 132.419 49.84 132.552 49.84C132.672 49.84 132.805 49.7467 132.952 49.56C132.952 49.56 132.985 49.4733 133.052 49.3C133.132 49.1133 133.219 48.9133 133.312 48.7C133.405 48.4733 133.465 48.3067 133.492 48.2C133.519 48.12 133.579 47.9267 133.672 47.62C133.779 47.3133 133.892 46.9667 134.012 46.58C134.132 46.1933 134.245 45.8467 134.352 45.54C134.459 45.2333 134.525 45.04 134.552 44.96C134.699 44.5467 134.925 44.1733 135.232 43.84C135.539 43.4933 135.879 43.32 136.252 43.32C136.665 43.32 137.032 43.6067 137.352 44.18C137.685 44.74 138.079 45.58 138.532 46.7C138.612 46.8867 138.725 47.14 138.872 47.46C139.019 47.7667 139.172 48.0533 139.332 48.32C139.505 48.5733 139.665 48.7267 139.812 48.78C139.879 48.7133 139.965 48.5333 140.072 48.24C140.192 47.9467 140.319 47.6067 140.452 47.22C140.599 46.82 140.739 46.4133 140.872 46C141.005 45.5867 141.125 45.22 141.232 44.9C141.339 44.58 141.412 44.36 141.452 44.24L141.752 43.42C141.819 43.2333 141.919 43 142.052 42.72C142.199 42.4267 142.365 42.1667 142.552 41.94C142.739 41.7133 142.945 41.6 143.172 41.6C143.319 41.6 143.439 41.6533 143.532 41.76C143.639 41.8667 143.692 41.9933 143.692 42.14V42.32C143.692 42.4 143.685 42.4733 143.672 42.54C143.672 42.5933 143.652 42.6533 143.612 42.72C143.465 43.1467 143.292 43.6867 143.092 44.34C142.892 44.9933 142.672 45.68 142.432 46.4C142.192 47.1067 141.932 47.7733 141.652 48.4C141.372 49.0267 141.065 49.54 140.732 49.94C140.412 50.3267 140.072 50.52 139.712 50.52C139.419 50.52 139.092 50.32 138.732 49.92C138.385 49.5067 138.019 48.9533 137.632 48.26C137.565 48.1267 137.439 47.8733 137.252 47.5C137.065 47.1267 136.872 46.72 136.672 46.28C136.485 45.84 136.345 45.46 136.252 45.14L134.692 49.42C134.572 49.74 134.405 50.0733 134.192 50.42C133.992 50.7533 133.759 51.0333 133.492 51.26C133.239 51.4867 132.965 51.6 132.672 51.6ZM147.717 38.42C147.277 38.42 146.924 38.32 146.657 38.12C146.404 37.9067 146.277 37.6333 146.277 37.3C146.277 36.9933 146.424 36.76 146.717 36.6C147.011 36.4267 147.384 36.34 147.837 36.34C148.291 36.34 148.644 36.4467 148.897 36.66C149.151 36.86 149.277 37.14 149.277 37.5C149.277 37.7933 149.131 38.02 148.837 38.18C148.557 38.34 148.184 38.42 147.717 38.42ZM146.677 51.2C146.491 51.2 146.344 51.08 146.237 50.84C146.144 50.6 146.077 50.2933 146.037 49.92C146.011 49.5467 145.997 49.16 145.997 48.76C145.997 48.5733 145.997 48.3867 145.997 48.2C146.011 48 146.017 47.8133 146.017 47.64C146.017 47.5867 146.037 47.4133 146.077 47.12C146.117 46.8133 146.164 46.46 146.217 46.06C146.271 45.66 146.324 45.2667 146.377 44.88C146.444 44.48 146.497 44.1667 146.537 43.94C146.577 43.7667 146.624 43.54 146.677 43.26C146.731 42.9667 146.824 42.7067 146.957 42.48C147.104 42.24 147.311 42.12 147.577 42.12C147.884 42.12 148.097 42.18 148.217 42.3C148.351 42.4067 148.417 42.58 148.417 42.82C148.417 42.8867 148.411 42.9533 148.397 43.02C148.397 43.0867 148.391 43.16 148.377 43.24C148.311 43.6667 148.224 44.2 148.117 44.84C148.024 45.4667 147.937 46.1267 147.857 46.82C147.791 47.5 147.771 48.1467 147.797 48.76C147.811 48.9067 147.824 49.08 147.837 49.28C147.864 49.4667 147.877 49.6533 147.877 49.84C147.877 50.1867 147.804 50.5 147.657 50.78C147.511 51.06 147.184 51.2 146.677 51.2ZM153.752 51.9C153.418 51.9 153.172 51.7933 153.012 51.58C152.852 51.3667 152.745 51.1 152.692 50.78C152.652 50.46 152.632 50.1467 152.632 49.84C152.632 49.6933 152.632 49.5533 152.632 49.42C152.645 49.2867 152.652 49.1733 152.652 49.08C152.652 48.12 152.672 47.1533 152.712 46.18C152.752 45.1933 152.772 44.12 152.772 42.96C152.278 42.96 151.872 42.98 151.552 43.02C151.232 43.06 150.912 43.08 150.592 43.08C150.378 43.08 150.232 43.04 150.152 42.96C150.072 42.88 150.032 42.7467 150.032 42.56C150.032 42.3467 150.058 42.1933 150.112 42.1C150.178 41.9933 150.258 41.9267 150.352 41.9L152.312 41.5C152.605 41.4333 152.812 41.3 152.932 41.1C153.065 40.9 153.158 40.7067 153.212 40.52C153.238 40.4133 153.252 40.3133 153.252 40.22C153.265 40.1133 153.278 40 153.292 39.88C153.292 39.7733 153.292 39.6733 153.292 39.58C153.305 39.4733 153.312 39.3733 153.312 39.28C153.338 38.8533 153.405 38.54 153.512 38.34C153.632 38.14 153.858 38.04 154.192 38.04C154.498 38.04 154.678 38.16 154.732 38.4C154.798 38.64 154.832 38.8667 154.832 39.08C154.832 39.2267 154.818 39.4533 154.792 39.76C154.778 40.0533 154.765 40.3467 154.752 40.64C154.738 40.9333 154.725 41.1467 154.712 41.28H157.912C158.032 41.28 158.152 41.36 158.272 41.52C158.392 41.68 158.452 41.8867 158.452 42.14C158.452 42.22 158.418 42.3267 158.352 42.46C158.285 42.58 158.205 42.64 158.112 42.64C157.978 42.64 157.725 42.6467 157.352 42.66C156.992 42.66 156.598 42.6667 156.172 42.68C155.758 42.6933 155.392 42.7067 155.072 42.72C154.752 42.7333 154.572 42.7533 154.532 42.78C154.465 43.58 154.412 44.3533 154.372 45.1C154.345 45.8333 154.332 46.5467 154.332 47.24C154.332 47.6933 154.338 48.1333 154.352 48.56C154.378 48.9733 154.398 49.3867 154.412 49.8C154.412 49.8667 154.418 49.9667 154.432 50.1C154.445 50.2333 154.452 50.38 154.452 50.54C154.452 50.8467 154.405 51.1533 154.312 51.46C154.232 51.7533 154.045 51.9 153.752 51.9ZM160.659 51.4C160.165 51.4 159.919 51.0933 159.919 50.48C159.919 49.6267 159.972 48.7667 160.079 47.9C160.185 47.02 160.239 46.1667 160.239 45.34C160.239 44.3933 160.219 43.44 160.179 42.48C160.152 41.5067 160.119 40.6067 160.079 39.78C160.039 38.94 159.999 38.2533 159.959 37.72C159.959 37.64 159.952 37.5667 159.939 37.5C159.939 37.42 159.939 37.3467 159.939 37.28C159.939 37.0133 159.985 36.7933 160.079 36.62C160.172 36.4467 160.365 36.36 160.659 36.36C160.939 36.36 161.145 36.5067 161.279 36.8C161.425 37.08 161.519 37.4067 161.559 37.78C161.612 38.1533 161.639 38.4667 161.639 38.72C161.639 39.1867 161.632 39.7467 161.619 40.4C161.605 41.04 161.599 41.6933 161.599 42.36C161.599 43.12 161.605 43.8533 161.619 44.56C161.632 45.2667 161.652 45.8533 161.679 46.32C161.719 46.7867 161.765 47.0533 161.819 47.12C162.205 46.6933 162.539 46.3 162.819 45.94C163.099 45.58 163.365 45.2333 163.619 44.9C163.765 44.7 163.932 44.48 164.119 44.24C164.319 44 164.519 43.78 164.719 43.58C165.105 43.1667 165.512 42.84 165.939 42.6C166.379 42.3467 166.865 42.22 167.399 42.22C168.065 42.22 168.605 42.4733 169.019 42.98C169.432 43.4733 169.685 44.0667 169.779 44.76L170.419 49.24V49.84C170.419 50.0933 170.405 50.3467 170.379 50.6C170.352 50.8533 170.185 50.98 169.879 50.98C169.452 50.98 169.192 50.8733 169.099 50.66C169.019 50.4467 168.979 50.1933 168.979 49.9C168.979 48.7 168.899 47.6867 168.739 46.86C168.592 46.02 168.485 45.42 168.419 45.06C168.325 44.58 168.172 44.2133 167.959 43.96C167.759 43.6933 167.539 43.56 167.299 43.56C166.925 43.56 166.585 43.6933 166.279 43.96C165.972 44.2133 165.739 44.4467 165.579 44.66C165.112 45.2467 164.639 45.8933 164.159 46.6C163.679 47.2933 163.212 47.9933 162.759 48.7C162.305 49.3933 161.879 50.04 161.479 50.64C161.399 50.76 161.292 50.92 161.159 51.12C161.025 51.3067 160.859 51.4 160.659 51.4ZM184.754 51.5C183.794 51.5 182.901 51.2933 182.074 50.88C181.247 50.4533 180.581 49.8667 180.074 49.12C179.581 48.36 179.334 47.48 179.334 46.48C179.334 45.8 179.474 45.1667 179.754 44.58C180.047 43.9933 180.421 43.4333 180.874 42.9C181.327 42.3667 181.801 41.8467 182.294 41.34C182.521 41.1133 182.781 40.9533 183.074 40.86C183.367 40.7533 183.681 40.7 184.014 40.7C184.934 40.7 185.801 40.8 186.614 41C187.427 41.1867 188.147 41.4933 188.774 41.92C189.414 42.3467 189.914 42.9 190.274 43.58C190.634 44.26 190.814 45.0867 190.814 46.06C190.814 46.86 190.641 47.5933 190.294 48.26C189.961 48.9267 189.501 49.5067 188.914 50C188.341 50.48 187.694 50.8533 186.974 51.12C186.254 51.3733 185.514 51.5 184.754 51.5ZM184.314 50.02C184.927 50.02 185.534 49.9333 186.134 49.76C186.747 49.5867 187.301 49.3267 187.794 48.98C188.287 48.62 188.681 48.1733 188.974 47.64C189.281 47.1067 189.434 46.4733 189.434 45.74C189.434 45.0733 189.287 44.5067 188.994 44.04C188.714 43.56 188.341 43.1733 187.874 42.88C187.407 42.5733 186.901 42.3467 186.354 42.2C185.807 42.0533 185.274 41.98 184.754 41.98C184.541 41.98 184.301 42 184.034 42.04C183.781 42.0667 183.534 42.1933 183.294 42.42C183.001 42.7 182.701 42.9867 182.394 43.28C182.101 43.56 181.827 43.8733 181.574 44.22C181.321 44.5533 181.114 44.9267 180.954 45.34C180.794 45.7533 180.714 46.2 180.714 46.68C180.714 47.4533 180.874 48.0867 181.194 48.58C181.527 49.0733 181.967 49.44 182.514 49.68C183.061 49.9067 183.661 50.02 184.314 50.02ZM193.829 51.1C193.629 51.1 193.482 51.0533 193.389 50.96C193.295 50.8667 193.229 50.7333 193.189 50.56C193.122 50.3333 193.089 50.0933 193.089 49.84V49.06C193.089 48.6333 193.102 48.2667 193.129 47.96C193.155 47.64 193.169 47.2933 193.169 46.92C193.169 46.7867 193.162 46.6467 193.149 46.5C193.149 46.34 193.142 46.1733 193.129 46C193.075 45.3467 193.002 44.66 192.909 43.94C192.815 43.22 192.769 42.5667 192.769 41.98V41.2C192.849 41.0133 192.922 40.9 192.989 40.86C193.069 40.82 193.175 40.8 193.309 40.8C193.629 40.8 193.855 40.9267 193.989 41.18C194.122 41.42 194.209 41.7067 194.249 42.04C194.302 42.36 194.335 42.64 194.349 42.88C194.362 42.9733 194.382 43.1733 194.409 43.48C194.449 43.7867 194.489 44.1333 194.529 44.52C194.569 44.8933 194.602 45.2533 194.629 45.6C194.669 45.9467 194.689 46.2133 194.689 46.4C194.902 45.96 195.155 45.5067 195.449 45.04C195.742 44.56 196.035 44.1133 196.329 43.7C196.635 43.2867 196.909 42.9533 197.149 42.7C197.495 42.3133 197.902 42.0133 198.369 41.8C198.849 41.5733 199.322 41.46 199.789 41.46C200.335 41.46 200.815 41.6133 201.229 41.92C201.642 42.2267 201.995 42.6267 202.289 43.12C202.595 43.6133 202.849 44.1467 203.049 44.72C203.249 45.28 203.409 45.8267 203.529 46.36C203.702 47.0667 203.829 47.6867 203.909 48.22C204.002 48.7533 204.082 49.36 204.149 50.04C204.149 50.3333 204.089 50.5667 203.969 50.74C203.849 50.9133 203.702 51 203.529 51C203.275 51 203.095 50.9467 202.989 50.84C202.882 50.72 202.809 50.5333 202.769 50.28C202.675 49.7733 202.582 49.2 202.489 48.56C202.409 47.92 202.295 47.2733 202.149 46.62C202.002 45.9533 201.789 45.3467 201.509 44.8C201.402 44.5467 201.269 44.2867 201.109 44.02C200.949 43.7533 200.755 43.5267 200.529 43.34C200.302 43.1533 200.022 43.06 199.689 43.06C199.249 43.06 198.802 43.2533 198.349 43.64C197.909 44.0267 197.489 44.5267 197.089 45.14C196.689 45.7533 196.322 46.4133 195.989 47.12C195.655 47.8133 195.375 48.4733 195.149 49.1C195.082 49.3133 194.995 49.5533 194.889 49.82C194.795 50.0733 194.695 50.3133 194.589 50.54C194.495 50.7267 194.389 50.8667 194.269 50.96C194.162 51.0533 194.015 51.1 193.829 51.1ZM211.185 51.8C210.172 51.8 209.252 51.6533 208.425 51.36C207.612 51.0533 206.965 50.58 206.485 49.94C206.005 49.2867 205.765 48.4467 205.765 47.42C205.765 46.6067 205.899 45.8133 206.165 45.04C206.445 44.2667 206.839 43.5667 207.345 42.94C207.852 42.3133 208.459 41.82 209.165 41.46C209.872 41.0867 210.659 40.9 211.525 40.9C212.125 40.9 212.665 41.0133 213.145 41.24C213.639 41.4667 214.032 41.7867 214.325 42.2C214.619 42.6133 214.765 43.1067 214.765 43.68C214.765 44.2933 214.632 44.88 214.365 45.44C214.112 45.9867 213.765 46.4733 213.325 46.9C212.885 47.3267 212.385 47.6667 211.825 47.92C211.279 48.16 210.705 48.28 210.105 48.28C209.585 48.28 209.099 48.24 208.645 48.16C208.192 48.0667 207.772 47.9267 207.385 47.74C207.385 48.2467 207.505 48.68 207.745 49.04C207.985 49.3867 208.292 49.6733 208.665 49.9C209.039 50.1133 209.425 50.2733 209.825 50.38C210.239 50.4733 210.619 50.52 210.965 50.52C211.245 50.52 211.525 50.5067 211.805 50.48C212.085 50.44 212.392 50.42 212.725 50.42C213.219 50.42 213.465 50.6333 213.465 51.06C213.465 51.3933 213.232 51.6067 212.765 51.7C212.512 51.7533 212.252 51.78 211.985 51.78C211.719 51.7933 211.452 51.8 211.185 51.8ZM210.105 46.68C210.572 46.68 211.059 46.5867 211.565 46.4C212.072 46.2133 212.499 45.92 212.845 45.52C213.205 45.12 213.385 44.6133 213.385 44C213.385 43.4533 213.212 43.0133 212.865 42.68C212.532 42.3333 212.085 42.16 211.525 42.16C211.019 42.16 210.519 42.28 210.025 42.52C209.545 42.7467 209.105 43.06 208.705 43.46C208.305 43.8467 207.985 44.2867 207.745 44.78C207.505 45.2733 207.385 45.78 207.385 46.3C207.692 46.46 208.079 46.5667 208.545 46.62C209.012 46.66 209.532 46.68 210.105 46.68ZM78.8628 81.8C78.5028 81.8 78.0828 81.78 77.6028 81.74C77.1228 81.7 76.6495 81.6133 76.1828 81.48C75.7295 81.3467 75.3495 81.1333 75.0428 80.84C74.7495 80.5467 74.6028 80.1533 74.6028 79.66C74.6028 79.02 74.8562 78.7 75.3628 78.7C75.5362 78.7 75.6695 78.76 75.7628 78.88L75.9428 79.12C75.9828 79.1733 76.0162 79.2333 76.0428 79.3C76.0828 79.3533 76.1295 79.4133 76.1828 79.48C76.3695 79.76 76.6362 80.02 76.9828 80.26C77.3295 80.5 77.8495 80.62 78.5428 80.62C78.9428 80.62 79.3828 80.56 79.8628 80.44C80.3428 80.3067 80.7495 80.1 81.0828 79.82C81.4295 79.54 81.6028 79.1667 81.6028 78.7C81.6028 78.3133 81.4828 78.0067 81.2428 77.78C81.0028 77.5533 80.7362 77.3733 80.4428 77.24C80.3095 77.1733 80.1562 77.1067 79.9828 77.04C79.8228 76.9733 79.6495 76.9133 79.4628 76.86C79.2895 76.8067 79.1162 76.7533 78.9428 76.7C78.7695 76.6467 78.5895 76.5933 78.4028 76.54C77.9228 76.38 77.4828 76.2 77.0828 76C76.6962 75.7867 76.3828 75.52 76.1428 75.2C75.9162 74.88 75.8028 74.4733 75.8028 73.98C75.8028 73.3667 76.0028 72.8533 76.4028 72.44C76.8162 72.0267 77.3295 71.72 77.9428 71.52C78.5695 71.3067 79.2028 71.2 79.8428 71.2C80.0828 71.2 80.3628 71.22 80.6828 71.26C81.0028 71.3 81.3162 71.3733 81.6228 71.48C81.9295 71.5867 82.1828 71.74 82.3828 71.94C82.5962 72.1267 82.7028 72.38 82.7028 72.7C82.7028 72.86 82.6695 73 82.6028 73.12C82.5495 73.2267 82.4628 73.28 82.3428 73.28C82.2628 73.28 82.1962 73.2667 82.1428 73.24C81.5562 72.9733 81.0628 72.78 80.6628 72.66C80.2762 72.54 79.9362 72.48 79.6428 72.48C79.4695 72.48 79.2428 72.5067 78.9628 72.56C78.6962 72.6 78.4295 72.6733 78.1628 72.78C77.8962 72.8733 77.6695 73.0133 77.4828 73.2C77.3095 73.3733 77.2228 73.6 77.2228 73.88C77.2228 74.3867 77.6095 74.8067 78.3828 75.14C78.6628 75.2467 78.9762 75.3533 79.3228 75.46C79.6695 75.5667 80.0295 75.6933 80.4028 75.84C80.8828 76.0133 81.3228 76.22 81.7228 76.46C82.1228 76.7 82.4362 76.9933 82.6628 77.34C82.9028 77.6733 83.0228 78.0933 83.0228 78.6C83.0228 79.36 82.8295 79.98 82.4428 80.46C82.0562 80.9267 81.5495 81.2667 80.9228 81.48C80.2962 81.6933 79.6095 81.8 78.8628 81.8ZM87.5014 81.3C86.8214 81.3 86.2881 81.1133 85.9014 80.74C85.5148 80.3533 85.2348 79.86 85.0614 79.26C84.9014 78.6467 84.8214 78 84.8214 77.32C84.8214 76.8533 84.8281 76.48 84.8414 76.2C84.8548 75.9067 84.8814 75.6067 84.9214 75.3C84.9748 74.9933 85.0481 74.5733 85.1414 74.04C85.1948 73.7733 85.2481 73.5067 85.3014 73.24C85.3548 72.96 85.4281 72.6933 85.5214 72.44C85.6281 72.1333 85.7414 71.92 85.8614 71.8C85.9948 71.6667 86.1081 71.6 86.2014 71.6C86.4548 71.6 86.6414 71.6733 86.7614 71.82C86.8948 71.9533 86.9614 72.1267 86.9614 72.34C86.9614 72.6333 86.9214 72.9067 86.8414 73.16C86.7614 73.4133 86.6948 73.6533 86.6414 73.88C86.5481 74.48 86.4681 74.96 86.4014 75.32C86.3348 75.6667 86.2814 75.9867 86.2414 76.28C86.2148 76.56 86.2014 76.9067 86.2014 77.32C86.2014 77.52 86.2148 77.76 86.2414 78.04C86.2814 78.32 86.3481 78.5933 86.4414 78.86C86.5348 79.1267 86.6748 79.3533 86.8614 79.54C87.0481 79.7133 87.2948 79.8 87.6014 79.8C87.9214 79.8 88.2214 79.6867 88.5014 79.46C88.7948 79.22 89.0014 79.0267 89.1214 78.88C90.0281 77.7333 90.8348 76.6133 91.5414 75.52C92.2481 74.4267 92.9481 73.2333 93.6414 71.94C93.7348 71.7933 93.8081 71.7 93.8614 71.66C93.9281 71.62 94.0081 71.6 94.1014 71.6C94.4081 71.6 94.6214 71.6533 94.7414 71.76C94.8614 71.8667 94.9214 72.0467 94.9214 72.3C94.9214 72.46 94.9014 72.6533 94.8614 72.88C94.6614 73.88 94.5614 74.8733 94.5614 75.86C94.5614 76.5267 94.6214 77.1467 94.7414 77.72C94.8614 78.2933 95.0548 78.7667 95.3214 79.14C95.5214 79.3933 95.6214 79.6133 95.6214 79.8C95.6214 80.0267 95.5548 80.2067 95.4214 80.34C95.3014 80.4733 95.1481 80.54 94.9614 80.54C94.4548 80.54 94.0548 80.14 93.7614 79.34C93.6681 79.06 93.5614 78.7067 93.4414 78.28C93.3348 77.84 93.2348 77.4 93.1414 76.96C93.0481 76.52 92.9881 76.1533 92.9614 75.86C92.7881 76.14 92.6281 76.42 92.4814 76.7C92.3481 76.9667 92.1748 77.2533 91.9614 77.56C91.8148 77.7733 91.6414 78.02 91.4414 78.3C91.2414 78.5667 91.0281 78.8467 90.8014 79.14C90.3348 79.7133 89.8214 80.22 89.2614 80.66C88.7014 81.0867 88.1148 81.3 87.5014 81.3ZM101.748 81.3C101.268 81.3 100.814 81.2333 100.388 81.1C99.9612 80.9533 99.6012 80.8067 99.3078 80.66C99.1078 80.9 98.9012 81.0533 98.6878 81.12C98.4878 81.1733 98.3012 81.2 98.1278 81.2C97.7678 81.2 97.5878 80.92 97.5878 80.36C97.5878 80.0667 97.5945 79.82 97.6078 79.62C97.6345 79.4067 97.6945 79.1267 97.7878 78.78C98.0145 77.22 98.1878 75.6133 98.3078 73.96C98.4412 72.2933 98.5078 70.6467 98.5078 69.02C98.5078 68.18 98.4878 67.3533 98.4478 66.54C98.4478 66.4067 98.4945 66.3267 98.5878 66.3C98.6812 66.2733 98.7745 66.26 98.8678 66.26C99.1745 66.26 99.4012 66.3 99.5478 66.38C99.7078 66.4467 99.8012 66.62 99.8278 66.9V68C99.8278 68.8933 99.8078 69.7867 99.7678 70.68C99.7412 71.56 99.7278 72.52 99.7278 73.56C99.7278 73.6933 99.7345 73.82 99.7478 73.94C99.7745 74.06 99.8212 74.12 99.8878 74.12C99.9412 74.12 100.014 74.08 100.108 74C100.201 73.92 100.321 73.7733 100.468 73.56C101.054 72.88 101.714 72.3133 102.448 71.86C103.181 71.3933 104.081 71.16 105.148 71.16C105.494 71.16 105.854 71.2067 106.228 71.3C106.614 71.38 106.974 71.5467 107.308 71.8C107.641 72.04 107.908 72.4067 108.108 72.9C108.321 73.38 108.428 74.02 108.428 74.82C108.428 75.7533 108.254 76.62 107.908 77.42C107.561 78.2067 107.081 78.8933 106.468 79.48C105.854 80.0533 105.141 80.5 104.328 80.82C103.528 81.14 102.668 81.3 101.748 81.3ZM101.748 79.96C102.374 79.96 103.001 79.8133 103.628 79.52C104.254 79.2267 104.828 78.8333 105.348 78.34C105.881 77.8467 106.308 77.3 106.628 76.7C106.948 76.0867 107.108 75.46 107.108 74.82C107.108 74.4467 107.014 74.0867 106.828 73.74C106.654 73.3933 106.401 73.1067 106.068 72.88C105.748 72.64 105.374 72.52 104.948 72.52C104.521 72.52 104.061 72.6533 103.568 72.92C103.074 73.1867 102.588 73.5333 102.108 73.96C101.628 74.3867 101.188 74.86 100.788 75.38C100.401 75.8867 100.088 76.3933 99.8478 76.9C99.6212 77.4067 99.5078 77.8667 99.5078 78.28C99.5078 78.5867 99.5878 78.8467 99.7478 79.06C99.9212 79.2733 100.134 79.4467 100.388 79.58C100.641 79.7133 100.888 79.8133 101.128 79.88C101.381 79.9333 101.588 79.96 101.748 79.96ZM113.764 81.8C113.404 81.8 112.984 81.78 112.504 81.74C112.024 81.7 111.55 81.6133 111.084 81.48C110.63 81.3467 110.25 81.1333 109.944 80.84C109.65 80.5467 109.504 80.1533 109.504 79.66C109.504 79.02 109.757 78.7 110.264 78.7C110.437 78.7 110.57 78.76 110.664 78.88L110.844 79.12C110.884 79.1733 110.917 79.2333 110.944 79.3C110.984 79.3533 111.03 79.4133 111.084 79.48C111.27 79.76 111.537 80.02 111.884 80.26C112.23 80.5 112.75 80.62 113.444 80.62C113.844 80.62 114.284 80.56 114.764 80.44C115.244 80.3067 115.65 80.1 115.984 79.82C116.33 79.54 116.504 79.1667 116.504 78.7C116.504 78.3133 116.384 78.0067 116.144 77.78C115.904 77.5533 115.637 77.3733 115.344 77.24C115.21 77.1733 115.057 77.1067 114.884 77.04C114.724 76.9733 114.55 76.9133 114.364 76.86C114.19 76.8067 114.017 76.7533 113.844 76.7C113.67 76.6467 113.49 76.5933 113.304 76.54C112.824 76.38 112.384 76.2 111.984 76C111.597 75.7867 111.284 75.52 111.044 75.2C110.817 74.88 110.704 74.4733 110.704 73.98C110.704 73.3667 110.904 72.8533 111.304 72.44C111.717 72.0267 112.23 71.72 112.844 71.52C113.47 71.3067 114.104 71.2 114.744 71.2C114.984 71.2 115.264 71.22 115.584 71.26C115.904 71.3 116.217 71.3733 116.524 71.48C116.83 71.5867 117.084 71.74 117.284 71.94C117.497 72.1267 117.604 72.38 117.604 72.7C117.604 72.86 117.57 73 117.504 73.12C117.45 73.2267 117.364 73.28 117.244 73.28C117.164 73.28 117.097 73.2667 117.044 73.24C116.457 72.9733 115.964 72.78 115.564 72.66C115.177 72.54 114.837 72.48 114.544 72.48C114.37 72.48 114.144 72.5067 113.864 72.56C113.597 72.6 113.33 72.6733 113.064 72.78C112.797 72.8733 112.57 73.0133 112.384 73.2C112.21 73.3733 112.124 73.6 112.124 73.88C112.124 74.3867 112.51 74.8067 113.284 75.14C113.564 75.2467 113.877 75.3533 114.224 75.46C114.57 75.5667 114.93 75.6933 115.304 75.84C115.784 76.0133 116.224 76.22 116.624 76.46C117.024 76.7 117.337 76.9933 117.564 77.34C117.804 77.6733 117.924 78.0933 117.924 78.6C117.924 79.36 117.73 79.98 117.344 80.46C116.957 80.9267 116.45 81.2667 115.824 81.48C115.197 81.6933 114.51 81.8 113.764 81.8ZM123.942 81.2C123.009 81.2 122.222 80.9733 121.582 80.52C120.942 80.0667 120.456 79.46 120.122 78.7C119.789 77.9267 119.622 77.0867 119.622 76.18C119.622 75.1667 119.849 74.24 120.302 73.4C120.756 72.56 121.382 71.8867 122.182 71.38C122.982 70.86 123.889 70.6 124.902 70.6C125.182 70.6 125.509 70.62 125.882 70.66C126.256 70.7 126.616 70.78 126.962 70.9C127.309 71.02 127.596 71.1933 127.822 71.42C128.049 71.6467 128.162 71.9467 128.162 72.32C128.162 72.4667 128.102 72.5933 127.982 72.7C127.862 72.8067 127.669 72.86 127.402 72.86C127.189 72.86 126.989 72.8067 126.802 72.7C126.629 72.5933 126.462 72.4867 126.302 72.38C126.062 72.22 125.809 72.08 125.542 71.96C125.289 71.8267 125.009 71.76 124.702 71.76C124.116 71.76 123.602 71.9133 123.162 72.22C122.722 72.5133 122.356 72.9 122.062 73.38C121.769 73.8467 121.549 74.3467 121.402 74.88C121.256 75.4 121.182 75.88 121.182 76.32C121.182 77.1867 121.349 77.88 121.682 78.4C122.029 78.9067 122.482 79.2733 123.042 79.5C123.616 79.7133 124.236 79.82 124.902 79.82C125.542 79.82 126.122 79.7067 126.642 79.48C127.176 79.2533 127.716 79.0133 128.262 78.76C128.449 78.6667 128.602 78.62 128.722 78.62C128.882 78.62 128.989 78.6867 129.042 78.82C129.096 78.94 129.122 79.0933 129.122 79.28C129.122 79.6267 128.982 79.92 128.702 80.16C128.422 80.3867 128.069 80.5733 127.642 80.72C127.216 80.8533 126.756 80.96 126.262 81.04C125.782 81.1067 125.336 81.1533 124.922 81.18C124.509 81.1933 124.182 81.2 123.942 81.2ZM131.564 81.7C131.418 81.7 131.304 81.6333 131.224 81.5C131.158 81.3667 131.111 81.2133 131.084 81.04C131.058 80.8667 131.031 80.72 131.004 80.6V79.02C131.004 78.22 131.038 77.4 131.104 76.56C131.184 75.72 131.224 74.9 131.224 74.1C131.224 73.7133 131.198 73.3267 131.144 72.94C131.104 72.5533 131.058 72.2267 131.004 71.96C130.991 71.8933 130.978 71.8333 130.964 71.78C130.964 71.7267 130.964 71.6733 130.964 71.62C130.964 71.4467 131.018 71.3333 131.124 71.28C131.231 71.2267 131.411 71.2 131.664 71.2C131.971 71.2 132.198 71.3333 132.344 71.6C132.491 71.8667 132.598 72.18 132.664 72.54C132.744 72.8867 132.818 73.2 132.884 73.48C133.271 73.0133 133.691 72.6733 134.144 72.46C134.598 72.2467 134.978 72.06 135.284 71.9C135.578 71.7533 135.871 71.64 136.164 71.56C136.471 71.4667 136.811 71.42 137.184 71.42C137.558 71.42 137.904 71.5267 138.224 71.74C138.558 71.94 138.724 72.16 138.724 72.4C138.724 72.68 138.638 72.8867 138.464 73.02C138.291 73.1533 138.091 73.22 137.864 73.22C137.798 73.22 137.731 73.2133 137.664 73.2C137.611 73.1733 137.551 73.1533 137.484 73.14C137.391 73.1 137.284 73.0667 137.164 73.04C137.058 73.0133 136.951 73 136.844 73C136.431 73 136.031 73.08 135.644 73.24C135.258 73.3867 134.931 73.5333 134.664 73.68C134.198 73.9333 133.831 74.22 133.564 74.54C133.311 74.8467 133.098 75.1333 132.924 75.4C132.831 75.9067 132.771 76.4 132.744 76.88C132.718 77.36 132.698 77.7333 132.684 78C132.671 78.28 132.658 78.5733 132.644 78.88C132.631 79.1867 132.611 79.4933 132.584 79.8C132.558 80.12 132.518 80.4267 132.464 80.72C132.411 81.0133 132.318 81.2533 132.184 81.44C132.051 81.6133 131.844 81.7 131.564 81.7ZM140.95 68.42C140.51 68.42 140.156 68.32 139.89 68.12C139.636 67.9067 139.51 67.6333 139.51 67.3C139.51 66.9933 139.656 66.76 139.95 66.6C140.243 66.4267 140.616 66.34 141.07 66.34C141.523 66.34 141.876 66.4467 142.13 66.66C142.383 66.86 142.51 67.14 142.51 67.5C142.51 67.7933 142.363 68.02 142.07 68.18C141.79 68.34 141.416 68.42 140.95 68.42ZM139.91 81.2C139.723 81.2 139.576 81.08 139.47 80.84C139.376 80.6 139.31 80.2933 139.27 79.92C139.243 79.5467 139.23 79.16 139.23 78.76C139.23 78.5733 139.23 78.3867 139.23 78.2C139.243 78 139.25 77.8133 139.25 77.64C139.25 77.5867 139.27 77.4133 139.31 77.12C139.35 76.8133 139.396 76.46 139.45 76.06C139.503 75.66 139.556 75.2667 139.61 74.88C139.676 74.48 139.73 74.1667 139.77 73.94C139.81 73.7667 139.856 73.54 139.91 73.26C139.963 72.9667 140.056 72.7067 140.19 72.48C140.336 72.24 140.543 72.12 140.81 72.12C141.116 72.12 141.33 72.18 141.45 72.3C141.583 72.4067 141.65 72.58 141.65 72.82C141.65 72.8867 141.643 72.9533 141.63 73.02C141.63 73.0867 141.623 73.16 141.61 73.24C141.543 73.6667 141.456 74.2 141.35 74.84C141.256 75.4667 141.17 76.1267 141.09 76.82C141.023 77.5 141.003 78.1467 141.03 78.76C141.043 78.9067 141.056 79.08 141.07 79.28C141.096 79.4667 141.11 79.6533 141.11 79.84C141.11 80.1867 141.036 80.5 140.89 80.78C140.743 81.06 140.416 81.2 139.91 81.2ZM144.584 87.14C144.357 87.14 144.211 87.02 144.144 86.78C144.077 86.5533 144.044 86.3 144.044 86.02C144.044 85.9133 144.044 85.8 144.044 85.68C144.057 85.5733 144.064 85.4733 144.064 85.38C144.064 84.02 144.124 82.72 144.244 81.48C144.364 80.2267 144.451 79.0133 144.504 77.84C144.517 77.5333 144.531 77.1533 144.544 76.7C144.557 76.2467 144.564 75.8133 144.564 75.4C144.577 74.9867 144.577 74.6867 144.564 74.5C144.311 74.5 144.111 74.4067 143.964 74.22C143.817 74.0333 143.744 73.8533 143.744 73.68C143.744 73.5467 143.804 73.3733 143.924 73.16C144.057 72.9333 144.251 72.7733 144.504 72.68C144.531 72.6133 144.544 72.5467 144.544 72.48C144.544 72.4 144.544 72.3133 144.544 72.22C144.544 71.9267 144.517 71.6 144.464 71.24C144.424 70.8667 144.391 70.5933 144.364 70.42C144.351 70.34 144.431 70.2533 144.604 70.16C144.777 70.0667 144.951 70.02 145.124 70.02C145.364 70.02 145.531 70.1 145.624 70.26C145.717 70.42 145.777 70.62 145.804 70.86C145.831 71.1 145.864 71.34 145.904 71.58C146.504 71.34 146.991 71.16 147.364 71.04C147.737 70.92 148.091 70.84 148.424 70.8C148.757 70.76 149.157 70.74 149.624 70.74C150.491 70.74 151.277 70.88 151.984 71.16C152.704 71.44 153.277 71.86 153.704 72.42C154.131 72.9667 154.344 73.6533 154.344 74.48C154.344 75.2667 154.177 76.0533 153.844 76.84C153.524 77.6267 153.077 78.3467 152.504 79C151.944 79.64 151.297 80.1533 150.564 80.54C149.831 80.9267 149.057 81.12 148.244 81.12C148.031 81.12 147.824 81.1 147.624 81.06C147.424 81.0067 147.217 80.9667 147.004 80.94C146.924 80.9267 146.844 80.92 146.764 80.92C146.684 80.9067 146.611 80.9 146.544 80.9H145.884C145.884 81.2067 145.884 81.6333 145.884 82.18C145.884 82.7267 145.871 83.3067 145.844 83.92C145.831 84.5333 145.804 85.1067 145.764 85.64C145.737 86.0533 145.611 86.4067 145.384 86.7C145.171 86.9933 144.904 87.14 144.584 87.14ZM148.144 79.78C148.811 79.78 149.431 79.6267 150.004 79.32C150.591 79 151.104 78.58 151.544 78.06C151.997 77.54 152.344 76.98 152.584 76.38C152.837 75.7667 152.964 75.1667 152.964 74.58C152.964 73.94 152.804 73.4333 152.484 73.06C152.164 72.6733 151.757 72.4 151.264 72.24C150.784 72.0667 150.277 71.98 149.744 71.98C149.477 71.98 149.197 71.9933 148.904 72.02C148.611 72.0333 148.331 72.1 148.064 72.22C147.477 72.4733 147.024 72.7533 146.704 73.06C146.397 73.3533 146.191 73.7067 146.084 74.12C146.031 74.3067 145.997 74.5 145.984 74.7C145.971 74.9 145.964 75.1067 145.964 75.32C145.964 75.5333 145.971 75.76 145.984 76C145.997 76.24 146.004 76.4933 146.004 76.76V78.42C146.004 78.7267 146.124 78.9867 146.364 79.2C146.604 79.4 146.891 79.5467 147.224 79.64C147.557 79.7333 147.864 79.78 148.144 79.78ZM159.067 81.9C158.734 81.9 158.487 81.7933 158.327 81.58C158.167 81.3667 158.06 81.1 158.007 80.78C157.967 80.46 157.947 80.1467 157.947 79.84C157.947 79.6933 157.947 79.5533 157.947 79.42C157.96 79.2867 157.967 79.1733 157.967 79.08C157.967 78.12 157.987 77.1533 158.027 76.18C158.067 75.1933 158.087 74.12 158.087 72.96C157.594 72.96 157.187 72.98 156.867 73.02C156.547 73.06 156.227 73.08 155.907 73.08C155.694 73.08 155.547 73.04 155.467 72.96C155.387 72.88 155.347 72.7467 155.347 72.56C155.347 72.3467 155.374 72.1933 155.427 72.1C155.494 71.9933 155.574 71.9267 155.667 71.9L157.627 71.5C157.92 71.4333 158.127 71.3 158.247 71.1C158.38 70.9 158.474 70.7067 158.527 70.52C158.554 70.4133 158.567 70.3133 158.567 70.22C158.58 70.1133 158.594 70 158.607 69.88C158.607 69.7733 158.607 69.6733 158.607 69.58C158.62 69.4733 158.627 69.3733 158.627 69.28C158.654 68.8533 158.72 68.54 158.827 68.34C158.947 68.14 159.174 68.04 159.507 68.04C159.814 68.04 159.994 68.16 160.047 68.4C160.114 68.64 160.147 68.8667 160.147 69.08C160.147 69.2267 160.134 69.4533 160.107 69.76C160.094 70.0533 160.08 70.3467 160.067 70.64C160.054 70.9333 160.04 71.1467 160.027 71.28H163.227C163.347 71.28 163.467 71.36 163.587 71.52C163.707 71.68 163.767 71.8867 163.767 72.14C163.767 72.22 163.734 72.3267 163.667 72.46C163.6 72.58 163.52 72.64 163.427 72.64C163.294 72.64 163.04 72.6467 162.667 72.66C162.307 72.66 161.914 72.6667 161.487 72.68C161.074 72.6933 160.707 72.7067 160.387 72.72C160.067 72.7333 159.887 72.7533 159.847 72.78C159.78 73.58 159.727 74.3533 159.687 75.1C159.66 75.8333 159.647 76.5467 159.647 77.24C159.647 77.6933 159.654 78.1333 159.667 78.56C159.694 78.9733 159.714 79.3867 159.727 79.8C159.727 79.8667 159.734 79.9667 159.747 80.1C159.76 80.2333 159.767 80.38 159.767 80.54C159.767 80.8467 159.72 81.1533 159.627 81.46C159.547 81.7533 159.36 81.9 159.067 81.9ZM167.374 68.42C166.934 68.42 166.581 68.32 166.314 68.12C166.061 67.9067 165.934 67.6333 165.934 67.3C165.934 66.9933 166.081 66.76 166.374 66.6C166.667 66.4267 167.041 66.34 167.494 66.34C167.947 66.34 168.301 66.4467 168.554 66.66C168.807 66.86 168.934 67.14 168.934 67.5C168.934 67.7933 168.787 68.02 168.494 68.18C168.214 68.34 167.841 68.42 167.374 68.42ZM166.334 81.2C166.147 81.2 166.001 81.08 165.894 80.84C165.801 80.6 165.734 80.2933 165.694 79.92C165.667 79.5467 165.654 79.16 165.654 78.76C165.654 78.5733 165.654 78.3867 165.654 78.2C165.667 78 165.674 77.8133 165.674 77.64C165.674 77.5867 165.694 77.4133 165.734 77.12C165.774 76.8133 165.821 76.46 165.874 76.06C165.927 75.66 165.981 75.2667 166.034 74.88C166.101 74.48 166.154 74.1667 166.194 73.94C166.234 73.7667 166.281 73.54 166.334 73.26C166.387 72.9667 166.481 72.7067 166.614 72.48C166.761 72.24 166.967 72.12 167.234 72.12C167.541 72.12 167.754 72.18 167.874 72.3C168.007 72.4067 168.074 72.58 168.074 72.82C168.074 72.8867 168.067 72.9533 168.054 73.02C168.054 73.0867 168.047 73.16 168.034 73.24C167.967 73.6667 167.881 74.2 167.774 74.84C167.681 75.4667 167.594 76.1267 167.514 76.82C167.447 77.5 167.427 78.1467 167.454 78.76C167.467 78.9067 167.481 79.08 167.494 79.28C167.521 79.4667 167.534 79.6533 167.534 79.84C167.534 80.1867 167.461 80.5 167.314 80.78C167.167 81.06 166.841 81.2 166.334 81.2ZM175.408 81.5C174.448 81.5 173.555 81.2933 172.728 80.88C171.902 80.4533 171.235 79.8667 170.728 79.12C170.235 78.36 169.988 77.48 169.988 76.48C169.988 75.8 170.128 75.1667 170.408 74.58C170.702 73.9933 171.075 73.4333 171.528 72.9C171.982 72.3667 172.455 71.8467 172.948 71.34C173.175 71.1133 173.435 70.9533 173.728 70.86C174.022 70.7533 174.335 70.7 174.668 70.7C175.588 70.7 176.455 70.8 177.268 71C178.082 71.1867 178.802 71.4933 179.428 71.92C180.068 72.3467 180.568 72.9 180.928 73.58C181.288 74.26 181.468 75.0867 181.468 76.06C181.468 76.86 181.295 77.5933 180.948 78.26C180.615 78.9267 180.155 79.5067 179.568 80C178.995 80.48 178.348 80.8533 177.628 81.12C176.908 81.3733 176.168 81.5 175.408 81.5ZM174.968 80.02C175.582 80.02 176.188 79.9333 176.788 79.76C177.402 79.5867 177.955 79.3267 178.448 78.98C178.942 78.62 179.335 78.1733 179.628 77.64C179.935 77.1067 180.088 76.4733 180.088 75.74C180.088 75.0733 179.942 74.5067 179.648 74.04C179.368 73.56 178.995 73.1733 178.528 72.88C178.062 72.5733 177.555 72.3467 177.008 72.2C176.462 72.0533 175.928 71.98 175.408 71.98C175.195 71.98 174.955 72 174.688 72.04C174.435 72.0667 174.188 72.1933 173.948 72.42C173.655 72.7 173.355 72.9867 173.048 73.28C172.755 73.56 172.482 73.8733 172.228 74.22C171.975 74.5533 171.768 74.9267 171.608 75.34C171.448 75.7533 171.368 76.2 171.368 76.68C171.368 77.4533 171.528 78.0867 171.848 78.58C172.182 79.0733 172.622 79.44 173.168 79.68C173.715 79.9067 174.315 80.02 174.968 80.02ZM184.483 81.1C184.283 81.1 184.136 81.0533 184.043 80.96C183.95 80.8667 183.883 80.7333 183.843 80.56C183.776 80.3333 183.743 80.0933 183.743 79.84V79.06C183.743 78.6333 183.756 78.2667 183.783 77.96C183.81 77.64 183.823 77.2933 183.823 76.92C183.823 76.7867 183.816 76.6467 183.803 76.5C183.803 76.34 183.796 76.1733 183.783 76C183.73 75.3467 183.656 74.66 183.563 73.94C183.47 73.22 183.423 72.5667 183.423 71.98V71.2C183.503 71.0133 183.576 70.9 183.643 70.86C183.723 70.82 183.83 70.8 183.963 70.8C184.283 70.8 184.51 70.9267 184.643 71.18C184.776 71.42 184.863 71.7067 184.903 72.04C184.956 72.36 184.99 72.64 185.003 72.88C185.016 72.9733 185.036 73.1733 185.063 73.48C185.103 73.7867 185.143 74.1333 185.183 74.52C185.223 74.8933 185.256 75.2533 185.283 75.6C185.323 75.9467 185.343 76.2133 185.343 76.4C185.556 75.96 185.81 75.5067 186.103 75.04C186.396 74.56 186.69 74.1133 186.983 73.7C187.29 73.2867 187.563 72.9533 187.803 72.7C188.15 72.3133 188.556 72.0133 189.023 71.8C189.503 71.5733 189.976 71.46 190.443 71.46C190.99 71.46 191.47 71.6133 191.883 71.92C192.296 72.2267 192.65 72.6267 192.943 73.12C193.25 73.6133 193.503 74.1467 193.703 74.72C193.903 75.28 194.063 75.8267 194.183 76.36C194.356 77.0667 194.483 77.6867 194.563 78.22C194.656 78.7533 194.736 79.36 194.803 80.04C194.803 80.3333 194.743 80.5667 194.623 80.74C194.503 80.9133 194.356 81 194.183 81C193.93 81 193.75 80.9467 193.643 80.84C193.536 80.72 193.463 80.5333 193.423 80.28C193.33 79.7733 193.236 79.2 193.143 78.56C193.063 77.92 192.95 77.2733 192.803 76.62C192.656 75.9533 192.443 75.3467 192.163 74.8C192.056 74.5467 191.923 74.2867 191.763 74.02C191.603 73.7533 191.41 73.5267 191.183 73.34C190.956 73.1533 190.676 73.06 190.343 73.06C189.903 73.06 189.456 73.2533 189.003 73.64C188.563 74.0267 188.143 74.5267 187.743 75.14C187.343 75.7533 186.976 76.4133 186.643 77.12C186.31 77.8133 186.03 78.4733 185.803 79.1C185.736 79.3133 185.65 79.5533 185.543 79.82C185.45 80.0733 185.35 80.3133 185.243 80.54C185.15 80.7267 185.043 80.8667 184.923 80.96C184.816 81.0533 184.67 81.1 184.483 81.1ZM200.66 77.88C200.46 77.88 200.306 77.76 200.2 77.52C200.16 77.4133 200.133 77.3 200.12 77.18C200.106 77.0467 200.1 76.9133 200.1 76.78C200.1 76.6467 200.1 76.5133 200.1 76.38C200.113 76.2467 200.12 76.1333 200.12 76.04C200.12 75.64 200.12 75.2667 200.12 74.92C200.133 74.5733 200.14 74.24 200.14 73.92C200.14 73.7067 200.14 73.5 200.14 73.3C200.14 73.1 200.126 72.9 200.1 72.7C200.046 72.1267 200.006 71.4733 199.98 70.74C199.953 70.0067 199.926 69.3533 199.9 68.78C199.886 68.34 199.926 67.94 200.02 67.58C200.126 67.2067 200.373 66.9133 200.76 66.7C200.906 66.62 201.026 66.58 201.12 66.58C201.32 66.58 201.466 66.6867 201.56 66.9C201.666 67.1 201.74 67.36 201.78 67.68C201.82 68 201.84 68.3333 201.84 68.68C201.84 69.0533 201.826 69.4067 201.8 69.74C201.773 70.0733 201.753 70.32 201.74 70.48C201.686 71.1333 201.633 71.7933 201.58 72.46C201.54 73.1133 201.5 73.7733 201.46 74.44C201.433 74.8933 201.42 75.4067 201.42 75.98C201.433 76.5533 201.346 77.0533 201.16 77.48C201.053 77.7467 200.886 77.88 200.66 77.88ZM200.3 81.52C199.993 81.52 199.76 81.42 199.6 81.22C199.453 81.02 199.38 80.7933 199.38 80.54C199.38 80.2067 199.486 79.8933 199.7 79.6C199.926 79.3067 200.233 79.16 200.62 79.16C200.926 79.16 201.153 79.26 201.3 79.46C201.446 79.6467 201.52 79.8733 201.52 80.14C201.52 80.4733 201.413 80.7867 201.2 81.08C200.986 81.3733 200.686 81.52 200.3 81.52Z" fill="#B4C6E5"/>
<path d="M49.2419 45.6209C21.3566 41.3753 46.2193 31.8958 39.4509 27.3615C31.9345 22.329 11.0333 21.6991 1.99851 22.2385" stroke="#B4C6E5" stroke-width="1.5" stroke-miterlimit="10" stroke-linecap="round"/>
<path d="M15.1681 14.8365C10.7104 16.7458 6.36187 18.907 2.15484 21.3153C1.78519 21.5242 1.38788 21.7816 1.29381 22.1934C1.16992 22.7302 1.61485 23.2128 2.02025 23.582C5.26351 26.5363 8.50676 29.4907 11.7546 32.4426" stroke="#B4C6E5" stroke-width="1.5" stroke-miterlimit="10" stroke-linecap="round"/>
</svg>
