<svg width="542" height="338" viewBox="0 0 542 338" fill="none" xmlns="http://www.w3.org/2000/svg">
<g clip-path="url(#clip0_993_339)">
<path d="M175.647 1.2749H528.436C535.633 1.2749 541.475 7.11756 541.475 14.3146V231.133C541.475 238.33 535.633 244.173 528.436 244.173H175.647C168.45 244.173 162.607 238.33 162.607 231.133V14.3146C162.607 7.11756 168.45 1.2749 175.647 1.2749Z" fill="#B4C6E5"/>
<path d="M528.436 244.698H175.647C168.166 244.698 162.082 238.614 162.082 231.133V14.3146C162.082 6.83413 168.166 0.75 175.647 0.75H528.436C535.916 0.75 542 6.83413 542 14.3146V231.133C542 238.614 535.916 244.698 528.436 244.698ZM175.647 1.79989C168.749 1.79989 163.132 7.41157 163.132 14.3146V231.133C163.132 238.031 168.744 243.648 175.647 243.648H528.436C535.333 243.648 540.95 238.036 540.95 231.133V14.3146C540.95 7.41157 535.339 1.79989 528.436 1.79989H175.647Z" fill="#231F20"/>
<path d="M319.955 26.248H415.911C419.311 26.248 422.073 29.0105 422.073 32.4228V76.2588C422.073 79.6712 419.317 82.4336 415.911 82.4336H290.226L313.799 60.8844V32.4228C313.799 29.0105 316.555 26.248 319.961 26.248H319.955Z" fill="#B4C6E5"/>
<path d="M415.911 83.0514H290.226C289.97 83.0514 289.738 82.8951 289.645 82.6514C289.551 82.4076 289.613 82.1389 289.807 81.9639L313.174 60.6021V32.4218C313.174 28.672 316.218 25.6221 319.961 25.6221H415.918C419.661 25.6221 422.705 28.672 422.705 32.4218V76.2578C422.705 80.0077 419.661 83.0576 415.918 83.0576L415.911 83.0514ZM291.832 81.8014H415.911C418.961 81.8014 421.448 79.314 421.448 76.2516V32.4218C421.448 29.3594 418.967 26.872 415.911 26.872H319.955C316.905 26.872 314.418 29.3594 314.418 32.4218V60.8834C314.418 61.0584 314.343 61.2271 314.212 61.3459L291.832 81.8077V81.8014Z" fill="#231F20"/>
<path d="M408.893 42.9521H392.675C392.332 42.9521 392.05 42.6709 392.05 42.3271C392.05 41.9834 392.332 41.7021 392.675 41.7021H408.893C409.237 41.7021 409.518 41.9834 409.518 42.3271C409.518 42.6709 409.237 42.9521 408.893 42.9521Z" fill="#231F20"/>
<path d="M378.645 42.9521H326.943C326.599 42.9521 326.318 42.6709 326.318 42.3271C326.318 41.9834 326.599 41.7021 326.943 41.7021H378.645C378.989 41.7021 379.27 41.9834 379.27 42.3271C379.27 42.6709 378.989 42.9521 378.645 42.9521Z" fill="#231F20"/>
<path d="M408.893 54.958H358.671C358.328 54.958 358.046 54.6767 358.046 54.333C358.046 53.9892 358.328 53.708 358.671 53.708H408.893C409.237 53.708 409.518 53.9892 409.518 54.333C409.518 54.6767 409.237 54.958 408.893 54.958Z" fill="#231F20"/>
<path d="M347.191 54.958H326.936C326.592 54.958 326.311 54.6767 326.311 54.333C326.311 53.9892 326.592 53.708 326.936 53.708H347.191C347.535 53.708 347.816 53.9892 347.816 54.333C347.816 54.6767 347.535 54.958 347.191 54.958Z" fill="#231F20"/>
<path d="M408.893 66.9707H385.445C385.101 66.9707 384.82 66.6894 384.82 66.3457C384.82 66.0019 385.101 65.7207 385.445 65.7207H408.893C409.237 65.7207 409.518 66.0019 409.518 66.3457C409.518 66.6894 409.237 66.9707 408.893 66.9707Z" fill="#231F20"/>
<path d="M371.42 66.9707H326.942C326.598 66.9707 326.317 66.6894 326.317 66.3457C326.317 66.0019 326.598 65.7207 326.942 65.7207H371.42C371.764 65.7207 372.045 66.0019 372.045 66.3457C372.045 66.6894 371.764 66.9707 371.42 66.9707Z" fill="#231F20"/>
<path d="M216.924 58.7763C216.924 58.7763 237.759 33.8728 225.769 23.5313C213.78 13.1951 203.822 27.6469 185.597 23.5313C167.371 19.4158 154.699 16.5705 123.697 53.7053C92.6945 90.8452 5.56676 179.824 48.0913 200.748C90.6158 221.672 216.924 58.771 216.924 58.771V58.7763Z" fill="#231F20"/>
<path d="M412.649 150.412C411.605 147.435 408.697 145.419 405.647 144.606C402.597 143.787 399.384 143.976 396.235 144.17C376.203 145.409 356.167 146.648 336.136 147.887C349.511 154.91 364.534 158.013 379.521 158.9C385.747 159.267 417.085 163.016 412.649 150.412Z" fill="#B4C6E5"/>
<path d="M394.571 160.496C389.663 160.496 384.902 160.118 381.789 159.866C380.833 159.792 380.051 159.729 379.474 159.692C362.603 158.695 347.899 154.957 335.763 148.59C335.448 148.422 335.28 148.07 335.354 147.718C335.427 147.372 335.726 147.115 336.083 147.094L396.182 143.377C399.211 143.188 402.644 142.978 405.852 143.834C409.537 144.821 412.355 147.183 413.4 150.144C414.203 152.422 413.988 154.38 412.765 155.965C409.972 159.598 402.093 160.49 394.566 160.49L394.571 160.496ZM339.128 148.501C350.54 153.965 364.13 157.194 379.568 158.112C380.151 158.144 380.949 158.212 381.915 158.286C388.891 158.842 407.416 160.317 411.505 155.005C412.392 153.855 412.518 152.438 411.899 150.679C411.033 148.207 408.618 146.228 405.442 145.377C402.487 144.584 399.337 144.784 396.282 144.968L339.123 148.506L339.128 148.501Z" fill="#231F20"/>
<path d="M303.469 149.771C311.018 132.474 335.648 124.674 344.209 122.222C352.766 119.771 353.936 131.456 340.388 138.317C326.839 145.183 331.249 148.17 331.249 148.17C331.249 148.17 412.455 148.013 416.298 156.622C416.298 156.622 421.379 169.137 389.343 169.21C380.272 169.231 372.088 174.654 368.576 183.016C367.584 185.378 366.477 187.998 365.285 190.785C339.926 191.169 314.477 184.559 292.53 171.851C297.511 162.249 301.564 154.176 303.475 149.787L303.469 149.771Z" fill="#B4C6E5"/>
<path d="M366.067 189.725C365.962 189.725 365.857 189.704 365.757 189.662C365.353 189.488 365.164 189.021 365.338 188.617C366.403 186.118 366.771 185.242 367.553 183.383L367.841 182.701C371.479 174.039 379.92 168.433 389.337 168.412C406.586 168.375 412.686 164.732 414.76 161.682C416.429 159.23 415.594 157.01 415.558 156.915C412.907 150.978 363.705 148.92 331.249 148.968C331.091 148.968 330.934 148.92 330.802 148.831C330.383 148.548 329.7 147.745 329.774 146.537C329.936 143.981 333.385 140.978 340.031 137.613C348.445 133.351 350.666 127.445 349.558 124.615C348.876 122.873 346.96 122.269 344.435 122.988C329.627 127.235 310.624 135.382 304.21 150.091C302.724 153.503 299.816 159.425 295.569 167.693C295.37 168.081 294.892 168.239 294.498 168.039C294.11 167.84 293.952 167.357 294.152 166.968C298.383 158.732 301.275 152.837 302.75 149.456C309.417 134.18 328.86 125.797 343.999 121.461C347.994 120.316 350.256 122.038 351.044 124.033C352.598 127.991 349.516 134.589 340.755 139.025C332.451 143.23 331.422 145.745 331.369 146.632C331.348 146.989 331.469 147.235 331.574 147.372C334.246 147.372 353.222 147.414 372.382 148.369C414.434 150.469 416.392 154.852 417.033 156.291C417.096 156.438 418.24 159.362 416.114 162.527C412.807 167.451 403.804 169.966 389.348 169.997C380.571 170.018 372.702 175.241 369.311 183.315L369.023 183.997C368.24 185.861 367.868 186.743 366.802 189.242C366.671 189.546 366.377 189.725 366.072 189.725H366.067Z" fill="#231F20"/>
<path d="M239.423 144.553C239.423 144.553 271.863 148.826 269.527 170.47C267.192 192.113 266.992 222.786 266.992 222.786C266.992 222.786 277.884 200.061 292.519 171.84C314.472 184.549 339.92 191.158 365.275 190.775C351.574 222.901 332.419 266.981 317.212 282.824C295.732 305.208 246.226 341.954 213.276 259.905C180.326 177.85 239.418 144.548 239.418 144.548L239.423 144.553Z" fill="white"/>
<path d="M239.423 144.553L259.417 166.459C259.417 166.459 245.313 242.356 240.966 252.456C229.486 279.113 102.768 264.293 76.7315 263.034C50.695 261.774 37.661 237.211 36.8054 227.447C35.9498 217.689 91.8022 143.682 91.8022 143.682C91.8022 143.682 159.025 140.479 239.428 144.553H239.423Z" fill="white"/>
<path d="M225.596 257.438C225.271 257.438 224.966 257.238 224.851 256.913C224.699 256.498 224.914 256.047 225.328 255.894C235.391 252.246 239.985 240.891 240.861 232.277C241.601 225.001 240.562 217.557 239.559 210.355C239.171 207.583 238.772 204.717 238.478 201.893C238.006 197.378 237.943 191.762 241.649 188.344C241.974 188.045 242.473 188.066 242.772 188.391C243.071 188.717 243.05 189.216 242.725 189.515C239.538 192.454 239.622 197.583 240.058 201.73C240.352 204.528 240.746 207.379 241.134 210.14C242.152 217.431 243.202 224.975 242.441 232.44C241.523 241.511 236.63 253.49 225.869 257.39C225.78 257.422 225.691 257.438 225.596 257.438Z" fill="#B4C6E5"/>
<path d="M139.408 258.682C177.103 259.926 222.772 262.598 224.158 268.267C225.769 274.845 220.856 276.635 220.856 276.635C220.856 276.635 226.074 281.905 219.203 288.808C219.203 288.808 222.415 296.257 216.919 300.378C216.919 300.378 217.449 310.751 207.791 310.777C200.331 310.793 172.227 319.444 142.589 326.19C135.676 304.478 134.51 280.934 139.403 258.682H139.408Z" fill="#B4C6E5"/>
<path d="M148.29 325.66C147.928 325.66 147.602 325.414 147.518 325.046C147.418 324.621 147.681 324.19 148.111 324.091C158.353 321.671 168.269 319.093 177.019 316.82C191.717 313.004 203.323 309.991 207.801 309.98C210.3 309.975 212.279 309.219 213.686 307.739C216.336 304.941 216.142 300.458 216.137 300.416C216.121 300.153 216.242 299.896 216.452 299.738C221.386 296.038 218.51 289.187 218.478 289.119C218.352 288.82 218.415 288.473 218.646 288.242C224.893 281.974 220.489 277.381 220.3 277.192C219.99 276.882 219.995 276.378 220.305 276.069C220.615 275.759 221.119 275.764 221.428 276.074C221.486 276.132 226.93 281.796 220.126 288.998C220.741 290.793 222.389 296.94 217.728 300.757C217.717 302.064 217.465 306.059 214.835 308.836C213.124 310.642 210.756 311.565 207.801 311.571C203.523 311.581 192.006 314.573 177.418 318.358C168.662 320.631 158.736 323.209 148.479 325.634C148.416 325.65 148.358 325.655 148.295 325.655L148.29 325.66Z" fill="#231F20"/>
<path d="M2.93165 275.48C14.963 243.049 31.7293 202.948 51.6031 169.052C60.5531 153.792 76.8312 144.317 94.5108 143.782L121.755 142.952L89.9019 257.637C89.9019 257.637 112.647 257.8 139.408 258.682C134.516 280.934 135.681 304.478 142.594 326.19C133.87 328.174 125.014 329.996 116.511 331.382C100.516 333.991 73.5136 336.705 48.0073 337.713C15.089 339.02 -8.52756 306.368 2.93165 275.475V275.48Z" fill="white"/>
<path d="M217.785 276.42C217.785 276.42 217.748 276.42 217.733 276.42L214.279 276.189C213.843 276.163 213.507 275.78 213.539 275.344C213.565 274.908 213.937 274.572 214.384 274.604L217.838 274.835C218.273 274.866 218.609 275.244 218.578 275.68C218.552 276.1 218.2 276.42 217.785 276.42Z" fill="#231F20"/>
<path d="M216.399 288.541C216.399 288.541 216.384 288.541 216.373 288.541L212.462 288.41C212.022 288.394 211.68 288.027 211.696 287.591C211.712 287.15 212.085 286.809 212.515 286.825L216.426 286.956C216.867 286.972 217.208 287.339 217.192 287.775C217.176 288.205 216.825 288.541 216.399 288.541Z" fill="#231F20"/>
<path d="M212.72 301.066C212.688 301.066 212.657 301.066 212.625 301.06L208.709 300.599C208.273 300.546 207.964 300.152 208.011 299.717C208.063 299.281 208.457 298.966 208.893 299.018L212.809 299.48C213.245 299.533 213.554 299.927 213.507 300.362C213.46 300.766 213.119 301.066 212.72 301.066Z" fill="#231F20"/>
<path d="M75.8654 259.632C75.4822 259.632 75.1462 259.354 75.0832 258.965C75.015 258.53 75.3089 258.125 75.7394 258.052C89.1198 255.905 131.35 256.803 133.14 256.845C133.581 256.855 133.928 257.217 133.917 257.658C133.907 258.099 133.534 258.414 133.104 258.435C132.668 258.425 89.2248 257.501 75.9861 259.627C75.9441 259.632 75.9021 259.637 75.8601 259.637L75.8654 259.632Z" fill="#B4C6E5"/>
<path d="M89.902 258.43C89.818 258.43 89.7393 258.42 89.6553 258.388C89.2406 258.252 89.0096 257.805 89.1461 257.386L103.739 212.629C103.876 212.214 104.322 211.983 104.742 212.119C105.156 212.256 105.387 212.702 105.251 213.122L90.6579 257.879C90.5477 258.215 90.238 258.43 89.902 258.43Z" fill="#B4C6E5"/>
<path d="M181.98 154.07L206.567 94.132L168.962 83.8535L135.865 153.656C135.865 153.656 167.203 160.48 181.985 154.076L181.98 154.07Z" fill="#B4C6E5"/>
<path d="M186.541 143.745C186.442 143.745 186.337 143.724 186.242 143.687C185.838 143.519 185.644 143.057 185.807 142.648L205.491 94.6621L169.392 84.7984L165.822 92.3209C165.634 92.7146 165.161 92.8878 164.762 92.6988C164.363 92.5098 164.195 92.0374 164.384 91.6384L168.237 83.5123C168.4 83.1658 168.794 82.9821 169.166 83.0871L206.772 93.3655C206.993 93.4233 207.176 93.5755 207.276 93.7802C207.376 93.9849 207.386 94.2212 207.297 94.4312L187.271 143.251C187.145 143.561 186.846 143.745 186.536 143.745H186.541Z" fill="#231F20"/>
<path d="M224.714 69.9102C226.09 77.9734 226.326 86.5773 222.877 93.9948C218.221 104 206.993 110.237 195.959 109.901C184.925 109.565 174.499 103.139 168.321 93.9895C163.497 95.7376 157.901 95.2126 153.492 92.5984C149.082 89.9842 145.933 85.3279 145.151 80.2569C144.432 75.5954 146.101 70.1674 150.347 68.1097C152.741 66.9495 155.576 67.023 158.148 67.7002C162.773 68.9181 166.856 72.0783 169.203 76.2463C172.373 77.7372 176.247 75.2437 177.591 72.01C178.935 68.7763 178.499 65.1122 178.179 61.6213C177.864 58.1304 177.749 54.3718 179.607 51.3954C181.318 48.6499 184.4 47.0908 187.423 45.9254C192.295 44.0408 197.418 42.8072 202.609 42.2665C205.78 41.9358 211.822 40.7914 214.772 42.5028C217.948 44.3506 219.47 51.0226 220.625 54.2563C222.441 59.343 223.817 64.5873 224.725 69.9102H224.714Z" fill="#B4C6E5"/>
<path d="M196.809 110.71C196.515 110.71 196.221 110.71 195.932 110.694C185.229 110.368 174.583 104.347 168.006 94.9402C163.077 96.536 157.544 95.9271 153.082 93.2866C148.442 90.5359 145.182 85.7116 144.363 80.3834C143.655 75.7901 145.114 69.769 149.996 67.3962C152.935 65.9683 156.158 66.3568 158.342 66.9342C163.124 68.1941 167.266 71.3543 169.754 75.6221C170.972 76.1051 172.158 75.8583 172.956 75.5486C174.646 74.8924 176.137 73.4226 176.851 71.706C178.043 68.8346 177.733 65.5064 177.439 62.2937L177.387 61.6953C177.072 58.2149 176.904 54.2253 178.93 50.9811C180.835 47.9259 184.316 46.2776 187.129 45.191C192.053 43.2854 197.229 42.036 202.52 41.4796C203.003 41.4271 203.554 41.3588 204.148 41.2854C207.644 40.8444 212.431 40.2355 215.161 41.8208C218.016 43.4796 219.559 48.3669 220.683 51.9313C220.924 52.7029 221.15 53.4064 221.36 53.9996C223.192 59.1283 224.583 64.4408 225.491 69.79C227.208 79.8689 226.588 87.9006 223.591 94.3417C219.061 104.079 208.137 110.72 196.809 110.72V110.71ZM168.321 93.1973C168.578 93.1973 168.83 93.3233 168.977 93.549C175.24 102.83 185.586 108.793 195.98 109.108C207.008 109.444 217.764 103.093 222.153 93.6593C225.008 87.5174 225.591 79.7954 223.927 70.0472C223.029 64.7872 221.664 59.5693 219.864 54.5245C219.649 53.9208 219.418 53.1964 219.171 52.4037C218.121 49.0861 216.688 44.54 214.363 43.1909C212.095 41.8733 207.434 42.4665 204.347 42.8549C203.738 42.9337 203.176 43.0019 202.683 43.0544C197.528 43.5951 192.489 44.8077 187.696 46.6661C185.108 47.6687 181.927 49.1596 180.268 51.8158C178.505 54.6452 178.667 58.3251 178.961 61.5483L179.014 62.1415C179.329 65.5484 179.654 69.076 178.316 72.3097C177.444 74.4147 175.607 76.2206 173.528 77.029C171.901 77.6589 170.284 77.6379 168.857 76.966C168.71 76.8977 168.584 76.7822 168.5 76.6353C166.274 72.6772 162.321 69.6272 157.933 68.4671C156.006 67.9579 153.187 67.6114 150.683 68.8241C146.715 70.7559 145.287 75.9738 145.928 80.1367C146.678 85.0029 149.655 89.4072 153.886 91.9165C158.122 94.4257 163.413 94.9244 168.043 93.2446C168.132 93.2131 168.221 93.1973 168.316 93.1973H168.321Z" fill="#231F20"/>
<path d="M165.78 85.5431C165.476 85.5431 165.182 85.3647 165.051 85.0654C163.781 82.1677 160.138 80.4669 157.098 81.3541C156.678 81.4801 156.237 81.2333 156.111 80.8134C155.991 80.3934 156.232 79.9525 156.652 79.8265C160.484 78.7083 164.904 80.7714 166.505 84.425C166.683 84.8292 166.5 85.2964 166.095 85.4697C165.99 85.5169 165.885 85.5379 165.775 85.5379L165.78 85.5431Z" fill="#231F20"/>
<path d="M469.028 108.068H444.104C443.744 108.068 443.45 107.774 443.45 107.414V82.489C443.45 82.1293 443.744 81.835 444.104 81.835H464.358C464.718 81.835 465.012 82.1293 465.012 82.489C465.012 82.8487 464.718 83.143 464.358 83.143H444.758V106.76H468.374V94.2811C468.374 93.9213 468.668 93.627 469.028 93.627C469.387 93.627 469.682 93.9213 469.682 94.2811V107.414C469.682 107.774 469.387 108.068 469.028 108.068Z" fill="#231F20"/>
<path d="M456.563 103.791C456.353 103.791 456.151 103.686 456.033 103.516L446.269 89.8405C446.059 89.5462 446.125 89.1407 446.419 88.9249C446.713 88.7156 447.119 88.781 447.328 89.0753L456.563 102.005L473.05 79.0295C473.259 78.7352 473.665 78.6698 473.966 78.8791C474.26 79.0884 474.325 79.5004 474.116 79.7947L457.099 103.51C456.975 103.68 456.778 103.784 456.569 103.784L456.563 103.791Z" fill="#231F20"/>
<path d="M469.028 144.315H444.104C443.744 144.315 443.45 144.021 443.45 143.661V118.736C443.45 118.376 443.744 118.082 444.104 118.082H464.358C464.718 118.082 465.012 118.376 465.012 118.736C465.012 119.096 464.718 119.39 464.358 119.39H444.758V143.007H468.374V130.528C468.374 130.168 468.668 129.874 469.028 129.874C469.387 129.874 469.682 130.168 469.682 130.528V143.661C469.682 144.021 469.387 144.315 469.028 144.315Z" fill="#231F20"/>
<path d="M456.562 140.037C456.353 140.037 456.15 139.933 456.033 139.763L446.268 126.093C446.059 125.799 446.125 125.394 446.419 125.178C446.713 124.969 447.119 125.034 447.328 125.328L456.562 138.258L473.05 115.282C473.259 114.988 473.665 114.923 473.966 115.132C474.26 115.341 474.325 115.753 474.116 116.048L457.099 139.763C456.975 139.933 456.778 140.037 456.569 140.037H456.562Z" fill="#231F20"/>
<path d="M469.028 180.561H444.104C443.744 180.561 443.45 180.267 443.45 179.907V154.982C443.45 154.622 443.744 154.328 444.104 154.328H464.358C464.718 154.328 465.012 154.622 465.012 154.982C465.012 155.342 464.718 155.636 464.358 155.636H444.758V179.253H468.374V166.774C468.374 166.415 468.668 166.12 469.028 166.12C469.387 166.12 469.682 166.415 469.682 166.774V179.907C469.682 180.267 469.387 180.561 469.028 180.561Z" fill="#231F20"/>
<path d="M469.028 216.799H444.104C443.744 216.799 443.45 216.505 443.45 216.145V191.22C443.45 190.861 443.744 190.566 444.104 190.566H464.358C464.718 190.566 465.012 190.861 465.012 191.22C465.012 191.58 464.718 191.874 464.358 191.874H444.758V215.491H468.374V203.012C468.374 202.653 468.668 202.358 469.028 202.358C469.387 202.358 469.682 202.653 469.682 203.012V216.145C469.682 216.505 469.387 216.799 469.028 216.799Z" fill="#231F20"/>
<path d="M510.769 108.068H485.845C485.486 108.068 485.191 107.774 485.191 107.414V82.489C485.191 82.1293 485.486 81.835 485.845 81.835H506.1C506.46 81.835 506.754 82.1293 506.754 82.489C506.754 82.8487 506.46 83.143 506.1 83.143H486.499V106.76H510.115V94.2811C510.115 93.9213 510.41 93.627 510.769 93.627C511.129 93.627 511.423 93.9213 511.423 94.2811V107.414C511.423 107.774 511.129 108.068 510.769 108.068Z" fill="#231F20"/>
<path d="M498.304 103.791C498.095 103.791 497.892 103.686 497.775 103.516L488.01 89.8405C487.801 89.5462 487.866 89.1407 488.161 88.9249C488.455 88.7156 488.861 88.781 489.07 89.0753L498.304 102.005L514.792 79.0295C515.001 78.7352 515.407 78.6698 515.707 78.8791C516.002 79.0884 516.067 79.5004 515.858 79.7947L498.841 103.51C498.716 103.68 498.52 103.784 498.311 103.784L498.304 103.791Z" fill="#231F20"/>
<path d="M510.769 144.315H485.845C485.486 144.315 485.191 144.021 485.191 143.661V118.736C485.191 118.376 485.486 118.082 485.845 118.082H506.1C506.459 118.082 506.754 118.376 506.754 118.736C506.754 119.096 506.459 119.39 506.1 119.39H486.499V143.007H510.115V130.528C510.115 130.168 510.41 129.874 510.769 129.874C511.129 129.874 511.423 130.168 511.423 130.528V143.661C511.423 144.021 511.129 144.315 510.769 144.315Z" fill="#231F20"/>
<path d="M498.304 140.037C498.095 140.037 497.892 139.933 497.774 139.763L488.01 126.093C487.801 125.799 487.866 125.394 488.161 125.178C488.455 124.969 488.86 125.034 489.07 125.328L498.304 138.258L514.791 115.282C515.001 114.988 515.406 114.923 515.707 115.132C516.001 115.341 516.067 115.753 515.858 116.048L498.84 139.763C498.716 139.933 498.52 140.037 498.311 140.037H498.304Z" fill="#231F20"/>
<path d="M510.769 180.56H485.845C485.486 180.56 485.191 180.266 485.191 179.906V154.981C485.191 154.621 485.486 154.327 485.845 154.327H506.1C506.459 154.327 506.754 154.621 506.754 154.981C506.754 155.341 506.459 155.635 506.1 155.635H486.499V179.252H510.115V166.773C510.115 166.414 510.41 166.119 510.769 166.119C511.129 166.119 511.423 166.414 511.423 166.773V179.906C511.423 180.266 511.129 180.56 510.769 180.56Z" fill="#231F20"/>
<path d="M498.304 176.277C498.095 176.277 497.892 176.172 497.774 176.002L488.01 162.326C487.801 162.032 487.866 161.626 488.161 161.417C488.455 161.208 488.86 161.273 489.07 161.568L498.304 174.498L514.791 151.522C515.001 151.227 515.406 151.162 515.707 151.371C516.001 151.581 516.067 151.993 515.858 152.287L498.84 176.002C498.716 176.172 498.52 176.277 498.311 176.277H498.304Z" fill="#231F20"/>
<path d="M510.769 216.799H485.845C485.486 216.799 485.191 216.505 485.191 216.145V191.22C485.191 190.861 485.486 190.566 485.845 190.566H506.1C506.46 190.566 506.754 190.861 506.754 191.22C506.754 191.58 506.46 191.874 506.1 191.874H486.499V215.491H510.115V203.012C510.115 202.653 510.41 202.358 510.769 202.358C511.129 202.358 511.423 202.653 511.423 203.012V216.145C511.423 216.505 511.129 216.799 510.769 216.799Z" fill="#231F20"/>
</g>
<defs>
<clipPath id="clip0_993_339">
<rect width="542" height="337" fill="white" transform="translate(0 0.75)"/>
</clipPath>
</defs>
</svg>
