<svg width="365" height="292" viewBox="0 0 365 292" fill="none" xmlns="http://www.w3.org/2000/svg">
<g clip-path="url(#clip0_2054_543)">
<path d="M206.039 43.0141C202.945 40.032 201.061 36.7907 203.031 33.6172C205.007 30.4438 209.973 29.7029 212.784 32.1601C210.696 30.5179 208.559 28.8077 207.287 26.48C206.02 24.1463 205.847 21.0037 207.595 19.0095C209.133 17.2561 211.764 16.8177 214.044 17.324C215.168 17.5709 216.224 18.0155 217.243 18.5526C216.255 17.0708 215.983 14.9717 216.823 13.3479C218.25 10.5758 221.739 9.39654 224.84 9.74229C227.934 10.0942 230.745 11.6562 233.456 13.1936C251.615 23.4177 287.45 54.9237 287.45 54.9237C288.395 60.0914 269.532 90.9738 262.38 97.9258C257.754 96.5366 223.061 68.7288 209.918 57.4489C207.713 55.5597 205.446 53.5531 204.328 50.8736C203.21 48.1941 203.624 44.6317 206.039 43.0202V43.0141Z" fill="#EDEDED"/>
<path d="M262.38 98.5373C262.318 98.5373 262.263 98.5311 262.201 98.5126C257.42 97.0741 222.765 69.2848 209.516 57.9184C207.49 56.1835 204.97 54.0165 203.76 51.1147C202.691 48.5525 202.852 44.9777 205.106 42.965C201.561 39.3532 200.715 36.1859 202.506 33.3026C203.544 31.6356 205.366 30.4935 207.503 30.1786C208.145 30.086 208.775 30.0674 209.393 30.123C208.374 29.1475 207.435 28.0547 206.749 26.789C205.502 24.4923 205.088 20.9546 207.132 18.6146C208.997 16.4846 211.993 16.2438 214.179 16.7316C214.766 16.8612 215.359 17.0464 215.977 17.2934C215.544 15.8672 215.637 14.3175 216.273 13.0765C217.922 9.87223 221.795 8.79178 224.908 9.1437C228.175 9.51414 231.146 11.1873 233.759 12.6691C251.763 22.813 287.493 54.1585 287.852 54.4733C287.957 54.566 288.025 54.6894 288.049 54.8253C289.081 60.4868 269.65 91.7274 262.8 98.3768C262.683 98.4879 262.528 98.5497 262.368 98.5497L262.38 98.5373ZM208.676 31.3146C208.349 31.3146 208.022 31.3393 207.688 31.3887C205.909 31.6542 204.402 32.5864 203.556 33.9447C202.012 36.4267 202.938 39.1679 206.465 42.5698C206.601 42.6995 206.669 42.8847 206.65 43.0699C206.632 43.2551 206.533 43.4218 206.379 43.5268C204.204 44.9839 203.914 48.2808 204.896 50.6331C205.996 53.2694 208.392 55.3254 210.319 56.98C224.55 69.1922 256.766 94.8514 262.226 97.2099C269.613 89.7332 287.259 60.6227 286.87 55.2327C284.127 52.8372 250.404 23.4427 233.159 13.731C230.646 12.311 227.798 10.6996 224.778 10.36C222.178 10.0698 218.756 10.965 217.379 13.6322C216.687 14.9781 216.841 16.8242 217.768 18.2133C217.922 18.4479 217.904 18.7566 217.712 18.9666C217.521 19.1765 217.212 19.232 216.965 19.1024C215.866 18.5282 214.871 18.1454 213.914 17.9293C211.604 17.4169 209.306 18.0034 208.065 19.4234C206.409 21.3189 206.78 24.2577 207.836 26.1963C208.966 28.277 210.912 29.9007 212.716 31.3331C212.882 31.4504 213.037 31.5739 213.191 31.7097C213.444 31.932 213.475 32.3086 213.259 32.5679C213.043 32.8272 212.666 32.8643 212.401 32.6605C212.259 32.5494 212.116 32.4383 211.974 32.321C211.054 31.6727 209.899 31.3269 208.676 31.3269V31.3146Z" fill="#3D3D3D"/>
<path d="M238.545 32.9689C238.434 32.9689 238.323 32.938 238.224 32.8763C231.578 28.7829 224.92 24.5043 218.435 20.1516C218.151 19.9602 218.077 19.5775 218.268 19.2935C218.46 19.0095 218.843 18.9354 219.127 19.1268C225.593 23.4671 232.239 27.7395 238.873 31.8205C239.163 31.9996 239.256 32.3824 239.076 32.6726C238.959 32.8639 238.755 32.9689 238.551 32.9689H238.545Z" fill="#3D3D3D"/>
<path d="M230.139 45.4284C230.016 45.4284 229.892 45.3914 229.781 45.3111L212.641 33.0495C212.364 32.8519 212.302 32.463 212.499 32.1851C212.697 31.9073 213.086 31.8456 213.364 32.0431L230.504 44.3047C230.782 44.5023 230.843 44.8913 230.646 45.1691C230.522 45.3358 230.337 45.4284 230.145 45.4284H230.139Z" fill="#3D3D3D"/>
<path d="M222.104 55.6523C221.986 55.6523 221.863 55.6152 221.758 55.5473C216.526 52.0034 211.4 48.1755 206.521 44.1686C206.255 43.9525 206.218 43.5635 206.434 43.2981C206.65 43.0326 207.039 42.9955 207.305 43.2116C212.154 47.2 217.249 51.0032 222.45 54.5224C222.734 54.7138 222.808 55.0966 222.616 55.3806C222.499 55.5597 222.301 55.6523 222.104 55.6523Z" fill="#3D3D3D"/>
<path d="M296.264 291.098L296.319 207.193C314.064 213.997 344.594 212.151 354.736 196.932C396.779 133.84 286.524 50.7686 286.524 50.7686L255.185 96.4131L270.014 117.25C259.335 113.608 246.871 112.077 231.609 110.86C230.67 112.731 229.435 114.454 227.916 115.972C224.611 119.269 220.257 121.529 215.791 122.776C210.826 124.159 205.471 124.437 200.381 123.628C195.082 122.788 189.56 120.442 186.101 116.188C184.31 113.984 183.1 111.373 182.26 108.668C139.537 111.533 114.684 124.789 82.5169 137.149C69.2623 142.243 57.5271 116.46 57.5271 116.46C53.1233 134.84 37.1141 145.521 23.631 153.245C49.4854 244.633 131.897 195.697 131.897 195.697L111.67 291.098H296.264Z" fill="#07E494"/>
<path d="M131.496 197.13C131.434 197.13 131.366 197.118 131.298 197.099C130.977 196.994 130.798 196.642 130.909 196.321C131.545 194.413 132.546 191.073 133.515 187.844C134.485 184.603 135.492 181.257 136.134 179.33C136.239 179.009 136.591 178.83 136.913 178.941C137.234 179.046 137.413 179.398 137.302 179.719C136.665 181.627 135.665 184.967 134.695 188.196C133.725 191.437 132.719 194.784 132.076 196.71C131.99 196.969 131.749 197.13 131.49 197.13H131.496Z" fill="#3D3D3D"/>
<path d="M304.732 173.113C304.448 173.113 304.194 172.915 304.133 172.631C304.077 172.372 297.993 146.348 269.582 117.695C269.341 117.454 269.341 117.059 269.582 116.824C269.823 116.583 270.218 116.583 270.453 116.824C299.136 145.756 305.269 172.1 305.331 172.366C305.405 172.699 305.195 173.026 304.861 173.1C304.818 173.113 304.769 173.113 304.726 173.113H304.732Z" fill="#3D3D3D"/>
<path d="M61.023 123.123C51.4928 99.3035 44.2355 74.2802 30.4806 52.6218C29.27 50.714 27.9421 48.7754 25.9965 47.627C24.051 46.4786 21.3148 46.3552 19.7028 47.9357C18.0722 49.541 18.1463 52.1587 18.4737 54.4246C19.5175 61.5371 22.1424 69.6374 25.8792 75.7744C25.8792 75.7744 16.2193 72.8108 12.5937 81.4977C12.5937 81.4977 6.83112 79.8801 4.29262 91.2773C4.29262 91.2773 -2.58173 97.8403 2.42117 105.786C6.02201 111.497 10.0305 111.861 10.0305 111.861C10.0305 111.861 16.8307 141.787 24.5142 154.598L61.0106 123.129L61.023 123.123Z" fill="#EDEDED"/>
<path d="M24.5265 155.209C24.3165 155.209 24.1127 155.104 23.9954 154.906C16.8307 142.966 10.3764 115.998 9.53639 112.386C8.33199 112.114 4.96585 110.954 1.9147 106.107C-2.89055 98.482 2.77322 91.9931 3.74292 90.9682C4.82379 86.2142 6.60259 83.0655 9.02375 81.6208C10.364 80.8181 11.5623 80.7626 12.2293 80.8181C15.2619 74.2243 21.7719 74.428 24.6501 74.8787C21.4198 69.1492 18.9184 61.6478 17.8684 54.5106C17.5595 52.393 17.3681 49.3677 19.2704 47.4908C21.1727 45.6201 24.2548 45.8732 26.3115 47.0895C28.3621 48.2996 29.7518 50.3247 30.9994 52.288C41.2152 68.3713 47.9598 86.5661 54.476 104.162C56.7612 110.33 59.1206 116.702 61.5974 122.888C61.7271 123.203 61.5726 123.561 61.2515 123.691C60.9365 123.82 60.5782 123.666 60.4485 123.345C57.9656 117.146 55.6001 110.762 53.3148 104.588C46.8172 87.0539 40.1034 68.9208 29.9556 52.9486C28.7388 51.0347 27.4974 49.2257 25.6815 48.1514C24.0695 47.2006 21.5804 46.9536 20.1413 48.3675C18.6342 49.8493 18.8195 52.4794 19.0913 54.3254C20.1907 61.8269 22.9268 69.7173 26.4165 75.4406C26.5524 75.6567 26.5339 75.9345 26.3795 76.1382C26.225 76.342 25.9595 76.4284 25.7124 76.3481C25.3418 76.237 16.5466 73.6624 13.1805 81.7195C13.0631 82.0097 12.7419 82.1579 12.4455 82.0776C12.3961 82.0653 11.1608 81.7566 9.62904 82.6889C8.16523 83.5841 6.15789 85.8191 4.91644 91.3942C4.89173 91.5115 4.82997 91.6227 4.73732 91.7091C4.47173 91.9622 -1.71085 98.0251 2.95851 105.44C6.32466 110.787 10.0676 111.225 10.1046 111.231C10.3702 111.256 10.5864 111.454 10.6481 111.707C10.7161 112.003 17.5101 141.682 25.0577 154.264C25.2306 154.554 25.138 154.937 24.8477 155.11C24.7489 155.172 24.6377 155.197 24.5327 155.197L24.5265 155.209Z" fill="#3D3D3D"/>
<path d="M24.5204 154.591C29.585 163.043 66.1494 135.946 61.0168 123.122L24.5204 154.591Z" fill="#EDEDED"/>
<path d="M27.9668 156.814C26.1077 156.814 24.7551 156.178 23.9954 154.912C23.8224 154.622 23.9151 154.239 24.2054 154.067C24.4957 153.894 24.8786 153.986 25.0515 154.276C26.293 156.345 30.1718 155.956 35.6997 153.215C47.7499 147.244 63.8023 131.729 60.4486 123.351C60.3189 123.036 60.4733 122.678 60.7944 122.548C61.1094 122.425 61.4677 122.573 61.5974 122.894C65.2538 132.025 48.9913 148.01 36.2494 154.326C32.9018 155.987 30.1039 156.82 27.9668 156.82V156.814Z" fill="#EDEDED"/>
<path d="M19.9066 108.694C17.7695 108.694 15.5584 107.514 14.0452 105.502C12.5134 103.464 11.8278 100.927 11.3152 98.488C10.6605 95.3639 9.9811 91.2459 10.5926 87.1155C10.8087 85.646 11.1855 84.2322 11.7228 82.9109C11.8525 82.5961 12.2108 82.4417 12.5258 82.5714C12.8408 82.701 12.9952 83.0591 12.8655 83.374C12.3714 84.6026 12.0131 85.9239 11.8155 87.2945C11.2411 91.2335 11.8896 95.2096 12.5258 98.2349C13.0075 100.532 13.6437 102.915 15.0334 104.761C16.2563 106.385 18.4984 107.823 20.7466 107.385C21.8336 107.175 22.8466 106.385 23.3963 105.323C23.8471 104.452 23.9089 103.545 23.563 102.773C23.421 102.464 23.563 102.094 23.8718 101.958C24.1868 101.816 24.5512 101.958 24.6871 102.266C25.1874 103.384 25.1195 104.674 24.4833 105.884C23.7607 107.274 22.4204 108.311 20.9751 108.589C20.623 108.657 20.2648 108.694 19.9004 108.694H19.9066Z" fill="#3D3D3D"/>
<path d="M37.4599 111.725C35.8294 111.725 34.1432 110.879 33.0623 109.682C31.6973 108.157 31.0241 106.218 30.3756 104.347C30.2706 104.039 30.1656 103.736 30.0544 103.434C29.3997 101.618 28.4115 99.3957 26.5524 98.3585C25.5024 97.7719 24.2671 97.5929 22.9577 97.4077C21.4692 97.1916 19.9313 96.9755 18.6157 96.105C17.2631 95.2097 16.4046 93.728 16.1946 91.9313C15.9413 89.7519 16.6887 87.4366 18.1401 85.8993C21.1542 82.7012 25.8545 82.4912 28.3868 82.6518C32.84 82.9358 37.1264 84.4422 40.7828 87.0045C41.0608 87.202 41.1287 87.5848 40.9311 87.8626C40.7334 88.1405 40.3505 88.2084 40.0726 88.0108C36.6014 85.5783 32.5373 84.1459 28.3065 83.8804C25.9903 83.7322 21.7039 83.9113 19.0357 86.739C17.8251 88.0232 17.2075 89.9556 17.4175 91.7831C17.5843 93.2155 18.2513 94.3824 19.2951 95.0739C20.3822 95.7901 21.7163 95.9815 23.1307 96.1852C24.4957 96.3828 25.9039 96.5865 27.1515 97.2842C29.3688 98.5252 30.4868 101.001 31.2094 103.02C31.3206 103.329 31.4256 103.637 31.5368 103.946C32.1482 105.706 32.7782 107.521 33.9826 108.86C35.2735 110.305 37.6699 111.083 39.1708 109.947C39.4426 109.743 39.8317 109.793 40.0355 110.064C40.2393 110.336 40.1899 110.725 39.9181 110.929C39.1832 111.484 38.3308 111.725 37.4538 111.725H37.4599Z" fill="#3D3D3D"/>
<path d="M14.9284 111.626C14.8543 111.626 14.7802 111.626 14.6999 111.626C13.1249 111.558 11.5129 110.805 10.1602 109.515C8.92494 108.336 8.04789 106.86 7.34995 105.57C5.06468 101.359 3.94057 97.5557 3.89734 93.9439C3.89734 93.6043 4.1691 93.3203 4.5088 93.3203H4.51498C4.85468 93.3203 5.12644 93.592 5.13262 93.9315C5.17586 97.3396 6.25673 100.951 8.437 104.983C9.0917 106.187 9.90699 107.564 11.0187 108.626C12.149 109.712 13.477 110.336 14.7555 110.391C16.1637 110.453 17.5163 109.756 18.0969 108.657C18.2575 108.354 18.6281 108.243 18.9307 108.397C19.2334 108.558 19.3445 108.928 19.1901 109.231C18.4181 110.682 16.7257 111.626 14.9284 111.626Z" fill="#3D3D3D"/>
<path d="M10.4443 112.188C10.1911 112.188 9.9502 112.027 9.86373 111.774C9.75256 111.453 9.91932 111.101 10.2467 110.99C10.8149 110.793 11.3646 110.478 11.8217 110.083C12.0811 109.86 12.4702 109.891 12.6925 110.144C12.9149 110.404 12.884 110.793 12.6308 111.015C12.044 111.521 11.3831 111.904 10.6543 112.157C10.5864 112.182 10.5184 112.194 10.4505 112.194L10.4443 112.188Z" fill="#3D3D3D"/>
<path d="M168.085 32.8338C165.17 28.4503 162.767 23.0357 164.435 18.0409C166.195 12.7683 172.841 9.76152 177.961 11.9163C175.805 8.16245 174.058 4.16786 172.754 0.0374448C186.769 -0.363866 201.184 2.11191 213.167 9.39108C225.149 16.6702 234.376 29.222 235.488 43.2062C235.951 49.0221 234.926 55.1652 231.467 59.8575C227.829 64.7844 221.931 67.5812 215.989 69.063C208.25 70.9954 199.72 70.9399 192.673 67.2108C187.917 64.6918 184.032 60.302 182.352 55.1591C181.926 53.8502 181.642 52.4981 181.537 51.1274C181.457 50.1396 181.957 48.3183 181.58 47.4477C181.129 46.4167 179.202 45.3856 178.356 44.6324C177.146 43.5581 175.978 42.4406 174.86 41.2737C172.359 38.6683 170.086 35.8467 168.091 32.84L168.085 32.8338Z" fill="#231F20"/>
<path d="M181.018 33.3833C180.858 33.3833 180.703 33.3215 180.58 33.1981C177.504 30.0925 175.231 26.2338 173.996 22.0416C173.897 21.7144 174.088 21.3686 174.416 21.276C174.743 21.1773 175.089 21.3687 175.182 21.6959C176.355 25.6905 178.523 29.3702 181.457 32.3275C181.698 32.5683 181.692 32.9635 181.457 33.1981C181.339 33.3154 181.179 33.3771 181.024 33.3771L181.018 33.3833Z" fill="#9D9D9D"/>
<path d="M182.309 109.114L190.147 108.262L188.078 81.4852C188.078 81.4852 194.594 48.8494 219.683 73.2182L224.278 109.577L231.653 110.503C231.653 110.503 228.663 127.463 207.608 127.414C189.721 127.377 181.994 121.339 182.309 109.114Z" fill="#EDEDED"/>
<path d="M231.659 111.121C231.659 111.121 231.609 111.121 231.578 111.121L224.204 110.195C223.926 110.158 223.704 109.941 223.666 109.657L219.096 73.5148C211.727 66.4023 205.323 63.624 200.06 65.2539C191.864 67.7976 188.949 80.3988 188.702 81.5286L190.765 108.219C190.789 108.552 190.549 108.842 190.215 108.88L182.377 109.732C182.031 109.769 181.735 109.522 181.698 109.182C181.661 108.842 181.908 108.54 182.247 108.503L189.492 107.713L187.473 81.5286C187.473 81.4731 187.473 81.4175 187.485 81.3619C187.602 80.7754 190.462 66.9456 199.702 64.0747C205.465 62.2842 212.333 65.2107 220.121 72.78C220.22 72.8788 220.288 73.0085 220.307 73.1443L224.84 109.028L231.739 109.898C232.079 109.941 232.32 110.25 232.276 110.59C232.239 110.905 231.974 111.133 231.665 111.133L231.659 111.121Z" fill="#3D3D3D"/>
<path d="M208.071 74.4654C204.309 77.6882 199.838 80.1825 194.971 81.1086C190.104 82.0286 184.841 81.2815 180.716 78.5402C173.81 73.9591 171.309 64.661 172.526 56.4619C173.742 48.2628 178.004 40.8787 182.241 33.7539C182.241 33.7539 198.405 46.1513 213.253 48.1517C215.143 52.9736 215.365 57.6721 214.266 62.284C214.266 62.284 217.564 59.2896 220.591 61.2653C223.864 63.4015 225.186 68.0135 223.605 71.5883C222.03 75.163 217.935 77.361 214.05 76.9782C211.851 76.7621 209.837 76.3361 208.071 74.4654Z" fill="#EDEDED"/>
<path d="M190.993 82.1026C187.108 82.1026 183.384 81.053 180.376 79.0588C173.835 74.7185 170.512 65.8094 171.92 56.3755C173.205 47.7504 177.924 39.8167 181.716 33.4452C181.809 33.2908 181.957 33.1859 182.13 33.155C182.303 33.1241 182.482 33.1612 182.624 33.2723C182.785 33.3958 198.831 45.5895 213.339 47.5466C213.562 47.5775 213.753 47.7257 213.834 47.9356C215.495 52.1648 215.946 56.5175 215.192 60.901C216.557 60.1231 218.781 59.3513 220.936 60.759C224.42 63.0311 225.871 68.0073 224.179 71.8476C222.524 75.6014 218.25 78.0216 213.994 77.6017C212.098 77.4165 209.942 77.0646 208.04 75.3112C204.001 78.6698 199.535 80.8801 195.088 81.726C193.723 81.9853 192.346 82.1149 190.993 82.1149V82.1026ZM182.426 34.6614C178.752 40.8416 174.348 48.4295 173.137 56.5545C172.044 63.9016 174.07 73.3911 181.055 78.0277C184.848 80.5467 189.875 81.4482 194.853 80.5035C199.245 79.67 203.673 77.4227 207.663 74.0023C207.91 73.7862 208.287 73.8047 208.516 74.0455C210.054 75.6693 211.795 76.1385 214.111 76.3669C217.848 76.7374 221.597 74.6197 223.043 71.3413C224.506 68.032 223.253 63.7411 220.257 61.7839C217.669 60.0984 214.803 62.6359 214.686 62.7409C214.488 62.9199 214.192 62.9508 213.957 62.815C213.722 62.6791 213.605 62.4075 213.673 62.142C214.766 57.5485 214.482 53.1465 212.814 48.7135C199.622 46.7872 185.391 36.8223 182.433 34.6614H182.426Z" fill="#3D3D3D"/>
<path d="M211.184 70.718C210.9 70.718 210.647 70.5266 210.585 70.2426C210.511 69.9092 210.715 69.5758 211.048 69.5017C212.864 69.0819 214.593 68.3781 216.187 67.4087C216.477 67.2297 216.86 67.3223 217.033 67.6125C217.212 67.9027 217.119 68.2854 216.829 68.4583C215.124 69.4956 213.272 70.2488 211.326 70.6995C211.277 70.7118 211.233 70.718 211.184 70.718Z" fill="#3D3D3D"/>
</g>
<defs>
<clipPath id="clip0_2054_543">
<rect width="364.297" height="291.099" fill="white"/>
</clipPath>
</defs>
</svg>
