<?xml version="1.0" encoding="utf-8"?>
<!-- Generator: Adobe Illustrator 27.7.0, SVG Export Plug-In . SVG Version: 6.00 Build 0)  -->
<svg version="1.1" id="Layer_1" xmlns="http://www.w3.org/2000/svg" xmlns:xlink="http://www.w3.org/1999/xlink" x="0px" y="0px"
	 viewBox="0 0 29 29" style="enable-background:new 0 0 29 29;" xml:space="preserve">
<style type="text/css">
	.st0{fill:#252525;}
</style>
<path class="st0" d="M5.2,23.5H0.7V10h4.5V23.5L5.2,23.5z M5.2,8.4H0.7V4.6h4.5V8.4z M22.6,23.5H18v-7.2c0.1-1.6-1.3-2.6-2.3-2.5
	c-0.6,0.1-2.5,0.3-2.9,2.8v7H8.3V10.2h4.3v2.2c1.9-2.5,3.7-2.5,5.4-2.5c2.1,0,3.5,1.3,4.1,2.6c0.3,0.6,0.4,0.8,0.4,2.7v8.3
	C22.5,23.5,22.6,23.5,22.6,23.5z"/>
</svg>
