<svg width="41" height="41" viewBox="0 0 41 41" fill="none" xmlns="http://www.w3.org/2000/svg">
<path d="M20.4654 0.138672C9.35883 0.138672 0.354492 9.14301 0.354492 20.251C0.354492 31.359 9.35883 40.362 20.4654 40.362C31.572 40.362 40.5764 31.3576 40.5764 20.251C40.5764 9.1444 31.5734 0.138672 20.4654 0.138672ZM31.7719 17.5854C29.2505 17.6131 27.201 16.657 25.6455 14.6644C25.5761 14.5756 25.5081 14.4868 25.3971 14.3425C25.3888 14.5243 25.379 14.6436 25.379 14.7629C25.379 18.2833 25.379 21.8038 25.379 25.3242C25.379 27.833 24.5007 29.9769 22.6315 31.6601C20.8054 33.3045 18.6435 33.9927 16.1874 33.7527C12.6725 33.4099 9.64885 30.6943 8.92867 27.0948C8.07666 22.8348 10.8547 18.4499 15.1009 17.4619C15.5477 17.3578 16.007 17.2954 16.4649 17.2523C16.8174 17.219 17.1754 17.2454 17.5597 17.2454V21.2834C15.6087 21.1904 14.1295 21.937 13.2678 23.6785C12.5462 25.1369 12.6739 26.6036 13.6078 27.9385C14.525 29.2484 15.8252 29.8534 17.4279 29.7271C19.4067 29.5717 20.9969 28.2257 21.3965 26.3816C21.4687 26.0471 21.4909 25.6961 21.4923 25.3519C21.5062 19.1992 21.5117 13.0478 21.52 6.89505C21.52 6.78127 21.52 6.66887 21.52 6.53149H25.3929C26.0895 10.3003 28.3292 12.4622 32.1354 13.0575C32.141 13.1366 32.1535 13.2365 32.1535 13.3364C32.1535 14.6172 32.1424 15.8994 32.1618 17.1802C32.166 17.491 32.0633 17.5798 31.7733 17.5826L31.7719 17.5854Z" fill="#323232"/>
</svg>
