<svg width="41" height="41" viewBox="0 0 41 41" fill="none" xmlns="http://www.w3.org/2000/svg">
<path d="M20.2581 23.826C18.2932 23.8204 16.6864 22.208 16.6877 20.2459C16.6891 18.2727 18.3099 16.663 20.2859 16.6699C22.2466 16.6783 23.8521 18.299 23.8438 20.2625C23.8354 22.226 22.2188 23.8329 20.2567 23.826H20.2581Z" fill="#323232"/>
<path d="M29.0626 17.5369C29.0404 16.6141 29.0432 15.6886 28.8836 14.7727C28.6074 13.1742 27.5376 12.0405 25.9598 11.6838C24.9802 11.4632 23.9825 11.4729 22.9903 11.4591C21.1781 11.4355 19.3658 11.4382 17.5536 11.4591C16.6308 11.4688 15.7025 11.4618 14.7894 11.6394C13.22 11.9447 12.1723 12.8314 11.7422 14.4008C11.5049 15.2653 11.5049 16.1534 11.4882 17.0359C11.4605 18.5027 11.4619 19.9694 11.466 21.4361C11.4702 22.7682 11.4397 24.1032 11.609 25.4283C11.8351 27.1906 12.8301 28.4215 14.5979 28.8211C15.5776 29.0417 16.5753 29.0292 17.5688 29.0417C19.3644 29.0653 21.1614 29.0625 22.9584 29.0417C23.8812 29.032 24.8081 29.0348 25.7226 28.8641C26.9992 28.6268 27.9872 27.9899 28.5506 26.7841C28.8697 26.0986 28.9696 25.3631 29.0085 24.6166C29.0834 23.1679 29.0723 21.7164 29.0681 20.265C29.0681 19.3547 29.0848 18.4444 29.064 17.5355L29.0626 17.5369ZM20.24 25.7669C17.2108 25.7725 14.7062 23.247 14.7478 20.1692C14.7894 17.1747 17.2802 14.6908 20.3552 14.7283C23.3344 14.7644 25.7822 17.2247 25.7822 20.2497C25.7822 23.2747 23.3317 25.76 20.2386 25.7669H20.24ZM25.9945 15.8162C25.2771 15.8037 24.6916 15.207 24.7027 14.5035C24.7151 13.7847 25.2952 13.2241 26.0223 13.2297C26.748 13.2352 27.2948 13.8014 27.2892 14.5424C27.2836 15.2445 26.6897 15.8301 25.9931 15.8162H25.9945Z" fill="#323232"/>
<path d="M20.2692 0.138672C9.16255 0.138672 0.158203 9.14301 0.158203 20.2496C0.158203 31.3562 9.16255 40.3606 20.2692 40.3606C31.3758 40.3606 40.3801 31.3562 40.3801 20.2496C40.3801 9.14301 31.3771 0.138672 20.2692 0.138672ZM30.9886 23.6327C30.972 24.7733 30.9359 25.9181 30.5487 27.0157C29.8216 29.0805 28.3521 30.2933 26.2401 30.7443C24.9982 31.0107 23.7299 30.9802 22.4699 30.9857C20.6036 30.9941 18.7358 30.9968 16.8695 30.9691C15.7358 30.9524 14.5993 30.915 13.5086 30.5306C11.4355 29.7993 10.2269 28.3256 9.76894 26.2026C9.5608 25.2382 9.54831 24.2557 9.53998 23.2788C9.52333 21.1377 9.52333 18.9952 9.54831 16.8541C9.56218 15.7204 9.60104 14.5839 9.98402 13.4932C10.7125 11.4201 12.1848 10.2018 14.3093 9.75219C15.5512 9.48992 16.8195 9.52739 18.0795 9.51074C18.8094 9.50102 19.5379 9.50935 20.2678 9.50935C21.7192 9.51351 23.1693 9.4927 24.6194 9.56069C25.8918 9.62036 27.1268 9.83267 28.2258 10.5237C29.6218 11.4007 30.4405 12.6815 30.7652 14.2842C31.0164 15.5289 30.9983 16.7944 31.0039 18.0558C31.0122 19.9152 31.015 21.7746 30.9872 23.6341L30.9886 23.6327Z" fill="#323232"/>
</svg>
