<svg width="42" height="41" viewBox="0 0 42 41" fill="none" xmlns="http://www.w3.org/2000/svg">
<path d="M21.0611 0.138672C9.95454 0.138672 0.950195 9.14301 0.950195 20.2496C0.950195 31.3562 9.95454 40.3606 21.0611 40.3606C32.1677 40.3606 41.1721 31.3562 41.1721 20.2496C41.1721 9.14301 32.1691 0.138672 21.0611 0.138672ZM15.5356 29.2082H10.9495V15.207H15.5356V29.2082ZM15.5356 13.5432H10.9495V9.6273H15.5356V13.5432ZM33.0544 29.2082H28.4753V21.7261C28.5655 20.0887 27.2028 18.991 26.1399 19.1132C25.5571 19.1798 23.6324 19.4184 23.2494 22.0119V29.2082H18.6703V15.4859H23.0038V17.72C24.9326 15.1639 26.6949 15.1639 28.4864 15.1639C30.5858 15.1639 31.979 16.4725 32.6215 17.8171C32.9309 18.4624 33.0558 18.6802 33.0558 20.5591V29.2096L33.0544 29.2082Z" fill="#323232"/>
</svg>
