<svg width="17" height="18" viewBox="0 0 17 18" fill="none" xmlns="http://www.w3.org/2000/svg">
<path d="M1.80591 7.63821V6.88821H1.05591V7.63821H1.80591ZM14.7977 7.63821H15.5477V6.88821H14.7977V7.63821ZM14.7977 16.9181V17.6681C15.2119 17.6681 15.5477 17.3323 15.5477 16.9181H14.7977ZM1.80591 16.9181H1.05591C1.05591 17.3323 1.3917 17.6681 1.80591 17.6681V16.9181ZM0.87793 4.85425V4.10425C0.463716 4.10425 0.12793 4.44004 0.12793 4.85425H0.87793ZM15.7257 4.85425H16.4757C16.4757 4.44004 16.1399 4.10425 15.7257 4.10425V4.85425ZM15.7257 7.63821V8.38821C16.1399 8.38821 16.4757 8.05242 16.4757 7.63821H15.7257ZM0.87793 7.63821H0.12793C0.12793 8.05242 0.463716 8.38821 0.87793 8.38821L0.87793 7.63821ZM8.17737 4.71503L7.45294 4.52088L7.25879 5.24532L7.98322 5.43947L8.17737 4.71503ZM12.9993 1.93107L13.6488 1.55607L12.9993 1.93107ZM8.35964 4.71503L8.55379 5.43947L9.27822 5.24532L9.08407 4.52088L8.35964 4.71503ZM3.53769 1.93107L2.88817 1.55607L3.53769 1.93107ZM1.80591 8.38821H14.7977V6.88821H1.80591V8.38821ZM14.0477 7.63821V16.9181H15.5477V7.63821H14.0477ZM14.7977 16.1681H1.80591V17.6681H14.7977V16.1681ZM2.55591 16.9181V7.63821H1.05591V16.9181H2.55591ZM0.87793 5.60425H15.7257V4.10425H0.87793V5.60425ZM14.9757 4.85425V7.63821H16.4757V4.85425H14.9757ZM15.7257 6.88821H0.87793V8.38821H15.7257V6.88821ZM1.62793 7.63821V4.85425H0.12793V7.63821H1.62793ZM8.90181 4.90918C9.11061 4.13008 9.86774 2.9653 10.7205 2.29587C11.1471 1.961 11.4956 1.83127 11.7294 1.83154C11.8894 1.83173 12.1086 1.88837 12.3498 2.30607L13.6488 1.55607C13.194 0.768275 12.5262 0.332482 11.7312 0.331544C11.01 0.330694 10.3355 0.691135 9.79434 1.11597C8.71156 1.96593 7.75371 3.39863 7.45294 4.52088L8.90181 4.90918ZM12.3498 2.30607C12.591 2.72383 12.5304 2.94208 12.4506 3.08073C12.3339 3.28338 12.0474 3.5203 11.5441 3.72231C10.538 4.12615 9.15068 4.19942 8.37152 3.9906L7.98322 5.43947C9.10561 5.74027 10.8253 5.62712 12.1028 5.11436C12.7414 4.85807 13.3907 4.45414 13.7506 3.82913C14.1472 3.14011 14.1037 2.34389 13.6488 1.55607L12.3498 2.30607ZM9.08407 4.52088C8.78331 3.39863 7.82546 1.96593 6.74267 1.11597C6.20147 0.691135 5.527 0.330694 4.80583 0.331544C4.01079 0.332482 3.34301 0.768275 2.88817 1.55607L4.18721 2.30607C4.42837 1.88837 4.64764 1.83173 4.8076 1.83154C5.04142 1.83127 5.38989 1.961 5.81648 2.29587C6.66928 2.9653 7.4264 4.13008 7.6352 4.90918L9.08407 4.52088ZM2.88817 1.55607C2.43333 2.34389 2.38978 3.14011 2.78646 3.82913C3.14628 4.45414 3.79566 4.85807 4.43419 5.11436C5.71168 5.62712 7.43141 5.74027 8.55379 5.43947L8.16549 3.9906C7.38633 4.19942 5.99905 4.12615 4.99293 3.72231C4.48966 3.5203 4.20308 3.28338 4.08642 3.08073C4.0066 2.94208 3.94602 2.72383 4.18721 2.30607L2.88817 1.55607Z" fill="#2B2B2B"/>
</svg>
