<svg width="93" height="94" viewBox="0 0 93 94" fill="none" xmlns="http://www.w3.org/2000/svg">
<circle cx="46.8315" cy="47" r="45.7863" fill="#3D3D3D" stroke="#3D3D3D" stroke-width="0.764347"/>
<circle cx="46.832" cy="46.9999" r="41.3172" stroke="white" stroke-width="2.35569"/>
<circle cx="46.8315" cy="47" r="35.5421" fill="white" stroke="white" stroke-width="0.764347"/>
<path d="M46.3828 25.2676V33.582C46.3828 34.5312 46.1689 35.3633 45.7412 36.0781C45.3193 36.793 44.707 37.3408 43.9043 37.7217C43.1016 38.1025 42.1523 38.293 41.0566 38.293C39.4043 38.293 38.1211 37.8711 37.207 37.0273C36.293 36.1777 35.8359 35.0176 35.8359 33.5469V25.2676H38.5518V33.1338C38.5518 34.124 38.751 34.8506 39.1494 35.3135C39.5479 35.7764 40.207 36.0078 41.127 36.0078C42.0176 36.0078 42.6621 35.7764 43.0605 35.3135C43.4648 34.8447 43.667 34.1123 43.667 33.1162V25.2676H46.3828ZM59.8652 38.1172H56.7715L53.4053 32.7031L52.2539 33.5293V38.1172H49.5293V25.2676H52.2539V31.1475L53.3262 29.6357L56.8066 25.2676H59.8301L55.3477 30.9541L59.8652 38.1172ZM23.584 43.9395C22.9004 43.9395 22.3711 44.1973 21.9961 44.7129C21.6211 45.2246 21.4336 45.9395 21.4336 46.8574C21.4336 48.7676 22.1504 49.7227 23.584 49.7227C24.1855 49.7227 24.9141 49.5723 25.7695 49.2715V50.7949C25.0664 51.0879 24.2812 51.2344 23.4141 51.2344C22.168 51.2344 21.2148 50.8574 20.5547 50.1035C19.8945 49.3457 19.5645 48.2598 19.5645 46.8457C19.5645 45.9551 19.7266 45.1758 20.0508 44.5078C20.375 43.8359 20.8398 43.3223 21.4453 42.9668C22.0547 42.6074 22.7676 42.4277 23.584 42.4277C24.416 42.4277 25.252 42.6289 26.0918 43.0312L25.5059 44.5078C25.1855 44.3555 24.8633 44.2227 24.5391 44.1094C24.2148 43.9961 23.8965 43.9395 23.584 43.9395ZM28.8809 47.8301C28.8809 48.4785 28.9863 48.9688 29.1973 49.3008C29.4121 49.6328 29.7598 49.7988 30.2402 49.7988C30.7168 49.7988 31.0586 49.6348 31.2656 49.3066C31.4766 48.9746 31.582 48.4824 31.582 47.8301C31.582 47.1816 31.4766 46.6953 31.2656 46.3711C31.0547 46.0469 30.709 45.8848 30.2285 45.8848C29.752 45.8848 29.4082 46.0469 29.1973 46.3711C28.9863 46.6914 28.8809 47.1777 28.8809 47.8301ZM33.4102 47.8301C33.4102 48.8965 33.1289 49.7305 32.5664 50.332C32.0039 50.9336 31.2207 51.2344 30.2168 51.2344C29.5879 51.2344 29.0332 51.0977 28.5527 50.8242C28.0723 50.5469 27.7031 50.1504 27.4453 49.6348C27.1875 49.1191 27.0586 48.5176 27.0586 47.8301C27.0586 46.7598 27.3379 45.9277 27.8965 45.334C28.4551 44.7402 29.2402 44.4434 30.252 44.4434C30.8809 44.4434 31.4355 44.5801 31.916 44.8535C32.3965 45.127 32.7656 45.5195 33.0234 46.0312C33.2812 46.543 33.4102 47.1426 33.4102 47.8301ZM40.752 51.1172H38.9648V47.291C38.9648 46.8184 38.8848 46.4648 38.7246 46.2305C38.5684 45.9922 38.3203 45.873 37.9805 45.873C37.5234 45.873 37.1914 46.041 36.9844 46.377C36.7773 46.7129 36.6738 47.2656 36.6738 48.0352V51.1172H34.8867V44.5664H36.252L36.4922 45.4043H36.5918C36.7676 45.1035 37.0215 44.8691 37.3535 44.7012C37.6855 44.5293 38.0664 44.4434 38.4961 44.4434C39.4766 44.4434 40.1406 44.7637 40.4883 45.4043H40.6465C40.8223 45.0996 41.0801 44.8633 41.4199 44.6953C41.7637 44.5273 42.1504 44.4434 42.5801 44.4434C43.3223 44.4434 43.8828 44.6348 44.2617 45.0176C44.6445 45.3965 44.8359 46.0059 44.8359 46.8457V51.1172H43.043V47.291C43.043 46.8184 42.9629 46.4648 42.8027 46.2305C42.6465 45.9922 42.3984 45.873 42.0586 45.873C41.6211 45.873 41.293 46.0293 41.0742 46.3418C40.8594 46.6543 40.752 47.1504 40.752 47.8301V51.1172ZM50.2734 51.2344C49.5039 51.2344 48.9004 50.9551 48.4629 50.3965H48.3691C48.4316 50.9434 48.4629 51.2598 48.4629 51.3457V54H46.6758V44.5664H48.1289L48.3809 45.416H48.4629C48.8809 44.7676 49.5 44.4434 50.3203 44.4434C51.0938 44.4434 51.6992 44.7422 52.1367 45.3398C52.5742 45.9375 52.793 46.7676 52.793 47.8301C52.793 48.5293 52.6895 49.1367 52.4824 49.6523C52.2793 50.168 51.9883 50.5605 51.6094 50.8301C51.2305 51.0996 50.7852 51.2344 50.2734 51.2344ZM49.7461 45.873C49.3047 45.873 48.9824 46.0098 48.7793 46.2832C48.5762 46.5527 48.4707 47 48.4629 47.625V47.8184C48.4629 48.5215 48.5664 49.0254 48.7734 49.3301C48.9844 49.6348 49.3164 49.7871 49.7695 49.7871C50.5703 49.7871 50.9707 49.127 50.9707 47.8066C50.9707 47.1621 50.8711 46.6797 50.6719 46.3594C50.4766 46.0352 50.168 45.873 49.7461 45.873ZM58.4297 51.1172L58.084 50.2266H58.0371C57.7363 50.6055 57.4258 50.8691 57.1055 51.0176C56.7891 51.1621 56.375 51.2344 55.8633 51.2344C55.2344 51.2344 54.7383 51.0547 54.375 50.6953C54.0156 50.3359 53.8359 49.8242 53.8359 49.1602C53.8359 48.4648 54.0781 47.9531 54.5625 47.625C55.0508 47.293 55.7852 47.1094 56.7656 47.0742L57.9023 47.0391V46.752C57.9023 46.0879 57.5625 45.7559 56.8828 45.7559C56.3594 45.7559 55.7441 45.9141 55.0371 46.2305L54.4453 45.0234C55.1992 44.6289 56.0352 44.4316 56.9531 44.4316C57.832 44.4316 58.5059 44.623 58.9746 45.0059C59.4434 45.3887 59.6777 45.9707 59.6777 46.752V51.1172H58.4297ZM57.9023 48.082L57.2109 48.1055C56.6914 48.1211 56.3047 48.2148 56.0508 48.3867C55.7969 48.5586 55.6699 48.8203 55.6699 49.1719C55.6699 49.6758 55.959 49.9277 56.5371 49.9277C56.9512 49.9277 57.2812 49.8086 57.5273 49.5703C57.7773 49.332 57.9023 49.0156 57.9023 48.6211V48.082ZM67.5703 51.1172H65.7832V47.291C65.7832 46.8184 65.6992 46.4648 65.5312 46.2305C65.3633 45.9922 65.0957 45.873 64.7285 45.873C64.2285 45.873 63.8672 46.041 63.6445 46.377C63.4219 46.709 63.3105 47.2617 63.3105 48.0352V51.1172H61.5234V44.5664H62.8887L63.1289 45.4043H63.2285C63.4277 45.0879 63.7012 44.8496 64.0488 44.6895C64.4004 44.5254 64.7988 44.4434 65.2441 44.4434C66.0059 44.4434 66.584 44.6504 66.9785 45.0645C67.373 45.4746 67.5703 46.0684 67.5703 46.8457V51.1172ZM68.4727 44.5664H70.4297L71.666 48.252C71.7715 48.5723 71.8438 48.9512 71.8828 49.3887H71.918C71.9609 48.9863 72.0449 48.6074 72.1699 48.252L73.3828 44.5664H75.2988L72.5273 51.9551C72.2734 52.6387 71.9102 53.1504 71.4375 53.4902C70.9688 53.8301 70.4199 54 69.791 54C69.4824 54 69.1797 53.9668 68.8828 53.9004V52.4824C69.0977 52.5332 69.332 52.5586 69.5859 52.5586C69.9023 52.5586 70.1777 52.4609 70.4121 52.2656C70.6504 52.0742 70.8359 51.7832 70.9688 51.3926L71.0742 51.0703L68.4727 44.5664Z" fill="#535456"/>
<path d="M55.4996 57.2041L42.7416 71.8552L36.9424 65.1956" stroke="#4C4C4C" stroke-width="2" stroke-linecap="round" stroke-linejoin="round"/>
</svg>
