<?xml version="1.0" encoding="utf-8"?>
<!-- Generator: Adobe Illustrator 27.7.0, SVG Export Plug-In . SVG Version: 6.00 Build 0)  -->
<svg version="1.1" id="Layer_1" xmlns="http://www.w3.org/2000/svg" xmlns:xlink="http://www.w3.org/1999/xlink" x="0px" y="0px"
	 viewBox="0 0 29 29" style="enable-background:new 0 0 29 29;" xml:space="preserve">
<style type="text/css">
	.st0{fill-rule:evenodd;clip-rule:evenodd;fill:#252525;}
</style>
<path class="st0" d="M21,12.4c0-1.2,0-2.4-0.2-3.6c-0.3-1.5-1.1-2.8-2.5-3.6c-1.1-0.7-2.3-0.9-3.5-0.9c-1.4-0.1-2.8,0-4.3,0
	c-0.7,0-1.4,0-2.1,0c-1.2,0-2.5,0-3.7,0.2C2.6,4.9,1.2,6.1,0.4,8.1C0.1,9.1,0,10.2,0,11.3c0,2,0,4.1,0,6.1c0,0.9,0,1.9,0.2,2.8
	c0.4,2,1.6,3.4,3.7,4.1c1.1,0.4,2.2,0.5,3.3,0.5c1.8,0,3.7,0,5.5,0c1.2,0,2.5,0,3.7-0.2c2.1-0.4,3.5-1.6,4.2-3.6
	c0.3-1.1,0.4-2.2,0.4-3.2C21,16,21,14.2,21,12.4L21,12.4z M19.1,18.7c0,0.7-0.1,1.4-0.4,2.1c-0.5,1.2-1.5,1.8-2.8,2
	C15,23,14.1,23,13.2,23c-1.8,0-3.5,0-5.3,0c-1,0-1.9,0-2.9-0.2c-1.7-0.4-2.7-1.6-2.9-3.2C1.9,18.3,2,17.1,2,15.8c0-1.4,0-2.8,0-4.2
	c0-0.8,0-1.7,0.2-2.5c0.4-1.5,1.4-2.3,3-2.6C6,6.1,6.9,6.1,7.8,6.1c1.8,0,3.5,0,5.3,0c1,0,1.9,0,2.9,0.2c1.5,0.3,2.6,1.4,2.9,3
	c0.2,0.9,0.2,1.8,0.2,2.6c0,0.9,0,1.7,0,2.6C19.1,15.9,19.1,17.3,19.1,18.7z"/>
<path class="st0" d="M10.6,9.2c-3,0-5.4,2.3-5.5,5.2c0,2.9,2.4,5.4,5.4,5.4s5.4-2.3,5.4-5.3C15.9,11.6,13.5,9.3,10.6,9.2L10.6,9.2z
	 M10.5,17.9c-1.9,0-3.5-1.5-3.5-3.4s1.6-3.4,3.5-3.4s3.5,1.6,3.5,3.4C14,16.4,12.4,17.9,10.5,17.9z"/>
<path class="st0" d="M16.1,7.8c-0.7,0-1.3,0.5-1.3,1.2s0.6,1.2,1.3,1.3c0.7,0,1.3-0.5,1.3-1.2C17.4,8.4,16.8,7.8,16.1,7.8z"/>
</svg>
