<svg width="33" height="33" viewBox="0 0 33 33" fill="none" xmlns="http://www.w3.org/2000/svg">
<path d="M12.5039 22.5029H20.163V20.5029H12.5039V22.5029ZM20.163 22.5029C23.0186 22.5029 25.3335 24.8178 25.3335 27.6734H27.3335C27.3335 23.7132 24.1232 20.5029 20.163 20.5029V22.5029ZM12.5039 20.5029C8.54382 20.5029 5.3335 23.7132 5.3335 27.6734H7.3335C7.3335 24.8178 9.64838 22.5029 12.5039 22.5029V20.5029ZM20.3335 11.5029C20.3335 13.7121 18.5426 15.5029 16.3335 15.5029V17.5029C19.6472 17.5029 22.3335 14.8166 22.3335 11.5029H20.3335ZM16.3335 15.5029C14.1244 15.5029 12.3335 13.7121 12.3335 11.5029H10.3335C10.3335 14.8166 13.0198 17.5029 16.3335 17.5029V15.5029ZM12.3335 11.5029C12.3335 9.29379 14.1244 7.50293 16.3335 7.50293V5.50293C13.0198 5.50293 10.3335 8.18922 10.3335 11.5029H12.3335ZM16.3335 7.50293C18.5426 7.50293 20.3335 9.29379 20.3335 11.5029H22.3335C22.3335 8.18922 19.6472 5.50293 16.3335 5.50293V7.50293ZM30.3335 16.5029C30.3335 24.2349 24.0655 30.5029 16.3335 30.5029V32.5029C25.1701 32.5029 32.3335 25.3395 32.3335 16.5029H30.3335ZM16.3335 30.5029C8.60151 30.5029 2.3335 24.2349 2.3335 16.5029H0.333496C0.333496 25.3395 7.49694 32.5029 16.3335 32.5029V30.5029ZM2.3335 16.5029C2.3335 8.77094 8.60151 2.50293 16.3335 2.50293V0.50293C7.49694 0.50293 0.333496 7.66637 0.333496 16.5029H2.3335ZM16.3335 2.50293C24.0655 2.50293 30.3335 8.77094 30.3335 16.5029H32.3335C32.3335 7.66637 25.1701 0.50293 16.3335 0.50293V2.50293Z" fill="#2B2B2B"/>
</svg>
