<svg width="92" height="95" viewBox="0 0 92 95" fill="none" xmlns="http://www.w3.org/2000/svg">
<path d="M45.7974 0.611084L52.2617 5.24855L59.842 2.83475L64.5621 9.2495L72.5144 9.29083L75.0192 16.8463L82.5747 19.3511L82.6243 27.3116L89.0308 32.0235L86.617 39.6038L91.2627 46.0764L86.617 52.5408L89.0308 60.1211L82.6243 64.8412L82.5747 72.7935L75.0192 75.2982L72.5144 82.8537L64.5621 82.9033L59.842 89.3098L52.2617 86.896L45.7974 91.5417L39.3248 86.896L31.7444 89.3098L27.0326 82.9033L19.072 82.8537L16.5673 75.2982L9.01178 72.7935L8.97044 64.8412L2.5557 60.1211L4.9695 52.5408L0.332031 46.0764L4.9695 39.6038L2.5557 32.0235L8.97044 27.3116L9.01178 19.3511L16.5673 16.8463L19.072 9.29083L27.0326 9.2495L31.7444 2.83475L39.3248 5.24855L45.7974 0.611084Z" fill="white"/>
<path d="M26.2422 36.8987C25.5586 36.8987 25.0293 37.1565 24.6543 37.6721C24.2793 38.1838 24.0918 38.8987 24.0918 39.8167C24.0918 41.7268 24.8086 42.6819 26.2422 42.6819C26.8438 42.6819 27.5723 42.5315 28.4277 42.2307V43.7542C27.7246 44.0471 26.9395 44.1936 26.0723 44.1936C24.8262 44.1936 23.873 43.8167 23.2129 43.0627C22.5527 42.3049 22.2227 41.219 22.2227 39.8049C22.2227 38.9143 22.3848 38.135 22.709 37.467C23.0332 36.7952 23.498 36.2815 24.1035 35.926C24.7129 35.5667 25.4258 35.387 26.2422 35.387C27.0742 35.387 27.9102 35.5881 28.75 35.9905L28.1641 37.467C27.8438 37.3147 27.5215 37.1819 27.1973 37.0686C26.873 36.9553 26.5547 36.8987 26.2422 36.8987ZM36.1 44.0764L35.4789 42.0374H32.3559L31.7348 44.0764H29.7777L32.8012 35.4749H35.0219L38.057 44.0764H36.1ZM35.0453 40.5139C34.4711 38.6663 34.1469 37.6213 34.0727 37.3792C34.0023 37.137 33.9516 36.9456 33.9203 36.8049C33.7914 37.3049 33.4223 38.5413 32.8129 40.5139H35.0453ZM41.5574 39.3127H42.1434C42.7176 39.3127 43.1414 39.217 43.4148 39.0256C43.6883 38.8342 43.825 38.5334 43.825 38.1233C43.825 37.717 43.6844 37.428 43.4031 37.2561C43.1258 37.0842 42.6941 36.9983 42.1082 36.9983H41.5574V39.3127ZM41.5574 40.7893V44.0764H39.741V35.51H42.2371C43.4012 35.51 44.2625 35.7229 44.8211 36.1487C45.3797 36.5706 45.659 37.2131 45.659 38.0764C45.659 38.5803 45.5203 39.0295 45.243 39.4241C44.9656 39.8147 44.573 40.1213 44.0652 40.344C45.3543 42.2698 46.1941 43.5139 46.5848 44.0764H44.5691L42.5242 40.7893H41.5574ZM53.1965 44.0764H48.2629V35.51H53.1965V36.9983H50.0793V38.8792H52.9797V40.3674H50.0793V42.5764H53.1965V44.0764ZM60.523 44.0764H55.5895V35.51H60.523V36.9983H57.4059V38.8792H60.3063V40.3674H57.4059V42.5764H60.523V44.0764ZM64.7324 39.3127H65.3184C65.8926 39.3127 66.3164 39.217 66.5898 39.0256C66.8633 38.8342 67 38.5334 67 38.1233C67 37.717 66.8594 37.428 66.5781 37.2561C66.3008 37.0842 65.8691 36.9983 65.2832 36.9983H64.7324V39.3127ZM64.7324 40.7893V44.0764H62.916V35.51H65.4121C66.5762 35.51 67.4375 35.7229 67.9961 36.1487C68.5547 36.5706 68.834 37.2131 68.834 38.0764C68.834 38.5803 68.6953 39.0295 68.418 39.4241C68.1406 39.8147 67.748 40.1213 67.2402 40.344C68.5293 42.2698 69.3691 43.5139 69.7598 44.0764H67.7441L65.6992 40.7893H64.7324ZM26.1941 54.6975C26.1941 55.4709 25.9148 56.0803 25.3563 56.5256C24.8016 56.9709 24.0281 57.1936 23.0359 57.1936C22.1219 57.1936 21.3133 57.0217 20.6102 56.678V54.9905C21.1883 55.2483 21.6766 55.4299 22.075 55.5354C22.4773 55.6409 22.8445 55.6936 23.1766 55.6936C23.575 55.6936 23.8797 55.6174 24.0906 55.4651C24.3055 55.3127 24.4129 55.0862 24.4129 54.7854C24.4129 54.6174 24.366 54.469 24.2723 54.3401C24.1785 54.2073 24.0398 54.0803 23.8563 53.9592C23.6766 53.8381 23.3074 53.6448 22.7488 53.3792C22.2254 53.1331 21.8328 52.8967 21.5711 52.6702C21.3094 52.4436 21.1004 52.1799 20.9441 51.8792C20.7879 51.5784 20.7098 51.2268 20.7098 50.8245C20.7098 50.0667 20.9656 49.4709 21.4773 49.0374C21.993 48.6038 22.7039 48.387 23.6102 48.387C24.0555 48.387 24.4793 48.4397 24.8816 48.5452C25.2879 48.6506 25.7117 48.7991 26.1531 48.9905L25.5672 50.4026C25.1102 50.2151 24.7313 50.0842 24.4305 50.01C24.1336 49.9358 23.8406 49.8987 23.5516 49.8987C23.2078 49.8987 22.9441 49.9788 22.7605 50.1389C22.577 50.2991 22.4852 50.5081 22.4852 50.7659C22.4852 50.926 22.5223 51.0667 22.5965 51.1877C22.6707 51.3049 22.7879 51.4202 22.948 51.5334C23.1121 51.6428 23.4969 51.842 24.1023 52.1311C24.9031 52.5139 25.452 52.8987 25.7488 53.2854C26.0457 53.6682 26.1941 54.1389 26.1941 54.6975ZM30.1633 52.5413H30.7609C31.3195 52.5413 31.7375 52.4319 32.0148 52.2131C32.2922 51.9905 32.4309 51.6682 32.4309 51.2463C32.4309 50.8206 32.3137 50.5061 32.0793 50.303C31.8488 50.0999 31.4855 49.9983 30.9895 49.9983H30.1633V52.5413ZM34.2648 51.1819C34.2648 52.1038 33.9758 52.8088 33.3977 53.2971C32.8234 53.7854 32.0051 54.0295 30.9426 54.0295H30.1633V57.0764H28.3469V48.51H31.0832C32.1223 48.51 32.9113 48.7346 33.4504 49.1838C33.9934 49.6292 34.2648 50.2952 34.2648 51.1819ZM41.4156 57.0764H36.482V48.51H41.4156V49.9983H38.2984V51.8792H41.1988V53.3674H38.2984V55.5764H41.4156V57.0764ZM47.4473 49.8987C46.7637 49.8987 46.2344 50.1565 45.8594 50.6721C45.4844 51.1838 45.2969 51.8987 45.2969 52.8167C45.2969 54.7268 46.0137 55.6819 47.4473 55.6819C48.0488 55.6819 48.7773 55.5315 49.6328 55.2307V56.7542C48.9297 57.0471 48.1445 57.1936 47.2773 57.1936C46.0312 57.1936 45.0781 56.8167 44.418 56.0627C43.7578 55.3049 43.4277 54.219 43.4277 52.8049C43.4277 51.9143 43.5898 51.135 43.9141 50.467C44.2383 49.7952 44.7031 49.2815 45.3086 48.926C45.918 48.5667 46.6309 48.387 47.4473 48.387C48.2793 48.387 49.1152 48.5881 49.9551 48.9905L49.3691 50.467C49.0488 50.3147 48.7266 50.1819 48.4023 50.0686C48.0781 49.9553 47.7598 49.8987 47.4473 49.8987ZM52.0609 57.0764V48.51H53.8773V57.0764H52.0609ZM61.8777 57.0764L61.2566 55.0374H58.1336L57.5125 57.0764H55.5555L58.5789 48.4749H60.7996L63.8348 57.0764H61.8777ZM60.823 53.5139C60.2488 51.6663 59.9246 50.6213 59.8504 50.3792C59.7801 50.137 59.7293 49.9456 59.698 49.8049C59.5691 50.3049 59.2 51.5413 58.5906 53.5139H60.823ZM65.5187 57.0764V48.51H67.3352V55.5764H70.8098V57.0764H65.5187Z" fill="#131111"/>
</svg>
