<?xml version="1.0" encoding="utf-8"?>
<!-- Generator: Adobe Illustrator 27.8.1, SVG Export Plug-In . SVG Version: 6.00 Build 0)  -->
<svg version="1.1" id="Layer_1" xmlns="http://www.w3.org/2000/svg" xmlns:xlink="http://www.w3.org/1999/xlink" x="0px" y="0px"
	 viewBox="0 0 312.8 312.8" style="enable-background:new 0 0 312.8 312.8;" xml:space="preserve">
<style type="text/css">
	.st0{fill:#FFFFFF;}
</style>
<path class="st0" d="M156.4,0C17.2,0,0,17.2,0,156.4s17.2,156.4,156.4,156.4s156.4-17.2,156.4-156.4S295.6,0,156.4,0z M122.1,233.5
	c-27.8,0-50.8-20.9-54.2-47.9c-0.3-1.3-0.4-2.6-0.4-3.9V90.9v0c0-6.6,5.4-12,12-12h12.6c6.6,0,12,5.4,12,12v0v36.4
	c5.6-2,11.7-3.1,18-3.1c30.1,0,54.6,24.5,54.6,54.6C176.7,209,152.2,233.5,122.1,233.5z M249.6,219.3c0,6.6-5.4,12-12,12H225
	c-6.6,0-12-5.4-12-12l0-40.5c0-9.9-8.1-18-18-18c-5.6,0-10.7,2.6-14.1,6.6c-0.9-4.6-2.4-9.1-4.3-13.3c0,0.1,0.1,0.2,0.2,0.3
	c-6.9-15.5-20.3-27.5-36.6-32.7V90.9v0c0-6.6,5.4-12,12-12h12.6c6.6,0,12,5.4,12,12v0v36.5c5.7-2,11.8-3.1,18.2-3.1
	c30.1,0,54.6,24.5,54.6,54.6L249.6,219.3z"/>
<path class="st0" d="M104.1,178.8c0-9.9,8.1-18,18-18c9.9,0,18,8.1,18,18c0,9.9-8.1,18-18,18C112.2,196.9,104.1,188.8,104.1,178.8
	v2.8"/>
</svg>
