<svg width="43" height="43" viewBox="0 0 43 43" fill="none" xmlns="http://www.w3.org/2000/svg">
<path d="M0 21.5C0 2.36365 2.36365 0 21.5 0C40.6364 0 43 2.36365 43 21.5C43 40.6364 40.6364 43 21.5 43C2.36365 43 0 40.6364 0 21.5Z" fill="#F8F8F8"/>
<path d="M25.1221 21.2313V11.5012C25.1221 10.4851 24.2949 9.66193 23.2739 9.66193H21.338C20.3179 9.66193 19.4907 10.4851 19.4907 11.5012V16.2234C22.0045 17.0199 24.0539 18.8601 25.1221 21.2313Z" fill="#231F20"/>
<path d="M27.9174 16.6102C26.0609 16.6102 24.3438 17.2128 22.9517 18.2308C24.3669 19.5308 25.3731 21.2653 25.7544 23.2194C26.2751 22.6057 27.057 22.2143 27.9174 22.2143C29.4471 22.2143 30.6906 23.4527 30.6906 24.9741L30.6878 31.1763C30.6878 32.1915 31.515 33.0156 32.536 33.0156H34.4719C35.492 33.0156 36.3201 32.1924 36.3201 31.1763L36.3228 24.9741C36.3228 20.3622 32.5526 16.6102 27.9183 16.6102H27.9174Z" fill="#231F20"/>
<path d="M13.9248 11.5012C13.9248 10.4851 13.0976 9.66193 12.0766 9.66193H10.1407C9.12062 9.66193 8.29346 10.4851 8.29346 11.5012V25.4068C8.29346 26.9539 9.55451 28.2089 11.1091 28.2089C12.6637 28.2089 13.9248 26.9539 13.9248 25.4068V11.5012Z" fill="#231F20"/>
<path d="M16.698 33.3381C12.0637 33.3381 8.29346 29.5861 8.29346 24.9741C8.29346 20.3622 12.0637 16.6102 16.698 16.6102C21.3323 16.6102 25.1025 20.3622 25.1025 24.9741C25.1025 29.5861 21.3323 33.3381 16.698 33.3381ZM16.698 22.2134C15.1683 22.2134 13.9248 23.4518 13.9248 24.9732C13.9248 26.4946 15.1692 27.733 16.698 27.733C18.2268 27.733 19.4712 26.4946 19.4712 24.9732C19.4712 23.4518 18.2268 22.2134 16.698 22.2134Z" fill="#231F20"/>
</svg>
